G04 EAGLE Gerber RS-274X export*
G75*
%MOMM*%
%FSLAX34Y34*%
%LPD*%
%INBottom Copper*%
%IPPOS*%
%AMOC8*
5,1,8,0,0,1.08239X$1,22.5*%
G01*
%ADD10P,1.319650X8X202.500000*%
%ADD11C,1.219200*%
%ADD12P,1.319650X8X22.500000*%
%ADD13C,1.930400*%
%ADD14C,1.308000*%
%ADD15C,2.184400*%
%ADD16R,2.184400X2.184400*%
%ADD17C,2.000000*%
%ADD18C,1.320800*%
%ADD19C,1.508000*%
%ADD20C,0.304800*%
%ADD21C,0.756400*%


D10*
X812800Y500100D03*
D11*
X830580Y500100D03*
D12*
X901700Y503200D03*
D11*
X883920Y503200D03*
D13*
X336700Y673500D03*
X336700Y698500D03*
X336700Y723500D03*
X501800Y673500D03*
X501800Y698500D03*
X501800Y723500D03*
X171600Y673500D03*
X171600Y698500D03*
X171600Y723500D03*
D14*
X958660Y723900D02*
X971740Y723900D01*
X971740Y743900D02*
X958660Y743900D01*
X958660Y703900D02*
X971740Y703900D01*
D15*
X927100Y38100D03*
X877100Y88100D03*
X977100Y88100D03*
D13*
X559400Y42500D03*
X584400Y42500D03*
X609400Y42500D03*
X634400Y42500D03*
X584400Y592500D03*
X609400Y592500D03*
D16*
X84100Y25000D03*
D15*
X119100Y25000D03*
X84100Y610000D03*
D16*
X249200Y25000D03*
D15*
X284200Y25000D03*
X249200Y610000D03*
D16*
X414300Y25000D03*
D15*
X449300Y25000D03*
X414300Y610000D03*
D14*
X772000Y197040D02*
X772000Y183960D01*
X752000Y183960D02*
X752000Y197040D01*
X732000Y197040D02*
X732000Y183960D01*
X792000Y183960D02*
X792000Y197040D01*
X812000Y197040D02*
X812000Y183960D01*
X712000Y183960D02*
X712000Y197040D01*
D17*
X929800Y896100D02*
X949800Y896100D01*
X949800Y957100D02*
X929800Y957100D01*
X891800Y937100D02*
X891800Y917100D01*
D15*
X88900Y965200D03*
X138900Y915200D03*
X38900Y915200D03*
X774700Y965200D03*
X824700Y915200D03*
X724700Y915200D03*
X546100Y965200D03*
X596100Y915200D03*
X496100Y915200D03*
X317500Y965200D03*
X367500Y915200D03*
X267500Y915200D03*
D18*
X184404Y977900D02*
X171196Y977900D01*
X171196Y952500D02*
X184404Y952500D01*
X184404Y876300D02*
X171196Y876300D01*
X221996Y876300D02*
X235204Y876300D01*
X235204Y952500D02*
X221996Y952500D01*
X221996Y977900D02*
X235204Y977900D01*
X399796Y977900D02*
X413004Y977900D01*
X413004Y952500D02*
X399796Y952500D01*
X399796Y876300D02*
X413004Y876300D01*
X450596Y876300D02*
X463804Y876300D01*
X463804Y952500D02*
X450596Y952500D01*
X450596Y977900D02*
X463804Y977900D01*
X628396Y977900D02*
X641604Y977900D01*
X641604Y952500D02*
X628396Y952500D01*
X628396Y876300D02*
X641604Y876300D01*
X679196Y876300D02*
X692404Y876300D01*
X692404Y952500D02*
X679196Y952500D01*
X679196Y977900D02*
X692404Y977900D01*
D19*
X558800Y660400D03*
X584200Y660400D03*
X609600Y660400D03*
X635000Y660400D03*
X660400Y660400D03*
X660400Y736600D03*
X635000Y736600D03*
X609600Y736600D03*
X584200Y736600D03*
X558800Y736600D03*
D18*
X838200Y806196D02*
X838200Y819404D01*
X812800Y819404D02*
X812800Y806196D01*
X787400Y806196D02*
X787400Y819404D01*
X762000Y819404D02*
X762000Y806196D01*
X736600Y806196D02*
X736600Y819404D01*
D20*
X84100Y228600D02*
X84100Y25000D01*
X84100Y228600D02*
X84100Y566700D01*
X127000Y609600D02*
X127000Y685800D01*
X139700Y698500D01*
X171600Y698500D01*
X127000Y609600D02*
X84100Y566700D01*
X122284Y715916D02*
X122284Y931816D01*
X88900Y965200D01*
X122284Y715916D02*
X139700Y698500D01*
X317500Y717700D02*
X336700Y698500D01*
X337184Y907047D02*
X337184Y923353D01*
X317500Y943037D02*
X317500Y965200D01*
X317500Y887363D02*
X317500Y717700D01*
X337184Y923353D02*
X317500Y943037D01*
X337184Y907047D02*
X317500Y887363D01*
X336700Y698500D02*
X304800Y666600D01*
X304800Y609600D01*
X249200Y554000D02*
X249200Y215900D01*
X249200Y25000D01*
X249200Y554000D02*
X304800Y609600D01*
X520700Y939800D02*
X546100Y965200D01*
X520700Y711200D02*
X508000Y698500D01*
X501800Y698500D01*
X520700Y711200D02*
X520700Y939800D01*
X501800Y698500D02*
X457200Y653900D01*
X457200Y609600D01*
X414300Y566700D02*
X414300Y147600D01*
X414300Y25000D01*
X414300Y566700D02*
X457200Y609600D01*
X779500Y500100D02*
X812800Y500100D01*
X779500Y500100D02*
X571500Y292100D01*
X804900Y508000D02*
X812800Y500100D01*
X804900Y508000D02*
X774700Y508000D01*
X414300Y147600D01*
X812800Y500100D02*
X812800Y508000D01*
X800100Y520700D01*
X774700Y520700D01*
X469900Y215900D02*
X444500Y215900D01*
D21*
X444500Y215900D03*
X279400Y215900D03*
D20*
X249200Y215900D01*
X469900Y215900D02*
X774700Y520700D01*
X812800Y500100D02*
X825500Y512800D01*
X825500Y520700D01*
X812800Y533400D01*
X774700Y533400D02*
X469900Y228600D01*
X431800Y228600D01*
D21*
X431800Y228600D03*
X228600Y228600D03*
D20*
X774700Y533400D02*
X812800Y533400D01*
X228600Y228600D02*
X84100Y228600D01*
X571500Y55400D02*
X584400Y42500D01*
X571500Y55400D02*
X571500Y292100D01*
X584400Y42500D02*
X601500Y25400D01*
X622300Y25400D01*
X634400Y37500D01*
X634400Y42500D01*
X774700Y943037D02*
X774700Y965200D01*
X755016Y894716D02*
X685800Y825500D01*
X755016Y923353D02*
X774700Y943037D01*
X755016Y923353D02*
X755016Y894716D01*
X685800Y825500D02*
X685800Y596900D01*
X736600Y546100D02*
X825500Y546100D01*
X838200Y533400D01*
X838200Y520700D01*
X817600Y500100D01*
X812800Y500100D01*
X736600Y546100D02*
X685800Y596900D01*
X863320Y482600D02*
X883920Y503200D01*
X863320Y482600D02*
X825500Y482600D01*
X812800Y495300D01*
X812800Y500100D01*
D21*
X812800Y292100D03*
D20*
X812800Y500100D01*
D21*
X482600Y101600D03*
D20*
X431800Y101600D01*
D21*
X431800Y101600D03*
D20*
X891540Y429768D02*
X891540Y493776D01*
X900684Y502920D01*
X901700Y503200D01*
X793242Y813816D02*
X788670Y813816D01*
X793242Y813816D02*
X882396Y902970D01*
X898398Y902970D01*
X939546Y944118D01*
X939546Y955548D01*
X788670Y813816D02*
X787400Y812800D01*
X939546Y955548D02*
X939800Y957100D01*
X902970Y571500D02*
X902970Y505206D01*
X902970Y571500D02*
X985266Y653796D01*
X985266Y816102D01*
X898398Y902970D01*
X902970Y505206D02*
X901700Y503200D01*
X454914Y953262D02*
X452628Y953262D01*
X454914Y953262D02*
X457200Y953262D01*
X452628Y953262D02*
X418338Y987552D01*
X260604Y987552D01*
X228600Y955548D01*
X228600Y952500D01*
X457200Y952500D02*
X457200Y953262D01*
X681228Y953262D02*
X685800Y953262D01*
X681228Y953262D02*
X646938Y987552D01*
X489204Y987552D01*
X454914Y953262D01*
X685800Y953262D02*
X685800Y952500D01*
X457200Y952500D02*
X454914Y953262D01*
X560070Y779526D02*
X560070Y738378D01*
X560070Y779526D02*
X685800Y905256D01*
X685800Y952500D01*
X560070Y738378D02*
X558800Y736600D01*
D21*
X891540Y429768D03*
D20*
X811530Y260604D02*
X822960Y249174D01*
X811530Y260604D02*
X811530Y278892D01*
X834390Y301752D01*
X834390Y352044D01*
X832104Y500634D02*
X832104Y507492D01*
X944118Y619506D01*
X944118Y690372D01*
X957834Y704088D01*
X964692Y704088D01*
X832104Y500634D02*
X830580Y500100D01*
X964692Y704088D02*
X965200Y703900D01*
X834390Y475488D02*
X834390Y352044D01*
D21*
X822960Y249174D03*
X834390Y352044D03*
X834390Y475488D03*
D20*
X210312Y612648D02*
X210312Y628650D01*
X297180Y715518D01*
X308610Y715518D01*
X448056Y589788D02*
X546354Y589788D01*
X868680Y356616D02*
X868680Y347472D01*
X841248Y320040D01*
X578358Y557784D02*
X546354Y589788D01*
D21*
X210312Y612648D03*
X308610Y715518D03*
X546354Y589788D03*
X448056Y589788D03*
X868680Y356616D03*
X841248Y320040D03*
X578358Y557784D03*
D20*
X365760Y630936D02*
X365760Y644652D01*
X338328Y672084D01*
X336700Y673500D01*
D21*
X365760Y630936D03*
D20*
X157734Y635508D02*
X157734Y619506D01*
D21*
X157734Y619506D03*
X157734Y635508D03*
D20*
X317754Y605790D02*
X324612Y605790D01*
X317754Y605790D02*
X288036Y576072D01*
X288036Y27432D01*
X285750Y25146D01*
X284200Y25000D01*
D21*
X324612Y605790D03*
D20*
X502920Y628650D02*
X518922Y628650D01*
X585216Y562356D01*
X585216Y500634D01*
X452628Y368046D01*
D21*
X502920Y628650D03*
X452628Y368046D03*
X800100Y342900D03*
D20*
X804672Y347472D02*
X804672Y450342D01*
X804672Y347472D02*
X800100Y342900D01*
D21*
X804672Y450342D03*
X914400Y254480D03*
D20*
X768029Y174372D02*
X762412Y179989D01*
X762412Y180088D02*
X752000Y190500D01*
X762412Y180088D02*
X762412Y179989D01*
X768029Y174372D02*
X834292Y174372D01*
X914400Y254480D01*
D21*
X927100Y177800D03*
D20*
X927100Y190500D01*
X914400Y203200D01*
X876300Y203200D01*
D21*
X876300Y203200D03*
X876300Y228600D03*
X819150Y266116D03*
D20*
X877260Y268656D02*
X877260Y238471D01*
X876300Y237511D02*
X876300Y228600D01*
X876300Y237511D02*
X877260Y238471D01*
X877260Y268656D02*
X821690Y268656D01*
X819150Y266116D01*
D21*
X870430Y241300D03*
D20*
X788029Y206628D02*
X782412Y201012D01*
X782412Y200912D02*
X772000Y190500D01*
X782412Y200912D02*
X782412Y201012D01*
X835758Y206628D02*
X870430Y241300D01*
X835758Y206628D02*
X788029Y206628D01*
X480060Y809244D02*
X480060Y822960D01*
X322326Y980694D01*
X313182Y980694D01*
X246888Y914400D01*
X246888Y800100D01*
D21*
X480060Y809244D03*
X246888Y800100D03*
D20*
X528066Y811530D02*
X528066Y690372D01*
X557784Y660654D01*
X558800Y660400D01*
D21*
X528066Y811530D03*
D20*
X640080Y893826D02*
X640080Y946404D01*
X635508Y950976D01*
X635000Y952500D01*
D21*
X640080Y893826D03*
D20*
X486918Y870966D02*
X486918Y763524D01*
X486918Y870966D02*
X406908Y950976D01*
X406400Y952500D01*
D21*
X486918Y763524D03*
D20*
X786384Y749808D02*
X786384Y742950D01*
X786384Y749808D02*
X836676Y800100D01*
X836676Y811530D01*
X838200Y812800D01*
D21*
X786384Y742950D03*
D20*
X784098Y758952D02*
X784098Y765810D01*
X738378Y811530D01*
X736600Y812800D01*
D21*
X784098Y758952D03*
D20*
X635508Y694944D02*
X635508Y660654D01*
X635508Y694944D02*
X681228Y740664D01*
X681228Y843534D01*
X749808Y912114D01*
X749808Y960120D01*
X770382Y980694D01*
X779526Y980694D01*
X822960Y937260D01*
X822960Y916686D01*
X635508Y660654D02*
X635000Y660400D01*
X824700Y915200D02*
X822960Y916686D01*
X635508Y804672D02*
X635508Y738378D01*
X635508Y804672D02*
X724662Y893826D01*
X724662Y914400D01*
X635508Y738378D02*
X635000Y736600D01*
X724662Y914400D02*
X724700Y915200D01*
X633222Y898398D02*
X633222Y877824D01*
X633222Y898398D02*
X550926Y980694D01*
X541782Y980694D01*
X512064Y950976D01*
X512064Y752094D01*
X452628Y692658D01*
X452628Y644652D01*
X416052Y608076D01*
X635000Y876300D02*
X633222Y877824D01*
X414300Y610000D02*
X416052Y608076D01*
X608076Y674370D02*
X608076Y736092D01*
X608076Y674370D02*
X598932Y665226D01*
X598932Y603504D01*
X608076Y594360D01*
X608076Y736092D02*
X609600Y736600D01*
X608076Y594360D02*
X609400Y592500D01*
M02*
