G04 EAGLE Gerber RS-274X export*
G75*
%MOMM*%
%FSLAX34Y34*%
%LPD*%
%IN*%
%IPPOS*%
%AMOC8*
5,1,8,0,0,1.08239X$1,22.5*%
G01*
%ADD10C,0.254000*%


D10*
X0Y0D02*
X1000000Y0D01*
X1000000Y1000000D01*
X0Y1000000D01*
X0Y0D01*
X925800Y952100D02*
X953800Y952100D01*
X953800Y962100D01*
X925800Y962100D01*
X925800Y952100D01*
X886800Y913100D02*
X896800Y913100D01*
X896800Y941100D01*
X886800Y941100D01*
X886800Y913100D01*
X923300Y891100D02*
X956300Y891100D01*
X956300Y901100D01*
X923300Y901100D01*
X923300Y891100D01*
X687000Y70000D02*
X707000Y70000D01*
X707000Y91000D01*
X687000Y91000D01*
X687000Y70000D01*
X817000Y70000D02*
X837000Y70000D01*
X837000Y91000D01*
X817000Y91000D01*
X817000Y70000D01*
X90600Y733500D02*
X112600Y733500D01*
X112600Y751500D01*
X90600Y751500D01*
X90600Y733500D01*
X90600Y645500D02*
X112600Y645500D01*
X112600Y663500D01*
X90600Y663500D01*
X90600Y645500D01*
X420800Y733500D02*
X442800Y733500D01*
X442800Y751500D01*
X420800Y751500D01*
X420800Y733500D01*
X420800Y645500D02*
X442800Y645500D01*
X442800Y663500D01*
X420800Y663500D01*
X420800Y645500D01*
X255700Y645500D02*
X277700Y645500D01*
X277700Y663500D01*
X255700Y663500D01*
X255700Y645500D01*
X255700Y733500D02*
X277700Y733500D01*
X277700Y751500D01*
X255700Y751500D01*
X255700Y733500D01*
X267093Y663500D02*
X267876Y663432D01*
X268650Y663295D01*
X269409Y663092D01*
X270147Y662823D01*
X270860Y662491D01*
X271540Y662098D01*
X272184Y661647D01*
X272786Y661142D01*
X273342Y660586D01*
X273847Y659984D01*
X274298Y659340D01*
X274691Y658660D01*
X275023Y657947D01*
X275292Y657209D01*
X275495Y656450D01*
X275632Y655676D01*
X275700Y654893D01*
X275700Y654107D01*
X275632Y653324D01*
X275495Y652550D01*
X275292Y651791D01*
X275023Y651053D01*
X274691Y650340D01*
X274298Y649660D01*
X273847Y649016D01*
X273342Y648414D01*
X272786Y647858D01*
X272184Y647353D01*
X271540Y646902D01*
X270860Y646509D01*
X270147Y646177D01*
X269409Y645908D01*
X268650Y645705D01*
X267876Y645569D01*
X267093Y645500D01*
X266307Y645500D01*
X265524Y645569D01*
X264750Y645705D01*
X263991Y645908D01*
X263253Y646177D01*
X262540Y646509D01*
X261860Y646902D01*
X261216Y647353D01*
X260614Y647858D01*
X260058Y648414D01*
X259553Y649016D01*
X259102Y649660D01*
X258709Y650340D01*
X258377Y651053D01*
X258108Y651791D01*
X257905Y652550D01*
X257769Y653324D01*
X257700Y654107D01*
X257700Y654893D01*
X257769Y655676D01*
X257905Y656450D01*
X258108Y657209D01*
X258377Y657947D01*
X258709Y658660D01*
X259102Y659340D01*
X259553Y659984D01*
X260058Y660586D01*
X260614Y661142D01*
X261216Y661647D01*
X261860Y662098D01*
X262540Y662491D01*
X263253Y662823D01*
X263991Y663092D01*
X264750Y663295D01*
X265524Y663432D01*
X266307Y663500D01*
X267093Y663500D01*
X267093Y751500D02*
X267876Y751432D01*
X268650Y751295D01*
X269409Y751092D01*
X270147Y750823D01*
X270860Y750491D01*
X271540Y750098D01*
X272184Y749647D01*
X272786Y749142D01*
X273342Y748586D01*
X273847Y747984D01*
X274298Y747340D01*
X274691Y746660D01*
X275023Y745947D01*
X275292Y745209D01*
X275495Y744450D01*
X275632Y743676D01*
X275700Y742893D01*
X275700Y742107D01*
X275632Y741324D01*
X275495Y740550D01*
X275292Y739791D01*
X275023Y739053D01*
X274691Y738340D01*
X274298Y737660D01*
X273847Y737016D01*
X273342Y736414D01*
X272786Y735858D01*
X272184Y735353D01*
X271540Y734902D01*
X270860Y734509D01*
X270147Y734177D01*
X269409Y733908D01*
X268650Y733705D01*
X267876Y733569D01*
X267093Y733500D01*
X266307Y733500D01*
X265524Y733569D01*
X264750Y733705D01*
X263991Y733908D01*
X263253Y734177D01*
X262540Y734509D01*
X261860Y734902D01*
X261216Y735353D01*
X260614Y735858D01*
X260058Y736414D01*
X259553Y737016D01*
X259102Y737660D01*
X258709Y738340D01*
X258377Y739053D01*
X258108Y739791D01*
X257905Y740550D01*
X257769Y741324D01*
X257700Y742107D01*
X257700Y742893D01*
X257769Y743676D01*
X257905Y744450D01*
X258108Y745209D01*
X258377Y745947D01*
X258709Y746660D01*
X259102Y747340D01*
X259553Y747984D01*
X260058Y748586D01*
X260614Y749142D01*
X261216Y749647D01*
X261860Y750098D01*
X262540Y750491D01*
X263253Y750823D01*
X263991Y751092D01*
X264750Y751295D01*
X265524Y751432D01*
X266307Y751500D01*
X267093Y751500D01*
X432193Y663500D02*
X432976Y663432D01*
X433750Y663295D01*
X434509Y663092D01*
X435247Y662823D01*
X435960Y662491D01*
X436640Y662098D01*
X437284Y661647D01*
X437886Y661142D01*
X438442Y660586D01*
X438947Y659984D01*
X439398Y659340D01*
X439791Y658660D01*
X440123Y657947D01*
X440392Y657209D01*
X440595Y656450D01*
X440732Y655676D01*
X440800Y654893D01*
X440800Y654107D01*
X440732Y653324D01*
X440595Y652550D01*
X440392Y651791D01*
X440123Y651053D01*
X439791Y650340D01*
X439398Y649660D01*
X438947Y649016D01*
X438442Y648414D01*
X437886Y647858D01*
X437284Y647353D01*
X436640Y646902D01*
X435960Y646509D01*
X435247Y646177D01*
X434509Y645908D01*
X433750Y645705D01*
X432976Y645569D01*
X432193Y645500D01*
X431407Y645500D01*
X430624Y645569D01*
X429850Y645705D01*
X429091Y645908D01*
X428353Y646177D01*
X427640Y646509D01*
X426960Y646902D01*
X426316Y647353D01*
X425714Y647858D01*
X425158Y648414D01*
X424653Y649016D01*
X424202Y649660D01*
X423809Y650340D01*
X423477Y651053D01*
X423208Y651791D01*
X423005Y652550D01*
X422869Y653324D01*
X422800Y654107D01*
X422800Y654893D01*
X422869Y655676D01*
X423005Y656450D01*
X423208Y657209D01*
X423477Y657947D01*
X423809Y658660D01*
X424202Y659340D01*
X424653Y659984D01*
X425158Y660586D01*
X425714Y661142D01*
X426316Y661647D01*
X426960Y662098D01*
X427640Y662491D01*
X428353Y662823D01*
X429091Y663092D01*
X429850Y663295D01*
X430624Y663432D01*
X431407Y663500D01*
X432193Y663500D01*
X432193Y751500D02*
X432976Y751432D01*
X433750Y751295D01*
X434509Y751092D01*
X435247Y750823D01*
X435960Y750491D01*
X436640Y750098D01*
X437284Y749647D01*
X437886Y749142D01*
X438442Y748586D01*
X438947Y747984D01*
X439398Y747340D01*
X439791Y746660D01*
X440123Y745947D01*
X440392Y745209D01*
X440595Y744450D01*
X440732Y743676D01*
X440800Y742893D01*
X440800Y742107D01*
X440732Y741324D01*
X440595Y740550D01*
X440392Y739791D01*
X440123Y739053D01*
X439791Y738340D01*
X439398Y737660D01*
X438947Y737016D01*
X438442Y736414D01*
X437886Y735858D01*
X437284Y735353D01*
X436640Y734902D01*
X435960Y734509D01*
X435247Y734177D01*
X434509Y733908D01*
X433750Y733705D01*
X432976Y733569D01*
X432193Y733500D01*
X431407Y733500D01*
X430624Y733569D01*
X429850Y733705D01*
X429091Y733908D01*
X428353Y734177D01*
X427640Y734509D01*
X426960Y734902D01*
X426316Y735353D01*
X425714Y735858D01*
X425158Y736414D01*
X424653Y737016D01*
X424202Y737660D01*
X423809Y738340D01*
X423477Y739053D01*
X423208Y739791D01*
X423005Y740550D01*
X422869Y741324D01*
X422800Y742107D01*
X422800Y742893D01*
X422869Y743676D01*
X423005Y744450D01*
X423208Y745209D01*
X423477Y745947D01*
X423809Y746660D01*
X424202Y747340D01*
X424653Y747984D01*
X425158Y748586D01*
X425714Y749142D01*
X426316Y749647D01*
X426960Y750098D01*
X427640Y750491D01*
X428353Y750823D01*
X429091Y751092D01*
X429850Y751295D01*
X430624Y751432D01*
X431407Y751500D01*
X432193Y751500D01*
X101993Y663500D02*
X102776Y663432D01*
X103550Y663295D01*
X104309Y663092D01*
X105047Y662823D01*
X105760Y662491D01*
X106440Y662098D01*
X107084Y661647D01*
X107686Y661142D01*
X108242Y660586D01*
X108747Y659984D01*
X109198Y659340D01*
X109591Y658660D01*
X109923Y657947D01*
X110192Y657209D01*
X110395Y656450D01*
X110532Y655676D01*
X110600Y654893D01*
X110600Y654107D01*
X110532Y653324D01*
X110395Y652550D01*
X110192Y651791D01*
X109923Y651053D01*
X109591Y650340D01*
X109198Y649660D01*
X108747Y649016D01*
X108242Y648414D01*
X107686Y647858D01*
X107084Y647353D01*
X106440Y646902D01*
X105760Y646509D01*
X105047Y646177D01*
X104309Y645908D01*
X103550Y645705D01*
X102776Y645569D01*
X101993Y645500D01*
X101207Y645500D01*
X100424Y645569D01*
X99650Y645705D01*
X98891Y645908D01*
X98153Y646177D01*
X97440Y646509D01*
X96760Y646902D01*
X96116Y647353D01*
X95514Y647858D01*
X94958Y648414D01*
X94453Y649016D01*
X94002Y649660D01*
X93609Y650340D01*
X93277Y651053D01*
X93008Y651791D01*
X92805Y652550D01*
X92669Y653324D01*
X92600Y654107D01*
X92600Y654893D01*
X92669Y655676D01*
X92805Y656450D01*
X93008Y657209D01*
X93277Y657947D01*
X93609Y658660D01*
X94002Y659340D01*
X94453Y659984D01*
X94958Y660586D01*
X95514Y661142D01*
X96116Y661647D01*
X96760Y662098D01*
X97440Y662491D01*
X98153Y662823D01*
X98891Y663092D01*
X99650Y663295D01*
X100424Y663432D01*
X101207Y663500D01*
X101993Y663500D01*
X101993Y751500D02*
X102776Y751432D01*
X103550Y751295D01*
X104309Y751092D01*
X105047Y750823D01*
X105760Y750491D01*
X106440Y750098D01*
X107084Y749647D01*
X107686Y749142D01*
X108242Y748586D01*
X108747Y747984D01*
X109198Y747340D01*
X109591Y746660D01*
X109923Y745947D01*
X110192Y745209D01*
X110395Y744450D01*
X110532Y743676D01*
X110600Y742893D01*
X110600Y742107D01*
X110532Y741324D01*
X110395Y740550D01*
X110192Y739791D01*
X109923Y739053D01*
X109591Y738340D01*
X109198Y737660D01*
X108747Y737016D01*
X108242Y736414D01*
X107686Y735858D01*
X107084Y735353D01*
X106440Y734902D01*
X105760Y734509D01*
X105047Y734177D01*
X104309Y733908D01*
X103550Y733705D01*
X102776Y733569D01*
X101993Y733500D01*
X101207Y733500D01*
X100424Y733569D01*
X99650Y733705D01*
X98891Y733908D01*
X98153Y734177D01*
X97440Y734509D01*
X96760Y734902D01*
X96116Y735353D01*
X95514Y735858D01*
X94958Y736414D01*
X94453Y737016D01*
X94002Y737660D01*
X93609Y738340D01*
X93277Y739053D01*
X93008Y739791D01*
X92805Y740550D01*
X92669Y741324D01*
X92600Y742107D01*
X92600Y742893D01*
X92669Y743676D01*
X92805Y744450D01*
X93008Y745209D01*
X93277Y745947D01*
X93609Y746660D01*
X94002Y747340D01*
X94453Y747984D01*
X94958Y748586D01*
X95514Y749142D01*
X96116Y749647D01*
X96760Y750098D01*
X97440Y750491D01*
X98153Y750823D01*
X98891Y751092D01*
X99650Y751295D01*
X100424Y751432D01*
X101207Y751500D01*
X101993Y751500D01*
X964832Y757400D02*
X964098Y757472D01*
X963375Y757616D01*
X962670Y757830D01*
X961989Y758112D01*
X961340Y758459D01*
X960727Y758869D01*
X960157Y759336D01*
X959636Y759857D01*
X959169Y760427D01*
X958759Y761040D01*
X958412Y761689D01*
X958130Y762370D01*
X957916Y763075D01*
X957772Y763798D01*
X957700Y764532D01*
X957700Y765268D01*
X957772Y766002D01*
X957916Y766725D01*
X958130Y767430D01*
X958412Y768111D01*
X958759Y768760D01*
X959169Y769373D01*
X959636Y769943D01*
X960157Y770464D01*
X960727Y770931D01*
X961340Y771341D01*
X961989Y771688D01*
X962670Y771970D01*
X963375Y772184D01*
X964098Y772328D01*
X964832Y772400D01*
X965568Y772400D01*
X966302Y772328D01*
X967025Y772184D01*
X967730Y771970D01*
X968411Y771688D01*
X969060Y771341D01*
X969673Y770931D01*
X970243Y770464D01*
X970764Y769943D01*
X971231Y769373D01*
X971641Y768760D01*
X971988Y768111D01*
X972270Y767430D01*
X972484Y766725D01*
X972628Y766002D01*
X972700Y765268D01*
X972700Y764532D01*
X972628Y763798D01*
X972484Y763075D01*
X972270Y762370D01*
X971988Y761689D01*
X971641Y761040D01*
X971231Y760427D01*
X970764Y759857D01*
X970243Y759336D01*
X969673Y758869D01*
X969060Y758459D01*
X968411Y758112D01*
X967730Y757830D01*
X967025Y757616D01*
X966302Y757472D01*
X965568Y757400D01*
X964832Y757400D01*
X964832Y675400D02*
X964098Y675472D01*
X963375Y675616D01*
X962670Y675830D01*
X961989Y676112D01*
X961340Y676459D01*
X960727Y676869D01*
X960157Y677336D01*
X959636Y677857D01*
X959169Y678427D01*
X958759Y679040D01*
X958412Y679689D01*
X958130Y680370D01*
X957916Y681075D01*
X957772Y681798D01*
X957700Y682532D01*
X957700Y683268D01*
X957772Y684002D01*
X957916Y684725D01*
X958130Y685430D01*
X958412Y686111D01*
X958759Y686760D01*
X959169Y687373D01*
X959636Y687943D01*
X960157Y688464D01*
X960727Y688931D01*
X961340Y689341D01*
X961989Y689688D01*
X962670Y689970D01*
X963375Y690184D01*
X964098Y690328D01*
X964832Y690400D01*
X965568Y690400D01*
X966302Y690328D01*
X967025Y690184D01*
X967730Y689970D01*
X968411Y689688D01*
X969060Y689341D01*
X969673Y688931D01*
X970243Y688464D01*
X970764Y687943D01*
X971231Y687373D01*
X971641Y686760D01*
X971988Y686111D01*
X972270Y685430D01*
X972484Y684725D01*
X972628Y684002D01*
X972700Y683268D01*
X972700Y682532D01*
X972628Y681798D01*
X972484Y681075D01*
X972270Y680370D01*
X971988Y679689D01*
X971641Y679040D01*
X971231Y678427D01*
X970764Y677857D01*
X970243Y677336D01*
X969673Y676869D01*
X969060Y676459D01*
X968411Y676112D01*
X967730Y675830D01*
X967025Y675616D01*
X966302Y675472D01*
X965568Y675400D01*
X964832Y675400D01*
X877493Y46100D02*
X878275Y46023D01*
X879046Y45870D01*
X879798Y45641D01*
X880525Y45341D01*
X881218Y44970D01*
X881871Y44533D01*
X882479Y44035D01*
X883035Y43479D01*
X883533Y42871D01*
X883970Y42218D01*
X884341Y41525D01*
X884641Y40798D01*
X884870Y40046D01*
X885023Y39275D01*
X885100Y38493D01*
X885100Y37707D01*
X885023Y36925D01*
X884870Y36154D01*
X884641Y35402D01*
X884341Y34675D01*
X883970Y33982D01*
X883533Y33329D01*
X883035Y32721D01*
X882479Y32165D01*
X881871Y31667D01*
X881218Y31230D01*
X880525Y30859D01*
X879798Y30559D01*
X879046Y30330D01*
X878275Y30177D01*
X877493Y30100D01*
X876707Y30100D01*
X875925Y30177D01*
X875154Y30330D01*
X874402Y30559D01*
X873675Y30859D01*
X872982Y31230D01*
X872329Y31667D01*
X871721Y32165D01*
X871165Y32721D01*
X870667Y33329D01*
X870230Y33982D01*
X869859Y34675D01*
X869559Y35402D01*
X869330Y36154D01*
X869177Y36925D01*
X869100Y37707D01*
X869100Y38493D01*
X869177Y39275D01*
X869330Y40046D01*
X869559Y40798D01*
X869859Y41525D01*
X870230Y42218D01*
X870667Y42871D01*
X871165Y43479D01*
X871721Y44035D01*
X872329Y44533D01*
X872982Y44970D01*
X873675Y45341D01*
X874402Y45641D01*
X875154Y45870D01*
X875925Y46023D01*
X876707Y46100D01*
X877493Y46100D01*
X977493Y46100D02*
X978275Y46023D01*
X979046Y45870D01*
X979798Y45641D01*
X980525Y45341D01*
X981218Y44970D01*
X981871Y44533D01*
X982479Y44035D01*
X983035Y43479D01*
X983533Y42871D01*
X983970Y42218D01*
X984341Y41525D01*
X984641Y40798D01*
X984870Y40046D01*
X985023Y39275D01*
X985100Y38493D01*
X985100Y37707D01*
X985023Y36925D01*
X984870Y36154D01*
X984641Y35402D01*
X984341Y34675D01*
X983970Y33982D01*
X983533Y33329D01*
X983035Y32721D01*
X982479Y32165D01*
X981871Y31667D01*
X981218Y31230D01*
X980525Y30859D01*
X979798Y30559D01*
X979046Y30330D01*
X978275Y30177D01*
X977493Y30100D01*
X976707Y30100D01*
X975925Y30177D01*
X975154Y30330D01*
X974402Y30559D01*
X973675Y30859D01*
X972982Y31230D01*
X972329Y31667D01*
X971721Y32165D01*
X971165Y32721D01*
X970667Y33329D01*
X970230Y33982D01*
X969859Y34675D01*
X969559Y35402D01*
X969330Y36154D01*
X969177Y36925D01*
X969100Y37707D01*
X969100Y38493D01*
X969177Y39275D01*
X969330Y40046D01*
X969559Y40798D01*
X969859Y41525D01*
X970230Y42218D01*
X970667Y42871D01*
X971165Y43479D01*
X971721Y44035D01*
X972329Y44533D01*
X972982Y44970D01*
X973675Y45341D01*
X974402Y45641D01*
X975154Y45870D01*
X975925Y46023D01*
X976707Y46100D01*
X977493Y46100D01*
X927493Y96100D02*
X928275Y96023D01*
X929046Y95870D01*
X929798Y95641D01*
X930525Y95341D01*
X931218Y94970D01*
X931871Y94533D01*
X932479Y94035D01*
X933035Y93479D01*
X933533Y92871D01*
X933970Y92218D01*
X934341Y91525D01*
X934641Y90798D01*
X934870Y90046D01*
X935023Y89275D01*
X935100Y88493D01*
X935100Y87707D01*
X935023Y86925D01*
X934870Y86154D01*
X934641Y85402D01*
X934341Y84675D01*
X933970Y83982D01*
X933533Y83329D01*
X933035Y82721D01*
X932479Y82165D01*
X931871Y81667D01*
X931218Y81230D01*
X930525Y80859D01*
X929798Y80559D01*
X929046Y80330D01*
X928275Y80177D01*
X927493Y80100D01*
X926707Y80100D01*
X925925Y80177D01*
X925154Y80330D01*
X924402Y80559D01*
X923675Y80859D01*
X922982Y81230D01*
X922329Y81667D01*
X921721Y82165D01*
X921165Y82721D01*
X920667Y83329D01*
X920230Y83982D01*
X919859Y84675D01*
X919559Y85402D01*
X919330Y86154D01*
X919177Y86925D01*
X919100Y87707D01*
X919100Y88493D01*
X919177Y89275D01*
X919330Y90046D01*
X919559Y90798D01*
X919859Y91525D01*
X920230Y92218D01*
X920667Y92871D01*
X921165Y93479D01*
X921721Y94035D01*
X922329Y94533D01*
X922982Y94970D01*
X923675Y95341D01*
X924402Y95641D01*
X925154Y95870D01*
X925925Y96023D01*
X926707Y96100D01*
X927493Y96100D01*
X597337Y165000D02*
X598207Y164924D01*
X599066Y164772D01*
X599910Y164546D01*
X600730Y164248D01*
X601522Y163879D01*
X602278Y163442D01*
X602993Y162941D01*
X603662Y162380D01*
X604280Y161762D01*
X604841Y161093D01*
X605342Y160378D01*
X605779Y159622D01*
X606148Y158830D01*
X606446Y158010D01*
X606672Y157166D01*
X606824Y156307D01*
X606900Y155437D01*
X606900Y154563D01*
X606824Y153694D01*
X606672Y152834D01*
X606446Y151990D01*
X606148Y151170D01*
X605779Y150378D01*
X605342Y149622D01*
X604841Y148907D01*
X604280Y148238D01*
X603662Y147620D01*
X602993Y147059D01*
X602278Y146558D01*
X601522Y146121D01*
X600730Y145752D01*
X599910Y145454D01*
X599066Y145228D01*
X598207Y145076D01*
X597337Y145000D01*
X596463Y145000D01*
X595594Y145076D01*
X594734Y145228D01*
X593890Y145454D01*
X593070Y145752D01*
X592278Y146121D01*
X591522Y146558D01*
X590807Y147059D01*
X590138Y147620D01*
X589520Y148238D01*
X588959Y148907D01*
X588458Y149622D01*
X588021Y150378D01*
X587652Y151170D01*
X587354Y151990D01*
X587128Y152834D01*
X586976Y153694D01*
X586900Y154563D01*
X586900Y155437D01*
X586976Y156307D01*
X587128Y157166D01*
X587354Y158010D01*
X587652Y158830D01*
X588021Y159622D01*
X588458Y160378D01*
X588959Y161093D01*
X589520Y161762D01*
X590138Y162380D01*
X590807Y162941D01*
X591522Y163442D01*
X592278Y163879D01*
X593070Y164248D01*
X593890Y164546D01*
X594734Y164772D01*
X595594Y164924D01*
X596463Y165000D01*
X597337Y165000D01*
X597337Y490000D02*
X598207Y489924D01*
X599066Y489772D01*
X599910Y489546D01*
X600730Y489248D01*
X601522Y488879D01*
X602278Y488442D01*
X602993Y487941D01*
X603662Y487380D01*
X604280Y486762D01*
X604841Y486093D01*
X605342Y485378D01*
X605779Y484622D01*
X606148Y483830D01*
X606446Y483010D01*
X606672Y482166D01*
X606824Y481307D01*
X606900Y480437D01*
X606900Y479563D01*
X606824Y478694D01*
X606672Y477834D01*
X606446Y476990D01*
X606148Y476170D01*
X605779Y475378D01*
X605342Y474622D01*
X604841Y473907D01*
X604280Y473238D01*
X603662Y472620D01*
X602993Y472059D01*
X602278Y471558D01*
X601522Y471121D01*
X600730Y470752D01*
X599910Y470454D01*
X599066Y470228D01*
X598207Y470076D01*
X597337Y470000D01*
X596463Y470000D01*
X595594Y470076D01*
X594734Y470228D01*
X593890Y470454D01*
X593070Y470752D01*
X592278Y471121D01*
X591522Y471558D01*
X590807Y472059D01*
X590138Y472620D01*
X589520Y473238D01*
X588959Y473907D01*
X588458Y474622D01*
X588021Y475378D01*
X587652Y476170D01*
X587354Y476990D01*
X587128Y477834D01*
X586976Y478694D01*
X586900Y479563D01*
X586900Y480437D01*
X586976Y481307D01*
X587128Y482166D01*
X587354Y483010D01*
X587652Y483830D01*
X588021Y484622D01*
X588458Y485378D01*
X588959Y486093D01*
X589520Y486762D01*
X590138Y487380D01*
X590807Y487941D01*
X591522Y488442D01*
X592278Y488879D01*
X593070Y489248D01*
X593890Y489546D01*
X594734Y489772D01*
X595594Y489924D01*
X596463Y490000D01*
X597337Y490000D01*
X59471Y91000D02*
X60211Y90935D01*
X60942Y90806D01*
X61658Y90614D01*
X62356Y90360D01*
X63029Y90047D01*
X63671Y89676D01*
X64279Y89250D01*
X64848Y88773D01*
X65373Y88248D01*
X65850Y87679D01*
X66276Y87071D01*
X66647Y86429D01*
X66960Y85756D01*
X67214Y85058D01*
X67406Y84342D01*
X67535Y83611D01*
X67600Y82871D01*
X67600Y82129D01*
X67535Y81389D01*
X67406Y80659D01*
X67214Y79942D01*
X66960Y79244D01*
X66647Y78571D01*
X66276Y77929D01*
X65850Y77321D01*
X65373Y76752D01*
X64848Y76227D01*
X64279Y75750D01*
X63671Y75324D01*
X63029Y74953D01*
X62356Y74640D01*
X61658Y74386D01*
X60942Y74194D01*
X60211Y74065D01*
X59471Y74000D01*
X58729Y74000D01*
X57989Y74065D01*
X57259Y74194D01*
X56542Y74386D01*
X55844Y74640D01*
X55171Y74953D01*
X54529Y75324D01*
X53921Y75750D01*
X53352Y76227D01*
X52827Y76752D01*
X52350Y77321D01*
X51924Y77929D01*
X51553Y78571D01*
X51240Y79244D01*
X50986Y79942D01*
X50794Y80659D01*
X50665Y81389D01*
X50600Y82129D01*
X50600Y82871D01*
X50665Y83611D01*
X50794Y84342D01*
X50986Y85058D01*
X51240Y85756D01*
X51553Y86429D01*
X51924Y87071D01*
X52350Y87679D01*
X52827Y88248D01*
X53352Y88773D01*
X53921Y89250D01*
X54529Y89676D01*
X55171Y90047D01*
X55844Y90360D01*
X56542Y90614D01*
X57259Y90806D01*
X57989Y90935D01*
X58729Y91000D01*
X59471Y91000D01*
X59471Y561000D02*
X60211Y560935D01*
X60942Y560806D01*
X61658Y560614D01*
X62356Y560360D01*
X63029Y560047D01*
X63671Y559676D01*
X64279Y559250D01*
X64848Y558773D01*
X65373Y558248D01*
X65850Y557679D01*
X66276Y557071D01*
X66647Y556429D01*
X66960Y555756D01*
X67214Y555058D01*
X67406Y554342D01*
X67535Y553611D01*
X67600Y552871D01*
X67600Y552129D01*
X67535Y551389D01*
X67406Y550659D01*
X67214Y549942D01*
X66960Y549244D01*
X66647Y548571D01*
X66276Y547929D01*
X65850Y547321D01*
X65373Y546752D01*
X64848Y546227D01*
X64279Y545750D01*
X63671Y545324D01*
X63029Y544953D01*
X62356Y544640D01*
X61658Y544386D01*
X60942Y544194D01*
X60211Y544065D01*
X59471Y544000D01*
X58729Y544000D01*
X57989Y544065D01*
X57259Y544194D01*
X56542Y544386D01*
X55844Y544640D01*
X55171Y544953D01*
X54529Y545324D01*
X53921Y545750D01*
X53352Y546227D01*
X52827Y546752D01*
X52350Y547321D01*
X51924Y547929D01*
X51553Y548571D01*
X51240Y549244D01*
X50986Y549942D01*
X50794Y550659D01*
X50665Y551389D01*
X50600Y552129D01*
X50600Y552871D01*
X50665Y553611D01*
X50794Y554342D01*
X50986Y555058D01*
X51240Y555756D01*
X51553Y556429D01*
X51924Y557071D01*
X52350Y557679D01*
X52827Y558248D01*
X53352Y558773D01*
X53921Y559250D01*
X54529Y559676D01*
X55171Y560047D01*
X55844Y560360D01*
X56542Y560614D01*
X57259Y560806D01*
X57989Y560935D01*
X58729Y561000D01*
X59471Y561000D01*
X144471Y75000D02*
X145211Y74935D01*
X145942Y74806D01*
X146658Y74614D01*
X147356Y74360D01*
X148029Y74047D01*
X148671Y73676D01*
X149279Y73250D01*
X149848Y72773D01*
X150373Y72248D01*
X150850Y71679D01*
X151276Y71071D01*
X151647Y70429D01*
X151960Y69756D01*
X152214Y69058D01*
X152406Y68342D01*
X152535Y67611D01*
X152600Y66871D01*
X152600Y66129D01*
X152535Y65389D01*
X152406Y64659D01*
X152214Y63942D01*
X151960Y63244D01*
X151647Y62571D01*
X151276Y61929D01*
X150850Y61321D01*
X150373Y60752D01*
X149848Y60227D01*
X149279Y59750D01*
X148671Y59324D01*
X148029Y58953D01*
X147356Y58640D01*
X146658Y58386D01*
X145942Y58194D01*
X145211Y58065D01*
X144471Y58000D01*
X143729Y58000D01*
X142989Y58065D01*
X142259Y58194D01*
X141542Y58386D01*
X140844Y58640D01*
X140171Y58953D01*
X139529Y59324D01*
X138921Y59750D01*
X138352Y60227D01*
X137827Y60752D01*
X137350Y61321D01*
X136924Y61929D01*
X136553Y62571D01*
X136240Y63244D01*
X135986Y63942D01*
X135794Y64659D01*
X135665Y65389D01*
X135600Y66129D01*
X135600Y66871D01*
X135665Y67611D01*
X135794Y68342D01*
X135986Y69058D01*
X136240Y69756D01*
X136553Y70429D01*
X136924Y71071D01*
X137350Y71679D01*
X137827Y72248D01*
X138352Y72773D01*
X138921Y73250D01*
X139529Y73676D01*
X140171Y74047D01*
X140844Y74360D01*
X141542Y74614D01*
X142259Y74806D01*
X142989Y74935D01*
X143729Y75000D01*
X144471Y75000D01*
X144471Y577000D02*
X145211Y576935D01*
X145942Y576806D01*
X146658Y576614D01*
X147356Y576360D01*
X148029Y576047D01*
X148671Y575676D01*
X149279Y575250D01*
X149848Y574773D01*
X150373Y574248D01*
X150850Y573679D01*
X151276Y573071D01*
X151647Y572429D01*
X151960Y571756D01*
X152214Y571058D01*
X152406Y570342D01*
X152535Y569611D01*
X152600Y568871D01*
X152600Y568129D01*
X152535Y567389D01*
X152406Y566659D01*
X152214Y565942D01*
X151960Y565244D01*
X151647Y564571D01*
X151276Y563929D01*
X150850Y563321D01*
X150373Y562752D01*
X149848Y562227D01*
X149279Y561750D01*
X148671Y561324D01*
X148029Y560953D01*
X147356Y560640D01*
X146658Y560386D01*
X145942Y560194D01*
X145211Y560065D01*
X144471Y560000D01*
X143729Y560000D01*
X142989Y560065D01*
X142259Y560194D01*
X141542Y560386D01*
X140844Y560640D01*
X140171Y560953D01*
X139529Y561324D01*
X138921Y561750D01*
X138352Y562227D01*
X137827Y562752D01*
X137350Y563321D01*
X136924Y563929D01*
X136553Y564571D01*
X136240Y565244D01*
X135986Y565942D01*
X135794Y566659D01*
X135665Y567389D01*
X135600Y568129D01*
X135600Y568871D01*
X135665Y569611D01*
X135794Y570342D01*
X135986Y571058D01*
X136240Y571756D01*
X136553Y572429D01*
X136924Y573071D01*
X137350Y573679D01*
X137827Y574248D01*
X138352Y574773D01*
X138921Y575250D01*
X139529Y575676D01*
X140171Y576047D01*
X140844Y576360D01*
X141542Y576614D01*
X142259Y576806D01*
X142989Y576935D01*
X143729Y577000D01*
X144471Y577000D01*
X224571Y91000D02*
X225311Y90935D01*
X226042Y90806D01*
X226758Y90614D01*
X227456Y90360D01*
X228129Y90047D01*
X228771Y89676D01*
X229379Y89250D01*
X229948Y88773D01*
X230473Y88248D01*
X230950Y87679D01*
X231376Y87071D01*
X231747Y86429D01*
X232060Y85756D01*
X232314Y85058D01*
X232506Y84342D01*
X232635Y83611D01*
X232700Y82871D01*
X232700Y82129D01*
X232635Y81389D01*
X232506Y80659D01*
X232314Y79942D01*
X232060Y79244D01*
X231747Y78571D01*
X231376Y77929D01*
X230950Y77321D01*
X230473Y76752D01*
X229948Y76227D01*
X229379Y75750D01*
X228771Y75324D01*
X228129Y74953D01*
X227456Y74640D01*
X226758Y74386D01*
X226042Y74194D01*
X225311Y74065D01*
X224571Y74000D01*
X223829Y74000D01*
X223089Y74065D01*
X222359Y74194D01*
X221642Y74386D01*
X220944Y74640D01*
X220271Y74953D01*
X219629Y75324D01*
X219021Y75750D01*
X218452Y76227D01*
X217927Y76752D01*
X217450Y77321D01*
X217024Y77929D01*
X216653Y78571D01*
X216340Y79244D01*
X216086Y79942D01*
X215894Y80659D01*
X215765Y81389D01*
X215700Y82129D01*
X215700Y82871D01*
X215765Y83611D01*
X215894Y84342D01*
X216086Y85058D01*
X216340Y85756D01*
X216653Y86429D01*
X217024Y87071D01*
X217450Y87679D01*
X217927Y88248D01*
X218452Y88773D01*
X219021Y89250D01*
X219629Y89676D01*
X220271Y90047D01*
X220944Y90360D01*
X221642Y90614D01*
X222359Y90806D01*
X223089Y90935D01*
X223829Y91000D01*
X224571Y91000D01*
X224571Y561000D02*
X225311Y560935D01*
X226042Y560806D01*
X226758Y560614D01*
X227456Y560360D01*
X228129Y560047D01*
X228771Y559676D01*
X229379Y559250D01*
X229948Y558773D01*
X230473Y558248D01*
X230950Y557679D01*
X231376Y557071D01*
X231747Y556429D01*
X232060Y555756D01*
X232314Y555058D01*
X232506Y554342D01*
X232635Y553611D01*
X232700Y552871D01*
X232700Y552129D01*
X232635Y551389D01*
X232506Y550659D01*
X232314Y549942D01*
X232060Y549244D01*
X231747Y548571D01*
X231376Y547929D01*
X230950Y547321D01*
X230473Y546752D01*
X229948Y546227D01*
X229379Y545750D01*
X228771Y545324D01*
X228129Y544953D01*
X227456Y544640D01*
X226758Y544386D01*
X226042Y544194D01*
X225311Y544065D01*
X224571Y544000D01*
X223829Y544000D01*
X223089Y544065D01*
X222359Y544194D01*
X221642Y544386D01*
X220944Y544640D01*
X220271Y544953D01*
X219629Y545324D01*
X219021Y545750D01*
X218452Y546227D01*
X217927Y546752D01*
X217450Y547321D01*
X217024Y547929D01*
X216653Y548571D01*
X216340Y549244D01*
X216086Y549942D01*
X215894Y550659D01*
X215765Y551389D01*
X215700Y552129D01*
X215700Y552871D01*
X215765Y553611D01*
X215894Y554342D01*
X216086Y555058D01*
X216340Y555756D01*
X216653Y556429D01*
X217024Y557071D01*
X217450Y557679D01*
X217927Y558248D01*
X218452Y558773D01*
X219021Y559250D01*
X219629Y559676D01*
X220271Y560047D01*
X220944Y560360D01*
X221642Y560614D01*
X222359Y560806D01*
X223089Y560935D01*
X223829Y561000D01*
X224571Y561000D01*
X309571Y75000D02*
X310311Y74935D01*
X311042Y74806D01*
X311758Y74614D01*
X312456Y74360D01*
X313129Y74047D01*
X313771Y73676D01*
X314379Y73250D01*
X314948Y72773D01*
X315473Y72248D01*
X315950Y71679D01*
X316376Y71071D01*
X316747Y70429D01*
X317060Y69756D01*
X317314Y69058D01*
X317506Y68342D01*
X317635Y67611D01*
X317700Y66871D01*
X317700Y66129D01*
X317635Y65389D01*
X317506Y64659D01*
X317314Y63942D01*
X317060Y63244D01*
X316747Y62571D01*
X316376Y61929D01*
X315950Y61321D01*
X315473Y60752D01*
X314948Y60227D01*
X314379Y59750D01*
X313771Y59324D01*
X313129Y58953D01*
X312456Y58640D01*
X311758Y58386D01*
X311042Y58194D01*
X310311Y58065D01*
X309571Y58000D01*
X308829Y58000D01*
X308089Y58065D01*
X307359Y58194D01*
X306642Y58386D01*
X305944Y58640D01*
X305271Y58953D01*
X304629Y59324D01*
X304021Y59750D01*
X303452Y60227D01*
X302927Y60752D01*
X302450Y61321D01*
X302024Y61929D01*
X301653Y62571D01*
X301340Y63244D01*
X301086Y63942D01*
X300894Y64659D01*
X300765Y65389D01*
X300700Y66129D01*
X300700Y66871D01*
X300765Y67611D01*
X300894Y68342D01*
X301086Y69058D01*
X301340Y69756D01*
X301653Y70429D01*
X302024Y71071D01*
X302450Y71679D01*
X302927Y72248D01*
X303452Y72773D01*
X304021Y73250D01*
X304629Y73676D01*
X305271Y74047D01*
X305944Y74360D01*
X306642Y74614D01*
X307359Y74806D01*
X308089Y74935D01*
X308829Y75000D01*
X309571Y75000D01*
X309571Y577000D02*
X310311Y576935D01*
X311042Y576806D01*
X311758Y576614D01*
X312456Y576360D01*
X313129Y576047D01*
X313771Y575676D01*
X314379Y575250D01*
X314948Y574773D01*
X315473Y574248D01*
X315950Y573679D01*
X316376Y573071D01*
X316747Y572429D01*
X317060Y571756D01*
X317314Y571058D01*
X317506Y570342D01*
X317635Y569611D01*
X317700Y568871D01*
X317700Y568129D01*
X317635Y567389D01*
X317506Y566659D01*
X317314Y565942D01*
X317060Y565244D01*
X316747Y564571D01*
X316376Y563929D01*
X315950Y563321D01*
X315473Y562752D01*
X314948Y562227D01*
X314379Y561750D01*
X313771Y561324D01*
X313129Y560953D01*
X312456Y560640D01*
X311758Y560386D01*
X311042Y560194D01*
X310311Y560065D01*
X309571Y560000D01*
X308829Y560000D01*
X308089Y560065D01*
X307359Y560194D01*
X306642Y560386D01*
X305944Y560640D01*
X305271Y560953D01*
X304629Y561324D01*
X304021Y561750D01*
X303452Y562227D01*
X302927Y562752D01*
X302450Y563321D01*
X302024Y563929D01*
X301653Y564571D01*
X301340Y565244D01*
X301086Y565942D01*
X300894Y566659D01*
X300765Y567389D01*
X300700Y568129D01*
X300700Y568871D01*
X300765Y569611D01*
X300894Y570342D01*
X301086Y571058D01*
X301340Y571756D01*
X301653Y572429D01*
X302024Y573071D01*
X302450Y573679D01*
X302927Y574248D01*
X303452Y574773D01*
X304021Y575250D01*
X304629Y575676D01*
X305271Y576047D01*
X305944Y576360D01*
X306642Y576614D01*
X307359Y576806D01*
X308089Y576935D01*
X308829Y577000D01*
X309571Y577000D01*
X389671Y91000D02*
X390411Y90935D01*
X391142Y90806D01*
X391858Y90614D01*
X392556Y90360D01*
X393229Y90047D01*
X393871Y89676D01*
X394479Y89250D01*
X395048Y88773D01*
X395573Y88248D01*
X396050Y87679D01*
X396476Y87071D01*
X396847Y86429D01*
X397160Y85756D01*
X397414Y85058D01*
X397606Y84342D01*
X397735Y83611D01*
X397800Y82871D01*
X397800Y82129D01*
X397735Y81389D01*
X397606Y80659D01*
X397414Y79942D01*
X397160Y79244D01*
X396847Y78571D01*
X396476Y77929D01*
X396050Y77321D01*
X395573Y76752D01*
X395048Y76227D01*
X394479Y75750D01*
X393871Y75324D01*
X393229Y74953D01*
X392556Y74640D01*
X391858Y74386D01*
X391142Y74194D01*
X390411Y74065D01*
X389671Y74000D01*
X388929Y74000D01*
X388189Y74065D01*
X387459Y74194D01*
X386742Y74386D01*
X386044Y74640D01*
X385371Y74953D01*
X384729Y75324D01*
X384121Y75750D01*
X383552Y76227D01*
X383027Y76752D01*
X382550Y77321D01*
X382124Y77929D01*
X381753Y78571D01*
X381440Y79244D01*
X381186Y79942D01*
X380994Y80659D01*
X380865Y81389D01*
X380800Y82129D01*
X380800Y82871D01*
X380865Y83611D01*
X380994Y84342D01*
X381186Y85058D01*
X381440Y85756D01*
X381753Y86429D01*
X382124Y87071D01*
X382550Y87679D01*
X383027Y88248D01*
X383552Y88773D01*
X384121Y89250D01*
X384729Y89676D01*
X385371Y90047D01*
X386044Y90360D01*
X386742Y90614D01*
X387459Y90806D01*
X388189Y90935D01*
X388929Y91000D01*
X389671Y91000D01*
X389671Y561000D02*
X390411Y560935D01*
X391142Y560806D01*
X391858Y560614D01*
X392556Y560360D01*
X393229Y560047D01*
X393871Y559676D01*
X394479Y559250D01*
X395048Y558773D01*
X395573Y558248D01*
X396050Y557679D01*
X396476Y557071D01*
X396847Y556429D01*
X397160Y555756D01*
X397414Y555058D01*
X397606Y554342D01*
X397735Y553611D01*
X397800Y552871D01*
X397800Y552129D01*
X397735Y551389D01*
X397606Y550659D01*
X397414Y549942D01*
X397160Y549244D01*
X396847Y548571D01*
X396476Y547929D01*
X396050Y547321D01*
X395573Y546752D01*
X395048Y546227D01*
X394479Y545750D01*
X393871Y545324D01*
X393229Y544953D01*
X392556Y544640D01*
X391858Y544386D01*
X391142Y544194D01*
X390411Y544065D01*
X389671Y544000D01*
X388929Y544000D01*
X388189Y544065D01*
X387459Y544194D01*
X386742Y544386D01*
X386044Y544640D01*
X385371Y544953D01*
X384729Y545324D01*
X384121Y545750D01*
X383552Y546227D01*
X383027Y546752D01*
X382550Y547321D01*
X382124Y547929D01*
X381753Y548571D01*
X381440Y549244D01*
X381186Y549942D01*
X380994Y550659D01*
X380865Y551389D01*
X380800Y552129D01*
X380800Y552871D01*
X380865Y553611D01*
X380994Y554342D01*
X381186Y555058D01*
X381440Y555756D01*
X381753Y556429D01*
X382124Y557071D01*
X382550Y557679D01*
X383027Y558248D01*
X383552Y558773D01*
X384121Y559250D01*
X384729Y559676D01*
X385371Y560047D01*
X386044Y560360D01*
X386742Y560614D01*
X387459Y560806D01*
X388189Y560935D01*
X388929Y561000D01*
X389671Y561000D01*
X474671Y75000D02*
X475411Y74935D01*
X476142Y74806D01*
X476858Y74614D01*
X477556Y74360D01*
X478229Y74047D01*
X478871Y73676D01*
X479479Y73250D01*
X480048Y72773D01*
X480573Y72248D01*
X481050Y71679D01*
X481476Y71071D01*
X481847Y70429D01*
X482160Y69756D01*
X482414Y69058D01*
X482606Y68342D01*
X482735Y67611D01*
X482800Y66871D01*
X482800Y66129D01*
X482735Y65389D01*
X482606Y64659D01*
X482414Y63942D01*
X482160Y63244D01*
X481847Y62571D01*
X481476Y61929D01*
X481050Y61321D01*
X480573Y60752D01*
X480048Y60227D01*
X479479Y59750D01*
X478871Y59324D01*
X478229Y58953D01*
X477556Y58640D01*
X476858Y58386D01*
X476142Y58194D01*
X475411Y58065D01*
X474671Y58000D01*
X473929Y58000D01*
X473189Y58065D01*
X472459Y58194D01*
X471742Y58386D01*
X471044Y58640D01*
X470371Y58953D01*
X469729Y59324D01*
X469121Y59750D01*
X468552Y60227D01*
X468027Y60752D01*
X467550Y61321D01*
X467124Y61929D01*
X466753Y62571D01*
X466440Y63244D01*
X466186Y63942D01*
X465994Y64659D01*
X465865Y65389D01*
X465800Y66129D01*
X465800Y66871D01*
X465865Y67611D01*
X465994Y68342D01*
X466186Y69058D01*
X466440Y69756D01*
X466753Y70429D01*
X467124Y71071D01*
X467550Y71679D01*
X468027Y72248D01*
X468552Y72773D01*
X469121Y73250D01*
X469729Y73676D01*
X470371Y74047D01*
X471044Y74360D01*
X471742Y74614D01*
X472459Y74806D01*
X473189Y74935D01*
X473929Y75000D01*
X474671Y75000D01*
X474671Y577000D02*
X475411Y576935D01*
X476142Y576806D01*
X476858Y576614D01*
X477556Y576360D01*
X478229Y576047D01*
X478871Y575676D01*
X479479Y575250D01*
X480048Y574773D01*
X480573Y574248D01*
X481050Y573679D01*
X481476Y573071D01*
X481847Y572429D01*
X482160Y571756D01*
X482414Y571058D01*
X482606Y570342D01*
X482735Y569611D01*
X482800Y568871D01*
X482800Y568129D01*
X482735Y567389D01*
X482606Y566659D01*
X482414Y565942D01*
X482160Y565244D01*
X481847Y564571D01*
X481476Y563929D01*
X481050Y563321D01*
X480573Y562752D01*
X480048Y562227D01*
X479479Y561750D01*
X478871Y561324D01*
X478229Y560953D01*
X477556Y560640D01*
X476858Y560386D01*
X476142Y560194D01*
X475411Y560065D01*
X474671Y560000D01*
X473929Y560000D01*
X473189Y560065D01*
X472459Y560194D01*
X471742Y560386D01*
X471044Y560640D01*
X470371Y560953D01*
X469729Y561324D01*
X469121Y561750D01*
X468552Y562227D01*
X468027Y562752D01*
X467550Y563321D01*
X467124Y563929D01*
X466753Y564571D01*
X466440Y565244D01*
X466186Y565942D01*
X465994Y566659D01*
X465865Y567389D01*
X465800Y568129D01*
X465800Y568871D01*
X465865Y569611D01*
X465994Y570342D01*
X466186Y571058D01*
X466440Y571756D01*
X466753Y572429D01*
X467124Y573071D01*
X467550Y573679D01*
X468027Y574248D01*
X468552Y574773D01*
X469121Y575250D01*
X469729Y575676D01*
X470371Y576047D01*
X471044Y576360D01*
X471742Y576614D01*
X472459Y576806D01*
X473189Y576935D01*
X473929Y577000D01*
X474671Y577000D01*
X817000Y80937D02*
X817076Y81807D01*
X817228Y82666D01*
X817454Y83510D01*
X817752Y84330D01*
X818121Y85122D01*
X818558Y85878D01*
X819059Y86593D01*
X819620Y87262D01*
X820238Y87880D01*
X820907Y88441D01*
X821622Y88942D01*
X822378Y89379D01*
X823170Y89748D01*
X823990Y90046D01*
X824834Y90272D01*
X825694Y90424D01*
X826563Y90500D01*
X827437Y90500D01*
X828307Y90424D01*
X829166Y90272D01*
X830010Y90046D01*
X830830Y89748D01*
X831622Y89379D01*
X832378Y88942D01*
X833093Y88441D01*
X833762Y87880D01*
X834380Y87262D01*
X834941Y86593D01*
X835442Y85878D01*
X835879Y85122D01*
X836248Y84330D01*
X836546Y83510D01*
X836772Y82666D01*
X836924Y81807D01*
X837000Y80937D01*
X837000Y80063D01*
X836924Y79194D01*
X836772Y78334D01*
X836546Y77490D01*
X836248Y76670D01*
X835879Y75878D01*
X835442Y75122D01*
X834941Y74407D01*
X834380Y73738D01*
X833762Y73120D01*
X833093Y72559D01*
X832378Y72058D01*
X831622Y71621D01*
X830830Y71252D01*
X830010Y70954D01*
X829166Y70728D01*
X828307Y70576D01*
X827437Y70500D01*
X826563Y70500D01*
X825694Y70576D01*
X824834Y70728D01*
X823990Y70954D01*
X823170Y71252D01*
X822378Y71621D01*
X821622Y72058D01*
X820907Y72559D01*
X820238Y73120D01*
X819620Y73738D01*
X819059Y74407D01*
X818558Y75122D01*
X818121Y75878D01*
X817752Y76670D01*
X817454Y77490D01*
X817228Y78334D01*
X817076Y79194D01*
X817000Y80063D01*
X817000Y80937D01*
X687000Y80937D02*
X687076Y81807D01*
X687228Y82666D01*
X687454Y83510D01*
X687752Y84330D01*
X688121Y85122D01*
X688558Y85878D01*
X689059Y86593D01*
X689620Y87262D01*
X690238Y87880D01*
X690907Y88441D01*
X691622Y88942D01*
X692378Y89379D01*
X693170Y89748D01*
X693990Y90046D01*
X694834Y90272D01*
X695694Y90424D01*
X696563Y90500D01*
X697437Y90500D01*
X698307Y90424D01*
X699166Y90272D01*
X700010Y90046D01*
X700830Y89748D01*
X701622Y89379D01*
X702378Y88942D01*
X703093Y88441D01*
X703762Y87880D01*
X704380Y87262D01*
X704941Y86593D01*
X705442Y85878D01*
X705879Y85122D01*
X706248Y84330D01*
X706546Y83510D01*
X706772Y82666D01*
X706924Y81807D01*
X707000Y80937D01*
X707000Y80063D01*
X706924Y79194D01*
X706772Y78334D01*
X706546Y77490D01*
X706248Y76670D01*
X705879Y75878D01*
X705442Y75122D01*
X704941Y74407D01*
X704380Y73738D01*
X703762Y73120D01*
X703093Y72559D01*
X702378Y72058D01*
X701622Y71621D01*
X700830Y71252D01*
X700010Y70954D01*
X699166Y70728D01*
X698307Y70576D01*
X697437Y70500D01*
X696563Y70500D01*
X695694Y70576D01*
X694834Y70728D01*
X693990Y70954D01*
X693170Y71252D01*
X692378Y71621D01*
X691622Y72058D01*
X690907Y72559D01*
X690238Y73120D01*
X689620Y73738D01*
X689059Y74407D01*
X688558Y75122D01*
X688121Y75878D01*
X687752Y76670D01*
X687454Y77490D01*
X687228Y78334D01*
X687076Y79194D01*
X687000Y80063D01*
X687000Y80937D01*
X138507Y957200D02*
X137725Y957277D01*
X136954Y957430D01*
X136202Y957659D01*
X135475Y957959D01*
X134782Y958330D01*
X134129Y958767D01*
X133521Y959265D01*
X132965Y959821D01*
X132467Y960429D01*
X132030Y961082D01*
X131659Y961775D01*
X131359Y962502D01*
X131130Y963254D01*
X130977Y964025D01*
X130900Y964807D01*
X130900Y965593D01*
X130977Y966375D01*
X131130Y967146D01*
X131359Y967898D01*
X131659Y968625D01*
X132030Y969318D01*
X132467Y969971D01*
X132965Y970579D01*
X133521Y971135D01*
X134129Y971633D01*
X134782Y972070D01*
X135475Y972441D01*
X136202Y972741D01*
X136954Y972970D01*
X137725Y973123D01*
X138507Y973200D01*
X139293Y973200D01*
X140075Y973123D01*
X140846Y972970D01*
X141598Y972741D01*
X142325Y972441D01*
X143018Y972070D01*
X143671Y971633D01*
X144279Y971135D01*
X144835Y970579D01*
X145333Y969971D01*
X145770Y969318D01*
X146141Y968625D01*
X146441Y967898D01*
X146670Y967146D01*
X146823Y966375D01*
X146900Y965593D01*
X146900Y964807D01*
X146823Y964025D01*
X146670Y963254D01*
X146441Y962502D01*
X146141Y961775D01*
X145770Y961082D01*
X145333Y960429D01*
X144835Y959821D01*
X144279Y959265D01*
X143671Y958767D01*
X143018Y958330D01*
X142325Y957959D01*
X141598Y957659D01*
X140846Y957430D01*
X140075Y957277D01*
X139293Y957200D01*
X138507Y957200D01*
X38507Y957200D02*
X37725Y957277D01*
X36954Y957430D01*
X36202Y957659D01*
X35475Y957959D01*
X34782Y958330D01*
X34129Y958767D01*
X33521Y959265D01*
X32965Y959821D01*
X32467Y960429D01*
X32030Y961082D01*
X31659Y961775D01*
X31359Y962502D01*
X31130Y963254D01*
X30977Y964025D01*
X30900Y964807D01*
X30900Y965593D01*
X30977Y966375D01*
X31130Y967146D01*
X31359Y967898D01*
X31659Y968625D01*
X32030Y969318D01*
X32467Y969971D01*
X32965Y970579D01*
X33521Y971135D01*
X34129Y971633D01*
X34782Y972070D01*
X35475Y972441D01*
X36202Y972741D01*
X36954Y972970D01*
X37725Y973123D01*
X38507Y973200D01*
X39293Y973200D01*
X40075Y973123D01*
X40846Y972970D01*
X41598Y972741D01*
X42325Y972441D01*
X43018Y972070D01*
X43671Y971633D01*
X44279Y971135D01*
X44835Y970579D01*
X45333Y969971D01*
X45770Y969318D01*
X46141Y968625D01*
X46441Y967898D01*
X46670Y967146D01*
X46823Y966375D01*
X46900Y965593D01*
X46900Y964807D01*
X46823Y964025D01*
X46670Y963254D01*
X46441Y962502D01*
X46141Y961775D01*
X45770Y961082D01*
X45333Y960429D01*
X44835Y959821D01*
X44279Y959265D01*
X43671Y958767D01*
X43018Y958330D01*
X42325Y957959D01*
X41598Y957659D01*
X40846Y957430D01*
X40075Y957277D01*
X39293Y957200D01*
X38507Y957200D01*
X88507Y907200D02*
X87725Y907277D01*
X86954Y907430D01*
X86202Y907659D01*
X85475Y907959D01*
X84782Y908330D01*
X84129Y908767D01*
X83521Y909265D01*
X82965Y909821D01*
X82467Y910429D01*
X82030Y911082D01*
X81659Y911775D01*
X81359Y912502D01*
X81130Y913254D01*
X80977Y914025D01*
X80900Y914807D01*
X80900Y915593D01*
X80977Y916375D01*
X81130Y917146D01*
X81359Y917898D01*
X81659Y918625D01*
X82030Y919318D01*
X82467Y919971D01*
X82965Y920579D01*
X83521Y921135D01*
X84129Y921633D01*
X84782Y922070D01*
X85475Y922441D01*
X86202Y922741D01*
X86954Y922970D01*
X87725Y923123D01*
X88507Y923200D01*
X89293Y923200D01*
X90075Y923123D01*
X90846Y922970D01*
X91598Y922741D01*
X92325Y922441D01*
X93018Y922070D01*
X93671Y921633D01*
X94279Y921135D01*
X94835Y920579D01*
X95333Y919971D01*
X95770Y919318D01*
X96141Y918625D01*
X96441Y917898D01*
X96670Y917146D01*
X96823Y916375D01*
X96900Y915593D01*
X96900Y914807D01*
X96823Y914025D01*
X96670Y913254D01*
X96441Y912502D01*
X96141Y911775D01*
X95770Y911082D01*
X95333Y910429D01*
X94835Y909821D01*
X94279Y909265D01*
X93671Y908767D01*
X93018Y908330D01*
X92325Y907959D01*
X91598Y907659D01*
X90846Y907430D01*
X90075Y907277D01*
X89293Y907200D01*
X88507Y907200D01*
X824307Y957200D02*
X823525Y957277D01*
X822754Y957430D01*
X822002Y957659D01*
X821275Y957959D01*
X820582Y958330D01*
X819929Y958767D01*
X819321Y959265D01*
X818765Y959821D01*
X818267Y960429D01*
X817830Y961082D01*
X817459Y961775D01*
X817159Y962502D01*
X816930Y963254D01*
X816777Y964025D01*
X816700Y964807D01*
X816700Y965593D01*
X816777Y966375D01*
X816930Y967146D01*
X817159Y967898D01*
X817459Y968625D01*
X817830Y969318D01*
X818267Y969971D01*
X818765Y970579D01*
X819321Y971135D01*
X819929Y971633D01*
X820582Y972070D01*
X821275Y972441D01*
X822002Y972741D01*
X822754Y972970D01*
X823525Y973123D01*
X824307Y973200D01*
X825093Y973200D01*
X825875Y973123D01*
X826646Y972970D01*
X827398Y972741D01*
X828125Y972441D01*
X828818Y972070D01*
X829471Y971633D01*
X830079Y971135D01*
X830635Y970579D01*
X831133Y969971D01*
X831570Y969318D01*
X831941Y968625D01*
X832241Y967898D01*
X832470Y967146D01*
X832623Y966375D01*
X832700Y965593D01*
X832700Y964807D01*
X832623Y964025D01*
X832470Y963254D01*
X832241Y962502D01*
X831941Y961775D01*
X831570Y961082D01*
X831133Y960429D01*
X830635Y959821D01*
X830079Y959265D01*
X829471Y958767D01*
X828818Y958330D01*
X828125Y957959D01*
X827398Y957659D01*
X826646Y957430D01*
X825875Y957277D01*
X825093Y957200D01*
X824307Y957200D01*
X724307Y957200D02*
X723525Y957277D01*
X722754Y957430D01*
X722002Y957659D01*
X721275Y957959D01*
X720582Y958330D01*
X719929Y958767D01*
X719321Y959265D01*
X718765Y959821D01*
X718267Y960429D01*
X717830Y961082D01*
X717459Y961775D01*
X717159Y962502D01*
X716930Y963254D01*
X716777Y964025D01*
X716700Y964807D01*
X716700Y965593D01*
X716777Y966375D01*
X716930Y967146D01*
X717159Y967898D01*
X717459Y968625D01*
X717830Y969318D01*
X718267Y969971D01*
X718765Y970579D01*
X719321Y971135D01*
X719929Y971633D01*
X720582Y972070D01*
X721275Y972441D01*
X722002Y972741D01*
X722754Y972970D01*
X723525Y973123D01*
X724307Y973200D01*
X725093Y973200D01*
X725875Y973123D01*
X726646Y972970D01*
X727398Y972741D01*
X728125Y972441D01*
X728818Y972070D01*
X729471Y971633D01*
X730079Y971135D01*
X730635Y970579D01*
X731133Y969971D01*
X731570Y969318D01*
X731941Y968625D01*
X732241Y967898D01*
X732470Y967146D01*
X732623Y966375D01*
X732700Y965593D01*
X732700Y964807D01*
X732623Y964025D01*
X732470Y963254D01*
X732241Y962502D01*
X731941Y961775D01*
X731570Y961082D01*
X731133Y960429D01*
X730635Y959821D01*
X730079Y959265D01*
X729471Y958767D01*
X728818Y958330D01*
X728125Y957959D01*
X727398Y957659D01*
X726646Y957430D01*
X725875Y957277D01*
X725093Y957200D01*
X724307Y957200D01*
X774307Y907200D02*
X773525Y907277D01*
X772754Y907430D01*
X772002Y907659D01*
X771275Y907959D01*
X770582Y908330D01*
X769929Y908767D01*
X769321Y909265D01*
X768765Y909821D01*
X768267Y910429D01*
X767830Y911082D01*
X767459Y911775D01*
X767159Y912502D01*
X766930Y913254D01*
X766777Y914025D01*
X766700Y914807D01*
X766700Y915593D01*
X766777Y916375D01*
X766930Y917146D01*
X767159Y917898D01*
X767459Y918625D01*
X767830Y919318D01*
X768267Y919971D01*
X768765Y920579D01*
X769321Y921135D01*
X769929Y921633D01*
X770582Y922070D01*
X771275Y922441D01*
X772002Y922741D01*
X772754Y922970D01*
X773525Y923123D01*
X774307Y923200D01*
X775093Y923200D01*
X775875Y923123D01*
X776646Y922970D01*
X777398Y922741D01*
X778125Y922441D01*
X778818Y922070D01*
X779471Y921633D01*
X780079Y921135D01*
X780635Y920579D01*
X781133Y919971D01*
X781570Y919318D01*
X781941Y918625D01*
X782241Y917898D01*
X782470Y917146D01*
X782623Y916375D01*
X782700Y915593D01*
X782700Y914807D01*
X782623Y914025D01*
X782470Y913254D01*
X782241Y912502D01*
X781941Y911775D01*
X781570Y911082D01*
X781133Y910429D01*
X780635Y909821D01*
X780079Y909265D01*
X779471Y908767D01*
X778818Y908330D01*
X778125Y907959D01*
X777398Y907659D01*
X776646Y907430D01*
X775875Y907277D01*
X775093Y907200D01*
X774307Y907200D01*
X595707Y957200D02*
X594925Y957277D01*
X594154Y957430D01*
X593402Y957659D01*
X592675Y957959D01*
X591982Y958330D01*
X591329Y958767D01*
X590721Y959265D01*
X590165Y959821D01*
X589667Y960429D01*
X589230Y961082D01*
X588859Y961775D01*
X588559Y962502D01*
X588330Y963254D01*
X588177Y964025D01*
X588100Y964807D01*
X588100Y965593D01*
X588177Y966375D01*
X588330Y967146D01*
X588559Y967898D01*
X588859Y968625D01*
X589230Y969318D01*
X589667Y969971D01*
X590165Y970579D01*
X590721Y971135D01*
X591329Y971633D01*
X591982Y972070D01*
X592675Y972441D01*
X593402Y972741D01*
X594154Y972970D01*
X594925Y973123D01*
X595707Y973200D01*
X596493Y973200D01*
X597275Y973123D01*
X598046Y972970D01*
X598798Y972741D01*
X599525Y972441D01*
X600218Y972070D01*
X600871Y971633D01*
X601479Y971135D01*
X602035Y970579D01*
X602533Y969971D01*
X602970Y969318D01*
X603341Y968625D01*
X603641Y967898D01*
X603870Y967146D01*
X604023Y966375D01*
X604100Y965593D01*
X604100Y964807D01*
X604023Y964025D01*
X603870Y963254D01*
X603641Y962502D01*
X603341Y961775D01*
X602970Y961082D01*
X602533Y960429D01*
X602035Y959821D01*
X601479Y959265D01*
X600871Y958767D01*
X600218Y958330D01*
X599525Y957959D01*
X598798Y957659D01*
X598046Y957430D01*
X597275Y957277D01*
X596493Y957200D01*
X595707Y957200D01*
X495707Y957200D02*
X494925Y957277D01*
X494154Y957430D01*
X493402Y957659D01*
X492675Y957959D01*
X491982Y958330D01*
X491329Y958767D01*
X490721Y959265D01*
X490165Y959821D01*
X489667Y960429D01*
X489230Y961082D01*
X488859Y961775D01*
X488559Y962502D01*
X488330Y963254D01*
X488177Y964025D01*
X488100Y964807D01*
X488100Y965593D01*
X488177Y966375D01*
X488330Y967146D01*
X488559Y967898D01*
X488859Y968625D01*
X489230Y969318D01*
X489667Y969971D01*
X490165Y970579D01*
X490721Y971135D01*
X491329Y971633D01*
X491982Y972070D01*
X492675Y972441D01*
X493402Y972741D01*
X494154Y972970D01*
X494925Y973123D01*
X495707Y973200D01*
X496493Y973200D01*
X497275Y973123D01*
X498046Y972970D01*
X498798Y972741D01*
X499525Y972441D01*
X500218Y972070D01*
X500871Y971633D01*
X501479Y971135D01*
X502035Y970579D01*
X502533Y969971D01*
X502970Y969318D01*
X503341Y968625D01*
X503641Y967898D01*
X503870Y967146D01*
X504023Y966375D01*
X504100Y965593D01*
X504100Y964807D01*
X504023Y964025D01*
X503870Y963254D01*
X503641Y962502D01*
X503341Y961775D01*
X502970Y961082D01*
X502533Y960429D01*
X502035Y959821D01*
X501479Y959265D01*
X500871Y958767D01*
X500218Y958330D01*
X499525Y957959D01*
X498798Y957659D01*
X498046Y957430D01*
X497275Y957277D01*
X496493Y957200D01*
X495707Y957200D01*
X545707Y907200D02*
X544925Y907277D01*
X544154Y907430D01*
X543402Y907659D01*
X542675Y907959D01*
X541982Y908330D01*
X541329Y908767D01*
X540721Y909265D01*
X540165Y909821D01*
X539667Y910429D01*
X539230Y911082D01*
X538859Y911775D01*
X538559Y912502D01*
X538330Y913254D01*
X538177Y914025D01*
X538100Y914807D01*
X538100Y915593D01*
X538177Y916375D01*
X538330Y917146D01*
X538559Y917898D01*
X538859Y918625D01*
X539230Y919318D01*
X539667Y919971D01*
X540165Y920579D01*
X540721Y921135D01*
X541329Y921633D01*
X541982Y922070D01*
X542675Y922441D01*
X543402Y922741D01*
X544154Y922970D01*
X544925Y923123D01*
X545707Y923200D01*
X546493Y923200D01*
X547275Y923123D01*
X548046Y922970D01*
X548798Y922741D01*
X549525Y922441D01*
X550218Y922070D01*
X550871Y921633D01*
X551479Y921135D01*
X552035Y920579D01*
X552533Y919971D01*
X552970Y919318D01*
X553341Y918625D01*
X553641Y917898D01*
X553870Y917146D01*
X554023Y916375D01*
X554100Y915593D01*
X554100Y914807D01*
X554023Y914025D01*
X553870Y913254D01*
X553641Y912502D01*
X553341Y911775D01*
X552970Y911082D01*
X552533Y910429D01*
X552035Y909821D01*
X551479Y909265D01*
X550871Y908767D01*
X550218Y908330D01*
X549525Y907959D01*
X548798Y907659D01*
X548046Y907430D01*
X547275Y907277D01*
X546493Y907200D01*
X545707Y907200D01*
X367107Y957200D02*
X366325Y957277D01*
X365554Y957430D01*
X364802Y957659D01*
X364075Y957959D01*
X363382Y958330D01*
X362729Y958767D01*
X362121Y959265D01*
X361565Y959821D01*
X361067Y960429D01*
X360630Y961082D01*
X360259Y961775D01*
X359959Y962502D01*
X359730Y963254D01*
X359577Y964025D01*
X359500Y964807D01*
X359500Y965593D01*
X359577Y966375D01*
X359730Y967146D01*
X359959Y967898D01*
X360259Y968625D01*
X360630Y969318D01*
X361067Y969971D01*
X361565Y970579D01*
X362121Y971135D01*
X362729Y971633D01*
X363382Y972070D01*
X364075Y972441D01*
X364802Y972741D01*
X365554Y972970D01*
X366325Y973123D01*
X367107Y973200D01*
X367893Y973200D01*
X368675Y973123D01*
X369446Y972970D01*
X370198Y972741D01*
X370925Y972441D01*
X371618Y972070D01*
X372271Y971633D01*
X372879Y971135D01*
X373435Y970579D01*
X373933Y969971D01*
X374370Y969318D01*
X374741Y968625D01*
X375041Y967898D01*
X375270Y967146D01*
X375423Y966375D01*
X375500Y965593D01*
X375500Y964807D01*
X375423Y964025D01*
X375270Y963254D01*
X375041Y962502D01*
X374741Y961775D01*
X374370Y961082D01*
X373933Y960429D01*
X373435Y959821D01*
X372879Y959265D01*
X372271Y958767D01*
X371618Y958330D01*
X370925Y957959D01*
X370198Y957659D01*
X369446Y957430D01*
X368675Y957277D01*
X367893Y957200D01*
X367107Y957200D01*
X267107Y957200D02*
X266325Y957277D01*
X265554Y957430D01*
X264802Y957659D01*
X264075Y957959D01*
X263382Y958330D01*
X262729Y958767D01*
X262121Y959265D01*
X261565Y959821D01*
X261067Y960429D01*
X260630Y961082D01*
X260259Y961775D01*
X259959Y962502D01*
X259730Y963254D01*
X259577Y964025D01*
X259500Y964807D01*
X259500Y965593D01*
X259577Y966375D01*
X259730Y967146D01*
X259959Y967898D01*
X260259Y968625D01*
X260630Y969318D01*
X261067Y969971D01*
X261565Y970579D01*
X262121Y971135D01*
X262729Y971633D01*
X263382Y972070D01*
X264075Y972441D01*
X264802Y972741D01*
X265554Y972970D01*
X266325Y973123D01*
X267107Y973200D01*
X267893Y973200D01*
X268675Y973123D01*
X269446Y972970D01*
X270198Y972741D01*
X270925Y972441D01*
X271618Y972070D01*
X272271Y971633D01*
X272879Y971135D01*
X273435Y970579D01*
X273933Y969971D01*
X274370Y969318D01*
X274741Y968625D01*
X275041Y967898D01*
X275270Y967146D01*
X275423Y966375D01*
X275500Y965593D01*
X275500Y964807D01*
X275423Y964025D01*
X275270Y963254D01*
X275041Y962502D01*
X274741Y961775D01*
X274370Y961082D01*
X273933Y960429D01*
X273435Y959821D01*
X272879Y959265D01*
X272271Y958767D01*
X271618Y958330D01*
X270925Y957959D01*
X270198Y957659D01*
X269446Y957430D01*
X268675Y957277D01*
X267893Y957200D01*
X267107Y957200D01*
X317107Y907200D02*
X316325Y907277D01*
X315554Y907430D01*
X314802Y907659D01*
X314075Y907959D01*
X313382Y908330D01*
X312729Y908767D01*
X312121Y909265D01*
X311565Y909821D01*
X311067Y910429D01*
X310630Y911082D01*
X310259Y911775D01*
X309959Y912502D01*
X309730Y913254D01*
X309577Y914025D01*
X309500Y914807D01*
X309500Y915593D01*
X309577Y916375D01*
X309730Y917146D01*
X309959Y917898D01*
X310259Y918625D01*
X310630Y919318D01*
X311067Y919971D01*
X311565Y920579D01*
X312121Y921135D01*
X312729Y921633D01*
X313382Y922070D01*
X314075Y922441D01*
X314802Y922741D01*
X315554Y922970D01*
X316325Y923123D01*
X317107Y923200D01*
X317893Y923200D01*
X318675Y923123D01*
X319446Y922970D01*
X320198Y922741D01*
X320925Y922441D01*
X321618Y922070D01*
X322271Y921633D01*
X322879Y921135D01*
X323435Y920579D01*
X323933Y919971D01*
X324370Y919318D01*
X324741Y918625D01*
X325041Y917898D01*
X325270Y917146D01*
X325423Y916375D01*
X325500Y915593D01*
X325500Y914807D01*
X325423Y914025D01*
X325270Y913254D01*
X325041Y912502D01*
X324741Y911775D01*
X324370Y911082D01*
X323933Y910429D01*
X323435Y909821D01*
X322879Y909265D01*
X322271Y908767D01*
X321618Y908330D01*
X320925Y907959D01*
X320198Y907659D01*
X319446Y907430D01*
X318675Y907277D01*
X317893Y907200D01*
X317107Y907200D01*
M02*
