G04 EAGLE Gerber RS-274X export*
G75*
%MOMM*%
%FSLAX34Y34*%
%LPD*%
%INSilkscreen Top*%
%IPPOS*%
%AMOC8*
5,1,8,0,0,1.08239X$1,22.5*%
G01*
%ADD10C,0.152400*%
%ADD11C,0.076200*%
%ADD12R,0.325000X0.425000*%
%ADD13R,0.350000X0.350000*%
%ADD14C,0.127000*%
%ADD15C,0.203200*%
%ADD16C,0.101600*%
%ADD17R,0.635000X5.080000*%
%ADD18R,0.762000X0.863600*%
%ADD19R,0.425000X0.325000*%

G36*
X734776Y533780D02*
X734776Y533780D01*
X734776Y533781D01*
X734776Y557149D01*
X734772Y557154D01*
X734771Y557154D01*
X734268Y557154D01*
X734268Y558419D01*
X734264Y558424D01*
X734263Y558424D01*
X733506Y558424D01*
X733506Y559689D01*
X733502Y559694D01*
X733501Y559694D01*
X732668Y559694D01*
X732668Y560527D01*
X732664Y560532D01*
X732663Y560532D01*
X731982Y560532D01*
X731982Y561721D01*
X731978Y561726D01*
X731977Y561726D01*
X730712Y561726D01*
X730712Y562483D01*
X730708Y562488D01*
X730707Y562488D01*
X729442Y562488D01*
X729442Y563245D01*
X729438Y563250D01*
X729437Y563250D01*
X728096Y563250D01*
X728096Y564007D01*
X728092Y564012D01*
X728091Y564012D01*
X716229Y564012D01*
X716224Y564008D01*
X716225Y564007D01*
X716224Y564007D01*
X716224Y563250D01*
X714959Y563250D01*
X714954Y563246D01*
X714955Y563245D01*
X714954Y563245D01*
X714954Y562488D01*
X713689Y562488D01*
X713684Y562484D01*
X713685Y562483D01*
X713684Y562483D01*
X713684Y561726D01*
X712927Y561726D01*
X712922Y561722D01*
X712923Y561721D01*
X712922Y561721D01*
X712922Y560456D01*
X711662Y560456D01*
X711662Y561721D01*
X711658Y561726D01*
X711657Y561726D01*
X710900Y561726D01*
X710900Y562483D01*
X710896Y562488D01*
X710895Y562488D01*
X709376Y562488D01*
X709376Y563245D01*
X709372Y563250D01*
X709371Y563250D01*
X708106Y563250D01*
X708106Y564007D01*
X708102Y564012D01*
X708101Y564012D01*
X696239Y564012D01*
X696234Y564008D01*
X696235Y564007D01*
X696234Y564007D01*
X696234Y563250D01*
X694893Y563250D01*
X694888Y563246D01*
X694889Y563245D01*
X694888Y563245D01*
X694888Y562488D01*
X693369Y562488D01*
X693364Y562484D01*
X693365Y562483D01*
X693364Y562483D01*
X693364Y561218D01*
X692353Y561218D01*
X692348Y561214D01*
X692349Y561213D01*
X692348Y561213D01*
X692348Y559948D01*
X691591Y559948D01*
X691586Y559944D01*
X691587Y559943D01*
X691586Y559943D01*
X691586Y558500D01*
X690829Y558500D01*
X690824Y558496D01*
X690825Y558496D01*
X690824Y558495D01*
X690824Y556976D01*
X690321Y556976D01*
X690316Y556972D01*
X690317Y556972D01*
X690316Y556971D01*
X690316Y534035D01*
X690321Y534030D01*
X701751Y534030D01*
X701756Y534034D01*
X701756Y534035D01*
X701756Y554858D01*
X702513Y554858D01*
X702518Y554862D01*
X702518Y554863D01*
X702518Y555620D01*
X707334Y555620D01*
X707334Y533781D01*
X707339Y533776D01*
X734771Y533776D01*
X734776Y533780D01*
G37*
G36*
X734776Y482345D02*
X734776Y482345D01*
X734776Y482346D01*
X734776Y505714D01*
X734772Y505719D01*
X734771Y505719D01*
X734268Y505719D01*
X734268Y506984D01*
X734264Y506989D01*
X734263Y506989D01*
X733506Y506989D01*
X733506Y508254D01*
X733502Y508259D01*
X733501Y508259D01*
X732668Y508259D01*
X732668Y509092D01*
X732664Y509097D01*
X732663Y509097D01*
X731982Y509097D01*
X731982Y510286D01*
X731978Y510291D01*
X731977Y510291D01*
X730712Y510291D01*
X730712Y511048D01*
X730708Y511053D01*
X730707Y511053D01*
X729442Y511053D01*
X729442Y511810D01*
X729438Y511815D01*
X729437Y511815D01*
X728096Y511815D01*
X728096Y512572D01*
X728092Y512577D01*
X728091Y512577D01*
X716229Y512577D01*
X716224Y512573D01*
X716225Y512572D01*
X716224Y512572D01*
X716224Y511815D01*
X714959Y511815D01*
X714954Y511811D01*
X714955Y511810D01*
X714954Y511810D01*
X714954Y511053D01*
X713689Y511053D01*
X713684Y511049D01*
X713685Y511048D01*
X713684Y511048D01*
X713684Y510291D01*
X712927Y510291D01*
X712922Y510287D01*
X712923Y510286D01*
X712922Y510286D01*
X712922Y509021D01*
X711662Y509021D01*
X711662Y510286D01*
X711658Y510291D01*
X711657Y510291D01*
X710900Y510291D01*
X710900Y511048D01*
X710896Y511053D01*
X710895Y511053D01*
X709376Y511053D01*
X709376Y511810D01*
X709372Y511815D01*
X709371Y511815D01*
X708106Y511815D01*
X708106Y512572D01*
X708102Y512577D01*
X708101Y512577D01*
X696239Y512577D01*
X696234Y512573D01*
X696235Y512572D01*
X696234Y512572D01*
X696234Y511815D01*
X694893Y511815D01*
X694888Y511811D01*
X694889Y511810D01*
X694888Y511810D01*
X694888Y511053D01*
X693369Y511053D01*
X693364Y511049D01*
X693365Y511048D01*
X693364Y511048D01*
X693364Y509783D01*
X692353Y509783D01*
X692348Y509779D01*
X692349Y509778D01*
X692348Y509778D01*
X692348Y508513D01*
X691591Y508513D01*
X691586Y508509D01*
X691587Y508508D01*
X691586Y508508D01*
X691586Y507065D01*
X690829Y507065D01*
X690824Y507061D01*
X690825Y507061D01*
X690824Y507060D01*
X690824Y505541D01*
X690321Y505541D01*
X690316Y505537D01*
X690317Y505537D01*
X690316Y505536D01*
X690316Y482600D01*
X690321Y482595D01*
X701751Y482595D01*
X701756Y482599D01*
X701756Y482600D01*
X701756Y503423D01*
X702513Y503423D01*
X702518Y503427D01*
X702518Y503428D01*
X702518Y504185D01*
X707334Y504185D01*
X707334Y482346D01*
X707339Y482341D01*
X734771Y482341D01*
X734776Y482345D01*
G37*
G36*
X702010Y633729D02*
X702010Y633729D01*
X702010Y633730D01*
X702010Y655061D01*
X702513Y655061D01*
X702518Y655065D01*
X702518Y655066D01*
X702518Y655823D01*
X705810Y655823D01*
X705810Y633730D01*
X705815Y633725D01*
X735533Y633725D01*
X735538Y633729D01*
X735538Y633730D01*
X735538Y642874D01*
X735534Y642879D01*
X735533Y642879D01*
X719028Y642879D01*
X719028Y647441D01*
X720547Y647441D01*
X720552Y647445D01*
X720552Y647446D01*
X720552Y648203D01*
X721817Y648203D01*
X721822Y648207D01*
X721822Y648208D01*
X721822Y648965D01*
X723087Y648965D01*
X723092Y648969D01*
X723092Y648970D01*
X723092Y649727D01*
X724611Y649727D01*
X724616Y649731D01*
X724616Y649732D01*
X724616Y650235D01*
X725881Y650235D01*
X725886Y650239D01*
X725886Y650240D01*
X725886Y650997D01*
X727405Y650997D01*
X727410Y651001D01*
X727410Y651002D01*
X727410Y651759D01*
X728675Y651759D01*
X728680Y651763D01*
X728680Y651764D01*
X728680Y652267D01*
X729945Y652267D01*
X729950Y652271D01*
X729950Y652272D01*
X729950Y653029D01*
X731469Y653029D01*
X731474Y653033D01*
X731474Y653034D01*
X731474Y653537D01*
X732739Y653537D01*
X732744Y653541D01*
X732744Y653542D01*
X732744Y654299D01*
X734263Y654299D01*
X734268Y654303D01*
X734268Y654304D01*
X734268Y655061D01*
X735533Y655061D01*
X735538Y655065D01*
X735538Y655066D01*
X735538Y663956D01*
X735534Y663961D01*
X735533Y663961D01*
X733501Y663961D01*
X733496Y663957D01*
X733497Y663956D01*
X733496Y663956D01*
X733496Y663453D01*
X731977Y663453D01*
X731972Y663449D01*
X731973Y663448D01*
X731972Y663448D01*
X731972Y662691D01*
X730707Y662691D01*
X730702Y662687D01*
X730703Y662686D01*
X730702Y662686D01*
X730702Y661929D01*
X729437Y661929D01*
X729432Y661925D01*
X729433Y661924D01*
X729432Y661924D01*
X729432Y661421D01*
X727913Y661421D01*
X727908Y661417D01*
X727909Y661416D01*
X727908Y661416D01*
X727908Y660659D01*
X726643Y660659D01*
X726638Y660655D01*
X726639Y660654D01*
X726638Y660654D01*
X726638Y659897D01*
X725119Y659897D01*
X725114Y659893D01*
X725115Y659892D01*
X725114Y659892D01*
X725114Y659389D01*
X723849Y659389D01*
X723844Y659385D01*
X723844Y659384D01*
X723844Y658627D01*
X722579Y658627D01*
X722574Y658623D01*
X722575Y658622D01*
X722574Y658622D01*
X722574Y657865D01*
X721563Y657865D01*
X721558Y657861D01*
X721559Y657860D01*
X721558Y657860D01*
X721558Y657103D01*
X720293Y657103D01*
X720288Y657099D01*
X720289Y657098D01*
X720288Y657098D01*
X720288Y656595D01*
X719023Y656595D01*
X719018Y656591D01*
X719019Y656590D01*
X719018Y656590D01*
X719018Y655833D01*
X717758Y655833D01*
X717758Y659130D01*
X717754Y659135D01*
X717753Y659135D01*
X716996Y659135D01*
X716996Y659892D01*
X716992Y659897D01*
X716991Y659897D01*
X716234Y659897D01*
X716234Y660654D01*
X716230Y660659D01*
X716229Y660659D01*
X715472Y660659D01*
X715472Y661416D01*
X715468Y661421D01*
X715467Y661421D01*
X714710Y661421D01*
X714710Y661924D01*
X714706Y661929D01*
X714705Y661929D01*
X713948Y661929D01*
X713948Y662686D01*
X713944Y662691D01*
X713943Y662691D01*
X693623Y662691D01*
X693618Y662687D01*
X693619Y662686D01*
X693618Y662686D01*
X693618Y661421D01*
X693115Y661421D01*
X693110Y661417D01*
X693111Y661416D01*
X693110Y661416D01*
X693110Y660913D01*
X692353Y660913D01*
X692348Y660909D01*
X692349Y660908D01*
X692348Y660908D01*
X692348Y660151D01*
X691591Y660151D01*
X691586Y660147D01*
X691587Y660146D01*
X691586Y660146D01*
X691586Y659389D01*
X690829Y659389D01*
X690824Y659385D01*
X690824Y659384D01*
X690824Y658627D01*
X690067Y658627D01*
X690062Y658623D01*
X690063Y658622D01*
X690062Y658622D01*
X690062Y652531D01*
X689559Y652531D01*
X689554Y652527D01*
X689555Y652526D01*
X689554Y652526D01*
X689554Y633730D01*
X689559Y633725D01*
X702005Y633725D01*
X702010Y633729D01*
G37*
G36*
X735538Y597407D02*
X735538Y597407D01*
X735538Y597408D01*
X735538Y627634D01*
X735534Y627639D01*
X735533Y627639D01*
X723087Y627639D01*
X723082Y627635D01*
X723083Y627634D01*
X723082Y627634D01*
X723082Y606557D01*
X718520Y606557D01*
X718520Y623570D01*
X718516Y623575D01*
X718515Y623575D01*
X706069Y623575D01*
X706064Y623571D01*
X706065Y623570D01*
X706064Y623570D01*
X706064Y597408D01*
X706069Y597403D01*
X735533Y597403D01*
X735538Y597407D01*
G37*
G36*
X735538Y569467D02*
X735538Y569467D01*
X735538Y569468D01*
X735538Y592836D01*
X735534Y592841D01*
X735533Y592841D01*
X723087Y592841D01*
X723082Y592837D01*
X723083Y592836D01*
X723082Y592836D01*
X723082Y578363D01*
X689559Y578363D01*
X689554Y578359D01*
X689555Y578358D01*
X689554Y578358D01*
X689554Y569468D01*
X689559Y569463D01*
X735533Y569463D01*
X735538Y569467D01*
G37*
G36*
X735538Y517905D02*
X735538Y517905D01*
X735538Y517906D01*
X735538Y526796D01*
X735534Y526801D01*
X735533Y526801D01*
X689559Y526801D01*
X689554Y526797D01*
X689555Y526796D01*
X689554Y526796D01*
X689554Y517906D01*
X689559Y517901D01*
X735533Y517901D01*
X735538Y517905D01*
G37*
G36*
X701756Y597407D02*
X701756Y597407D01*
X701756Y597408D01*
X701756Y627634D01*
X701752Y627639D01*
X701751Y627639D01*
X689305Y627639D01*
X689300Y627635D01*
X689301Y627634D01*
X689300Y627634D01*
X689300Y597408D01*
X689305Y597403D01*
X701751Y597403D01*
X701756Y597407D01*
G37*
%LPC*%
G36*
X716996Y542676D02*
X716996Y542676D01*
X716996Y554858D01*
X717753Y554858D01*
X717758Y554862D01*
X717758Y554863D01*
X717758Y555620D01*
X722320Y555620D01*
X722320Y554863D01*
X722325Y554858D01*
X723082Y554858D01*
X723082Y542676D01*
X716996Y542676D01*
G37*
%LPD*%
%LPC*%
G36*
X716996Y491241D02*
X716996Y491241D01*
X716996Y503423D01*
X717753Y503423D01*
X717758Y503427D01*
X717758Y503428D01*
X717758Y504185D01*
X722320Y504185D01*
X722320Y503428D01*
X722325Y503423D01*
X723082Y503423D01*
X723082Y491241D01*
X716996Y491241D01*
G37*
%LPD*%
D10*
X762000Y596900D02*
X762000Y469900D01*
X952500Y469900D01*
X952500Y596900D01*
X762000Y596900D01*
X736600Y469900D02*
X736600Y215900D01*
X952500Y215900D01*
X977900Y190500D01*
X990600Y190500D01*
X762000Y469900D02*
X736600Y469900D01*
X952500Y469900D02*
X965200Y482600D01*
X990600Y482600D01*
X990600Y190500D01*
D11*
X766191Y585851D02*
X766191Y593217D01*
X768237Y593217D01*
X768326Y593215D01*
X768415Y593209D01*
X768504Y593199D01*
X768592Y593186D01*
X768680Y593169D01*
X768767Y593147D01*
X768852Y593122D01*
X768937Y593094D01*
X769020Y593061D01*
X769102Y593025D01*
X769182Y592986D01*
X769260Y592943D01*
X769336Y592897D01*
X769411Y592847D01*
X769483Y592794D01*
X769552Y592738D01*
X769619Y592679D01*
X769684Y592618D01*
X769745Y592553D01*
X769804Y592486D01*
X769860Y592417D01*
X769913Y592345D01*
X769963Y592270D01*
X770009Y592194D01*
X770052Y592116D01*
X770091Y592036D01*
X770127Y591954D01*
X770160Y591871D01*
X770188Y591786D01*
X770213Y591701D01*
X770235Y591614D01*
X770252Y591526D01*
X770265Y591438D01*
X770275Y591349D01*
X770281Y591260D01*
X770283Y591171D01*
X770281Y591082D01*
X770275Y590993D01*
X770265Y590904D01*
X770252Y590816D01*
X770235Y590728D01*
X770213Y590641D01*
X770188Y590556D01*
X770160Y590471D01*
X770127Y590388D01*
X770091Y590306D01*
X770052Y590226D01*
X770009Y590148D01*
X769963Y590072D01*
X769913Y589997D01*
X769860Y589925D01*
X769804Y589856D01*
X769745Y589789D01*
X769684Y589724D01*
X769619Y589663D01*
X769552Y589604D01*
X769483Y589548D01*
X769411Y589495D01*
X769336Y589445D01*
X769260Y589399D01*
X769182Y589356D01*
X769102Y589317D01*
X769020Y589281D01*
X768937Y589248D01*
X768852Y589220D01*
X768767Y589195D01*
X768680Y589173D01*
X768592Y589156D01*
X768504Y589143D01*
X768415Y589133D01*
X768326Y589127D01*
X768237Y589125D01*
X766191Y589125D01*
X772892Y593217D02*
X774529Y585851D01*
X776166Y590762D01*
X777803Y585851D01*
X779440Y593217D01*
X782706Y593217D02*
X782706Y585851D01*
X782706Y593217D02*
X784752Y593217D01*
X784841Y593215D01*
X784930Y593209D01*
X785019Y593199D01*
X785107Y593186D01*
X785195Y593169D01*
X785282Y593147D01*
X785367Y593122D01*
X785452Y593094D01*
X785535Y593061D01*
X785617Y593025D01*
X785697Y592986D01*
X785775Y592943D01*
X785851Y592897D01*
X785926Y592847D01*
X785998Y592794D01*
X786067Y592738D01*
X786134Y592679D01*
X786199Y592618D01*
X786260Y592553D01*
X786319Y592486D01*
X786375Y592417D01*
X786428Y592345D01*
X786478Y592270D01*
X786524Y592194D01*
X786567Y592116D01*
X786606Y592036D01*
X786642Y591954D01*
X786675Y591871D01*
X786703Y591786D01*
X786728Y591701D01*
X786750Y591614D01*
X786767Y591526D01*
X786780Y591438D01*
X786790Y591349D01*
X786796Y591260D01*
X786798Y591171D01*
X786796Y591082D01*
X786790Y590993D01*
X786780Y590904D01*
X786767Y590816D01*
X786750Y590728D01*
X786728Y590641D01*
X786703Y590556D01*
X786675Y590471D01*
X786642Y590388D01*
X786606Y590306D01*
X786567Y590226D01*
X786524Y590148D01*
X786478Y590072D01*
X786428Y589997D01*
X786375Y589925D01*
X786319Y589856D01*
X786260Y589789D01*
X786199Y589724D01*
X786134Y589663D01*
X786067Y589604D01*
X785998Y589548D01*
X785926Y589495D01*
X785851Y589445D01*
X785775Y589399D01*
X785697Y589356D01*
X785617Y589317D01*
X785535Y589281D01*
X785452Y589248D01*
X785367Y589220D01*
X785282Y589195D01*
X785195Y589173D01*
X785107Y589156D01*
X785019Y589143D01*
X784930Y589133D01*
X784841Y589127D01*
X784752Y589125D01*
X782706Y589125D01*
X785161Y589125D02*
X786798Y585851D01*
D10*
X826770Y486130D02*
X831850Y486130D01*
X829310Y488670D02*
X829310Y483590D01*
X801370Y500100D02*
X801376Y500599D01*
X801394Y501097D01*
X801425Y501595D01*
X801468Y502092D01*
X801523Y502587D01*
X801590Y503082D01*
X801669Y503574D01*
X801760Y504064D01*
X801864Y504552D01*
X801979Y505037D01*
X802106Y505520D01*
X802245Y505999D01*
X802396Y506474D01*
X802558Y506946D01*
X802732Y507413D01*
X802917Y507876D01*
X803113Y508335D01*
X803321Y508788D01*
X803540Y509236D01*
X803769Y509679D01*
X804010Y510116D01*
X804261Y510547D01*
X804523Y510971D01*
X804795Y511389D01*
X805077Y511800D01*
X805369Y512205D01*
X805671Y512602D01*
X805982Y512991D01*
X806304Y513372D01*
X806634Y513746D01*
X806973Y514111D01*
X807322Y514468D01*
X807679Y514817D01*
X808044Y515156D01*
X808418Y515486D01*
X808799Y515808D01*
X809188Y516119D01*
X809585Y516421D01*
X809990Y516713D01*
X810401Y516995D01*
X810819Y517267D01*
X811243Y517529D01*
X811674Y517780D01*
X812111Y518021D01*
X812554Y518250D01*
X813002Y518469D01*
X813455Y518677D01*
X813914Y518873D01*
X814377Y519058D01*
X814844Y519232D01*
X815316Y519394D01*
X815791Y519545D01*
X816270Y519684D01*
X816753Y519811D01*
X817238Y519926D01*
X817726Y520030D01*
X818216Y520121D01*
X818708Y520200D01*
X819203Y520267D01*
X819698Y520322D01*
X820195Y520365D01*
X820693Y520396D01*
X821191Y520414D01*
X821690Y520420D01*
X822189Y520414D01*
X822687Y520396D01*
X823185Y520365D01*
X823682Y520322D01*
X824177Y520267D01*
X824672Y520200D01*
X825164Y520121D01*
X825654Y520030D01*
X826142Y519926D01*
X826627Y519811D01*
X827110Y519684D01*
X827589Y519545D01*
X828064Y519394D01*
X828536Y519232D01*
X829003Y519058D01*
X829466Y518873D01*
X829925Y518677D01*
X830378Y518469D01*
X830826Y518250D01*
X831269Y518021D01*
X831706Y517780D01*
X832137Y517529D01*
X832561Y517267D01*
X832979Y516995D01*
X833390Y516713D01*
X833795Y516421D01*
X834192Y516119D01*
X834581Y515808D01*
X834962Y515486D01*
X835336Y515156D01*
X835701Y514817D01*
X836058Y514468D01*
X836407Y514111D01*
X836746Y513746D01*
X837076Y513372D01*
X837398Y512991D01*
X837709Y512602D01*
X838011Y512205D01*
X838303Y511800D01*
X838585Y511389D01*
X838857Y510971D01*
X839119Y510547D01*
X839370Y510116D01*
X839611Y509679D01*
X839840Y509236D01*
X840059Y508788D01*
X840267Y508335D01*
X840463Y507876D01*
X840648Y507413D01*
X840822Y506946D01*
X840984Y506474D01*
X841135Y505999D01*
X841274Y505520D01*
X841401Y505037D01*
X841516Y504552D01*
X841620Y504064D01*
X841711Y503574D01*
X841790Y503082D01*
X841857Y502587D01*
X841912Y502092D01*
X841955Y501595D01*
X841986Y501097D01*
X842004Y500599D01*
X842010Y500100D01*
X842004Y499601D01*
X841986Y499103D01*
X841955Y498605D01*
X841912Y498108D01*
X841857Y497613D01*
X841790Y497118D01*
X841711Y496626D01*
X841620Y496136D01*
X841516Y495648D01*
X841401Y495163D01*
X841274Y494680D01*
X841135Y494201D01*
X840984Y493726D01*
X840822Y493254D01*
X840648Y492787D01*
X840463Y492324D01*
X840267Y491865D01*
X840059Y491412D01*
X839840Y490964D01*
X839611Y490521D01*
X839370Y490084D01*
X839119Y489653D01*
X838857Y489229D01*
X838585Y488811D01*
X838303Y488400D01*
X838011Y487995D01*
X837709Y487598D01*
X837398Y487209D01*
X837076Y486828D01*
X836746Y486454D01*
X836407Y486089D01*
X836058Y485732D01*
X835701Y485383D01*
X835336Y485044D01*
X834962Y484714D01*
X834581Y484392D01*
X834192Y484081D01*
X833795Y483779D01*
X833390Y483487D01*
X832979Y483205D01*
X832561Y482933D01*
X832137Y482671D01*
X831706Y482420D01*
X831269Y482179D01*
X830826Y481950D01*
X830378Y481731D01*
X829925Y481523D01*
X829466Y481327D01*
X829003Y481142D01*
X828536Y480968D01*
X828064Y480806D01*
X827589Y480655D01*
X827110Y480516D01*
X826627Y480389D01*
X826142Y480274D01*
X825654Y480170D01*
X825164Y480079D01*
X824672Y480000D01*
X824177Y479933D01*
X823682Y479878D01*
X823185Y479835D01*
X822687Y479804D01*
X822189Y479786D01*
X821690Y479780D01*
X821191Y479786D01*
X820693Y479804D01*
X820195Y479835D01*
X819698Y479878D01*
X819203Y479933D01*
X818708Y480000D01*
X818216Y480079D01*
X817726Y480170D01*
X817238Y480274D01*
X816753Y480389D01*
X816270Y480516D01*
X815791Y480655D01*
X815316Y480806D01*
X814844Y480968D01*
X814377Y481142D01*
X813914Y481327D01*
X813455Y481523D01*
X813002Y481731D01*
X812554Y481950D01*
X812111Y482179D01*
X811674Y482420D01*
X811243Y482671D01*
X810819Y482933D01*
X810401Y483205D01*
X809990Y483487D01*
X809585Y483779D01*
X809188Y484081D01*
X808799Y484392D01*
X808418Y484714D01*
X808044Y485044D01*
X807679Y485383D01*
X807322Y485732D01*
X806973Y486089D01*
X806634Y486454D01*
X806304Y486828D01*
X805982Y487209D01*
X805671Y487598D01*
X805369Y487995D01*
X805077Y488400D01*
X804795Y488811D01*
X804523Y489229D01*
X804261Y489653D01*
X804010Y490084D01*
X803769Y490521D01*
X803540Y490964D01*
X803321Y491412D01*
X803113Y491865D01*
X802917Y492324D01*
X802732Y492787D01*
X802558Y493254D01*
X802396Y493726D01*
X802245Y494201D01*
X802106Y494680D01*
X801979Y495163D01*
X801864Y495648D01*
X801760Y496136D01*
X801669Y496626D01*
X801590Y497118D01*
X801523Y497613D01*
X801468Y498108D01*
X801425Y498605D01*
X801394Y499103D01*
X801376Y499601D01*
X801370Y500100D01*
X882650Y517170D02*
X887730Y517170D01*
X885190Y514630D02*
X885190Y519710D01*
X872490Y503200D02*
X872496Y503699D01*
X872514Y504197D01*
X872545Y504695D01*
X872588Y505192D01*
X872643Y505687D01*
X872710Y506182D01*
X872789Y506674D01*
X872880Y507164D01*
X872984Y507652D01*
X873099Y508137D01*
X873226Y508620D01*
X873365Y509099D01*
X873516Y509574D01*
X873678Y510046D01*
X873852Y510513D01*
X874037Y510976D01*
X874233Y511435D01*
X874441Y511888D01*
X874660Y512336D01*
X874889Y512779D01*
X875130Y513216D01*
X875381Y513647D01*
X875643Y514071D01*
X875915Y514489D01*
X876197Y514900D01*
X876489Y515305D01*
X876791Y515702D01*
X877102Y516091D01*
X877424Y516472D01*
X877754Y516846D01*
X878093Y517211D01*
X878442Y517568D01*
X878799Y517917D01*
X879164Y518256D01*
X879538Y518586D01*
X879919Y518908D01*
X880308Y519219D01*
X880705Y519521D01*
X881110Y519813D01*
X881521Y520095D01*
X881939Y520367D01*
X882363Y520629D01*
X882794Y520880D01*
X883231Y521121D01*
X883674Y521350D01*
X884122Y521569D01*
X884575Y521777D01*
X885034Y521973D01*
X885497Y522158D01*
X885964Y522332D01*
X886436Y522494D01*
X886911Y522645D01*
X887390Y522784D01*
X887873Y522911D01*
X888358Y523026D01*
X888846Y523130D01*
X889336Y523221D01*
X889828Y523300D01*
X890323Y523367D01*
X890818Y523422D01*
X891315Y523465D01*
X891813Y523496D01*
X892311Y523514D01*
X892810Y523520D01*
X893309Y523514D01*
X893807Y523496D01*
X894305Y523465D01*
X894802Y523422D01*
X895297Y523367D01*
X895792Y523300D01*
X896284Y523221D01*
X896774Y523130D01*
X897262Y523026D01*
X897747Y522911D01*
X898230Y522784D01*
X898709Y522645D01*
X899184Y522494D01*
X899656Y522332D01*
X900123Y522158D01*
X900586Y521973D01*
X901045Y521777D01*
X901498Y521569D01*
X901946Y521350D01*
X902389Y521121D01*
X902826Y520880D01*
X903257Y520629D01*
X903681Y520367D01*
X904099Y520095D01*
X904510Y519813D01*
X904915Y519521D01*
X905312Y519219D01*
X905701Y518908D01*
X906082Y518586D01*
X906456Y518256D01*
X906821Y517917D01*
X907178Y517568D01*
X907527Y517211D01*
X907866Y516846D01*
X908196Y516472D01*
X908518Y516091D01*
X908829Y515702D01*
X909131Y515305D01*
X909423Y514900D01*
X909705Y514489D01*
X909977Y514071D01*
X910239Y513647D01*
X910490Y513216D01*
X910731Y512779D01*
X910960Y512336D01*
X911179Y511888D01*
X911387Y511435D01*
X911583Y510976D01*
X911768Y510513D01*
X911942Y510046D01*
X912104Y509574D01*
X912255Y509099D01*
X912394Y508620D01*
X912521Y508137D01*
X912636Y507652D01*
X912740Y507164D01*
X912831Y506674D01*
X912910Y506182D01*
X912977Y505687D01*
X913032Y505192D01*
X913075Y504695D01*
X913106Y504197D01*
X913124Y503699D01*
X913130Y503200D01*
X913124Y502701D01*
X913106Y502203D01*
X913075Y501705D01*
X913032Y501208D01*
X912977Y500713D01*
X912910Y500218D01*
X912831Y499726D01*
X912740Y499236D01*
X912636Y498748D01*
X912521Y498263D01*
X912394Y497780D01*
X912255Y497301D01*
X912104Y496826D01*
X911942Y496354D01*
X911768Y495887D01*
X911583Y495424D01*
X911387Y494965D01*
X911179Y494512D01*
X910960Y494064D01*
X910731Y493621D01*
X910490Y493184D01*
X910239Y492753D01*
X909977Y492329D01*
X909705Y491911D01*
X909423Y491500D01*
X909131Y491095D01*
X908829Y490698D01*
X908518Y490309D01*
X908196Y489928D01*
X907866Y489554D01*
X907527Y489189D01*
X907178Y488832D01*
X906821Y488483D01*
X906456Y488144D01*
X906082Y487814D01*
X905701Y487492D01*
X905312Y487181D01*
X904915Y486879D01*
X904510Y486587D01*
X904099Y486305D01*
X903681Y486033D01*
X903257Y485771D01*
X902826Y485520D01*
X902389Y485279D01*
X901946Y485050D01*
X901498Y484831D01*
X901045Y484623D01*
X900586Y484427D01*
X900123Y484242D01*
X899656Y484068D01*
X899184Y483906D01*
X898709Y483755D01*
X898230Y483616D01*
X897747Y483489D01*
X897262Y483374D01*
X896774Y483270D01*
X896284Y483179D01*
X895792Y483100D01*
X895297Y483033D01*
X894802Y482978D01*
X894305Y482935D01*
X893807Y482904D01*
X893309Y482886D01*
X892810Y482880D01*
X892311Y482886D01*
X891813Y482904D01*
X891315Y482935D01*
X890818Y482978D01*
X890323Y483033D01*
X889828Y483100D01*
X889336Y483179D01*
X888846Y483270D01*
X888358Y483374D01*
X887873Y483489D01*
X887390Y483616D01*
X886911Y483755D01*
X886436Y483906D01*
X885964Y484068D01*
X885497Y484242D01*
X885034Y484427D01*
X884575Y484623D01*
X884122Y484831D01*
X883674Y485050D01*
X883231Y485279D01*
X882794Y485520D01*
X882363Y485771D01*
X881939Y486033D01*
X881521Y486305D01*
X881110Y486587D01*
X880705Y486879D01*
X880308Y487181D01*
X879919Y487492D01*
X879538Y487814D01*
X879164Y488144D01*
X878799Y488483D01*
X878442Y488832D01*
X878093Y489189D01*
X877754Y489554D01*
X877424Y489928D01*
X877102Y490309D01*
X876791Y490698D01*
X876489Y491095D01*
X876197Y491500D01*
X875915Y491911D01*
X875643Y492329D01*
X875381Y492753D01*
X875130Y493184D01*
X874889Y493621D01*
X874660Y494064D01*
X874441Y494512D01*
X874233Y494965D01*
X874037Y495424D01*
X873852Y495887D01*
X873678Y496354D01*
X873516Y496826D01*
X873365Y497301D01*
X873226Y497780D01*
X873099Y498263D01*
X872984Y498748D01*
X872880Y499236D01*
X872789Y499726D01*
X872710Y500218D01*
X872643Y500713D01*
X872588Y501208D01*
X872545Y501705D01*
X872514Y502203D01*
X872496Y502701D01*
X872490Y503200D01*
D12*
X972075Y629375D03*
X958325Y629375D03*
D13*
X965200Y633250D03*
D14*
X321700Y650000D02*
X211700Y650000D01*
X321700Y650000D02*
X321700Y747000D01*
X211700Y747000D01*
X211700Y650000D01*
D11*
X216281Y642747D02*
X216281Y635381D01*
X216281Y642747D02*
X218327Y642747D01*
X218416Y642745D01*
X218505Y642739D01*
X218594Y642729D01*
X218682Y642716D01*
X218770Y642699D01*
X218857Y642677D01*
X218942Y642652D01*
X219027Y642624D01*
X219110Y642591D01*
X219192Y642555D01*
X219272Y642516D01*
X219350Y642473D01*
X219426Y642427D01*
X219501Y642377D01*
X219573Y642324D01*
X219642Y642268D01*
X219709Y642209D01*
X219774Y642148D01*
X219835Y642083D01*
X219894Y642016D01*
X219950Y641947D01*
X220003Y641875D01*
X220053Y641800D01*
X220099Y641724D01*
X220142Y641646D01*
X220181Y641566D01*
X220217Y641484D01*
X220250Y641401D01*
X220278Y641316D01*
X220303Y641231D01*
X220325Y641144D01*
X220342Y641056D01*
X220355Y640968D01*
X220365Y640879D01*
X220371Y640790D01*
X220373Y640701D01*
X220371Y640612D01*
X220365Y640523D01*
X220355Y640434D01*
X220342Y640346D01*
X220325Y640258D01*
X220303Y640171D01*
X220278Y640086D01*
X220250Y640001D01*
X220217Y639918D01*
X220181Y639836D01*
X220142Y639756D01*
X220099Y639678D01*
X220053Y639602D01*
X220003Y639527D01*
X219950Y639455D01*
X219894Y639386D01*
X219835Y639319D01*
X219774Y639254D01*
X219709Y639193D01*
X219642Y639134D01*
X219573Y639078D01*
X219501Y639025D01*
X219426Y638975D01*
X219350Y638929D01*
X219272Y638886D01*
X219192Y638847D01*
X219110Y638811D01*
X219027Y638778D01*
X218942Y638750D01*
X218857Y638725D01*
X218770Y638703D01*
X218682Y638686D01*
X218594Y638673D01*
X218505Y638663D01*
X218416Y638657D01*
X218327Y638655D01*
X216281Y638655D01*
X225485Y642748D02*
X225570Y642746D01*
X225655Y642740D01*
X225739Y642730D01*
X225823Y642717D01*
X225907Y642699D01*
X225989Y642678D01*
X226070Y642653D01*
X226150Y642624D01*
X226229Y642591D01*
X226306Y642555D01*
X226381Y642515D01*
X226455Y642472D01*
X226526Y642426D01*
X226595Y642376D01*
X226662Y642323D01*
X226726Y642267D01*
X226787Y642208D01*
X226846Y642147D01*
X226902Y642083D01*
X226955Y642016D01*
X227005Y641947D01*
X227051Y641876D01*
X227094Y641802D01*
X227134Y641727D01*
X227170Y641650D01*
X227203Y641571D01*
X227232Y641491D01*
X227257Y641410D01*
X227278Y641328D01*
X227296Y641244D01*
X227309Y641160D01*
X227319Y641076D01*
X227325Y640991D01*
X227327Y640906D01*
X225485Y642747D02*
X225389Y642745D01*
X225293Y642739D01*
X225198Y642729D01*
X225103Y642716D01*
X225008Y642698D01*
X224915Y642677D01*
X224822Y642652D01*
X224731Y642623D01*
X224640Y642591D01*
X224551Y642555D01*
X224464Y642515D01*
X224378Y642472D01*
X224294Y642426D01*
X224212Y642376D01*
X224132Y642322D01*
X224055Y642266D01*
X223980Y642206D01*
X223907Y642144D01*
X223837Y642078D01*
X223769Y642010D01*
X223704Y641939D01*
X223643Y641866D01*
X223584Y641790D01*
X223528Y641711D01*
X223476Y641631D01*
X223427Y641548D01*
X223381Y641464D01*
X223339Y641378D01*
X223301Y641290D01*
X223266Y641201D01*
X223234Y641110D01*
X226713Y639474D02*
X226773Y639533D01*
X226830Y639595D01*
X226885Y639659D01*
X226936Y639726D01*
X226985Y639795D01*
X227031Y639865D01*
X227074Y639938D01*
X227114Y640012D01*
X227150Y640088D01*
X227183Y640166D01*
X227213Y640245D01*
X227240Y640325D01*
X227263Y640406D01*
X227282Y640488D01*
X227298Y640570D01*
X227311Y640654D01*
X227320Y640738D01*
X227325Y640822D01*
X227327Y640906D01*
X226713Y639473D02*
X223235Y635381D01*
X227327Y635381D01*
D14*
X376800Y650000D02*
X486800Y650000D01*
X486800Y747000D01*
X376800Y747000D01*
X376800Y650000D01*
D11*
X381381Y642747D02*
X381381Y635381D01*
X381381Y642747D02*
X383427Y642747D01*
X383516Y642745D01*
X383605Y642739D01*
X383694Y642729D01*
X383782Y642716D01*
X383870Y642699D01*
X383957Y642677D01*
X384042Y642652D01*
X384127Y642624D01*
X384210Y642591D01*
X384292Y642555D01*
X384372Y642516D01*
X384450Y642473D01*
X384526Y642427D01*
X384601Y642377D01*
X384673Y642324D01*
X384742Y642268D01*
X384809Y642209D01*
X384874Y642148D01*
X384935Y642083D01*
X384994Y642016D01*
X385050Y641947D01*
X385103Y641875D01*
X385153Y641800D01*
X385199Y641724D01*
X385242Y641646D01*
X385281Y641566D01*
X385317Y641484D01*
X385350Y641401D01*
X385378Y641316D01*
X385403Y641231D01*
X385425Y641144D01*
X385442Y641056D01*
X385455Y640968D01*
X385465Y640879D01*
X385471Y640790D01*
X385473Y640701D01*
X385471Y640612D01*
X385465Y640523D01*
X385455Y640434D01*
X385442Y640346D01*
X385425Y640258D01*
X385403Y640171D01*
X385378Y640086D01*
X385350Y640001D01*
X385317Y639918D01*
X385281Y639836D01*
X385242Y639756D01*
X385199Y639678D01*
X385153Y639602D01*
X385103Y639527D01*
X385050Y639455D01*
X384994Y639386D01*
X384935Y639319D01*
X384874Y639254D01*
X384809Y639193D01*
X384742Y639134D01*
X384673Y639078D01*
X384601Y639025D01*
X384526Y638975D01*
X384450Y638929D01*
X384372Y638886D01*
X384292Y638847D01*
X384210Y638811D01*
X384127Y638778D01*
X384042Y638750D01*
X383957Y638725D01*
X383870Y638703D01*
X383782Y638686D01*
X383694Y638673D01*
X383605Y638663D01*
X383516Y638657D01*
X383427Y638655D01*
X381381Y638655D01*
X388335Y635381D02*
X390381Y635381D01*
X390470Y635383D01*
X390559Y635389D01*
X390648Y635399D01*
X390736Y635412D01*
X390824Y635429D01*
X390911Y635451D01*
X390996Y635476D01*
X391081Y635504D01*
X391164Y635537D01*
X391246Y635573D01*
X391326Y635612D01*
X391404Y635655D01*
X391480Y635701D01*
X391555Y635751D01*
X391627Y635804D01*
X391696Y635860D01*
X391763Y635919D01*
X391828Y635980D01*
X391889Y636045D01*
X391948Y636112D01*
X392004Y636181D01*
X392057Y636253D01*
X392107Y636328D01*
X392153Y636404D01*
X392196Y636482D01*
X392235Y636562D01*
X392271Y636644D01*
X392304Y636727D01*
X392332Y636812D01*
X392357Y636897D01*
X392379Y636984D01*
X392396Y637072D01*
X392409Y637160D01*
X392419Y637249D01*
X392425Y637338D01*
X392427Y637427D01*
X392425Y637516D01*
X392419Y637605D01*
X392409Y637694D01*
X392396Y637782D01*
X392379Y637870D01*
X392357Y637957D01*
X392332Y638042D01*
X392304Y638127D01*
X392271Y638210D01*
X392235Y638292D01*
X392196Y638372D01*
X392153Y638450D01*
X392107Y638526D01*
X392057Y638601D01*
X392004Y638673D01*
X391948Y638742D01*
X391889Y638809D01*
X391828Y638874D01*
X391763Y638935D01*
X391696Y638994D01*
X391627Y639050D01*
X391555Y639103D01*
X391480Y639153D01*
X391404Y639199D01*
X391326Y639242D01*
X391246Y639281D01*
X391164Y639317D01*
X391081Y639350D01*
X390996Y639378D01*
X390911Y639403D01*
X390824Y639425D01*
X390736Y639442D01*
X390648Y639455D01*
X390559Y639465D01*
X390470Y639471D01*
X390381Y639473D01*
X390790Y642747D02*
X388335Y642747D01*
X390790Y642747D02*
X390869Y642745D01*
X390948Y642739D01*
X391027Y642730D01*
X391105Y642717D01*
X391182Y642699D01*
X391258Y642679D01*
X391333Y642654D01*
X391407Y642626D01*
X391480Y642595D01*
X391551Y642559D01*
X391620Y642521D01*
X391687Y642479D01*
X391752Y642434D01*
X391815Y642386D01*
X391876Y642335D01*
X391933Y642281D01*
X391989Y642225D01*
X392041Y642166D01*
X392091Y642104D01*
X392137Y642040D01*
X392181Y641974D01*
X392221Y641906D01*
X392257Y641836D01*
X392291Y641764D01*
X392321Y641690D01*
X392347Y641616D01*
X392370Y641540D01*
X392388Y641463D01*
X392404Y641386D01*
X392415Y641307D01*
X392423Y641229D01*
X392427Y641150D01*
X392427Y641070D01*
X392423Y640991D01*
X392415Y640913D01*
X392404Y640834D01*
X392388Y640757D01*
X392370Y640680D01*
X392347Y640604D01*
X392321Y640530D01*
X392291Y640456D01*
X392257Y640384D01*
X392221Y640314D01*
X392181Y640246D01*
X392137Y640180D01*
X392091Y640116D01*
X392041Y640054D01*
X391989Y639995D01*
X391933Y639939D01*
X391876Y639885D01*
X391815Y639834D01*
X391752Y639786D01*
X391687Y639741D01*
X391620Y639699D01*
X391551Y639661D01*
X391480Y639625D01*
X391407Y639594D01*
X391333Y639566D01*
X391258Y639541D01*
X391182Y639521D01*
X391105Y639503D01*
X391027Y639490D01*
X390948Y639481D01*
X390869Y639475D01*
X390790Y639473D01*
X389153Y639473D01*
D14*
X156600Y650000D02*
X46600Y650000D01*
X156600Y650000D02*
X156600Y747000D01*
X46600Y747000D01*
X46600Y650000D01*
D11*
X51181Y642747D02*
X51181Y635381D01*
X51181Y642747D02*
X53227Y642747D01*
X53316Y642745D01*
X53405Y642739D01*
X53494Y642729D01*
X53582Y642716D01*
X53670Y642699D01*
X53757Y642677D01*
X53842Y642652D01*
X53927Y642624D01*
X54010Y642591D01*
X54092Y642555D01*
X54172Y642516D01*
X54250Y642473D01*
X54326Y642427D01*
X54401Y642377D01*
X54473Y642324D01*
X54542Y642268D01*
X54609Y642209D01*
X54674Y642148D01*
X54735Y642083D01*
X54794Y642016D01*
X54850Y641947D01*
X54903Y641875D01*
X54953Y641800D01*
X54999Y641724D01*
X55042Y641646D01*
X55081Y641566D01*
X55117Y641484D01*
X55150Y641401D01*
X55178Y641316D01*
X55203Y641231D01*
X55225Y641144D01*
X55242Y641056D01*
X55255Y640968D01*
X55265Y640879D01*
X55271Y640790D01*
X55273Y640701D01*
X55271Y640612D01*
X55265Y640523D01*
X55255Y640434D01*
X55242Y640346D01*
X55225Y640258D01*
X55203Y640171D01*
X55178Y640086D01*
X55150Y640001D01*
X55117Y639918D01*
X55081Y639836D01*
X55042Y639756D01*
X54999Y639678D01*
X54953Y639602D01*
X54903Y639527D01*
X54850Y639455D01*
X54794Y639386D01*
X54735Y639319D01*
X54674Y639254D01*
X54609Y639193D01*
X54542Y639134D01*
X54473Y639078D01*
X54401Y639025D01*
X54326Y638975D01*
X54250Y638929D01*
X54172Y638886D01*
X54092Y638847D01*
X54010Y638811D01*
X53927Y638778D01*
X53842Y638750D01*
X53757Y638725D01*
X53670Y638703D01*
X53582Y638686D01*
X53494Y638673D01*
X53405Y638663D01*
X53316Y638657D01*
X53227Y638655D01*
X51181Y638655D01*
X58135Y641110D02*
X60181Y642747D01*
X60181Y635381D01*
X58135Y635381D02*
X62227Y635381D01*
D14*
X987200Y680900D02*
X987200Y766900D01*
X987200Y680900D02*
X943200Y680900D01*
X943200Y766900D01*
X987200Y766900D01*
X867100Y124100D02*
X867100Y8100D01*
X867100Y124100D02*
X987100Y124100D01*
X987100Y8100D01*
X867100Y8100D01*
X551900Y17500D02*
X551900Y617500D01*
X641900Y617500D01*
X641900Y17500D01*
X551900Y17500D01*
D11*
X533019Y25781D02*
X525653Y25781D01*
X525653Y29055D01*
X528927Y29055D02*
X528927Y25781D01*
X531382Y31861D02*
X525653Y33498D01*
X531382Y31861D02*
X531382Y35954D01*
X529745Y34726D02*
X533019Y34726D01*
X533837Y38854D02*
X524835Y42128D01*
X533019Y45029D02*
X533019Y47484D01*
X533017Y47562D01*
X533012Y47640D01*
X533002Y47717D01*
X532989Y47794D01*
X532973Y47870D01*
X532953Y47945D01*
X532929Y48019D01*
X532902Y48092D01*
X532871Y48164D01*
X532837Y48234D01*
X532800Y48303D01*
X532759Y48369D01*
X532715Y48434D01*
X532669Y48496D01*
X532619Y48556D01*
X532567Y48614D01*
X532512Y48669D01*
X532454Y48721D01*
X532394Y48771D01*
X532332Y48817D01*
X532267Y48861D01*
X532201Y48902D01*
X532132Y48939D01*
X532062Y48973D01*
X531990Y49004D01*
X531917Y49031D01*
X531843Y49055D01*
X531768Y49075D01*
X531692Y49091D01*
X531615Y49104D01*
X531538Y49114D01*
X531460Y49119D01*
X531382Y49121D01*
X530564Y49121D01*
X530484Y49119D01*
X530404Y49113D01*
X530324Y49103D01*
X530245Y49090D01*
X530166Y49072D01*
X530089Y49051D01*
X530013Y49025D01*
X529938Y48996D01*
X529864Y48964D01*
X529792Y48928D01*
X529722Y48888D01*
X529655Y48845D01*
X529589Y48799D01*
X529526Y48749D01*
X529465Y48697D01*
X529406Y48642D01*
X529351Y48583D01*
X529299Y48523D01*
X529249Y48459D01*
X529203Y48393D01*
X529160Y48326D01*
X529120Y48256D01*
X529084Y48184D01*
X529052Y48110D01*
X529023Y48036D01*
X528997Y47959D01*
X528976Y47882D01*
X528958Y47803D01*
X528945Y47724D01*
X528935Y47644D01*
X528929Y47564D01*
X528927Y47484D01*
X528927Y45029D01*
X525653Y45029D01*
X525653Y49121D01*
D14*
X56600Y17500D02*
X56600Y617500D01*
X146600Y617500D01*
X146600Y17500D01*
X56600Y17500D01*
D11*
X37719Y25781D02*
X30353Y25781D01*
X30353Y29055D01*
X33627Y29055D02*
X33627Y25781D01*
X31990Y31861D02*
X30353Y33907D01*
X37719Y33907D01*
X37719Y31861D02*
X37719Y35954D01*
D14*
X221700Y17500D02*
X221700Y617500D01*
X311700Y617500D01*
X311700Y17500D01*
X221700Y17500D01*
D11*
X202819Y25781D02*
X195453Y25781D01*
X195453Y29055D01*
X198727Y29055D02*
X198727Y25781D01*
X195453Y34112D02*
X195455Y34197D01*
X195461Y34282D01*
X195471Y34366D01*
X195484Y34450D01*
X195502Y34534D01*
X195523Y34616D01*
X195548Y34697D01*
X195577Y34777D01*
X195610Y34856D01*
X195646Y34933D01*
X195686Y35008D01*
X195729Y35082D01*
X195775Y35153D01*
X195825Y35222D01*
X195878Y35289D01*
X195934Y35353D01*
X195993Y35414D01*
X196054Y35473D01*
X196118Y35529D01*
X196185Y35582D01*
X196254Y35632D01*
X196325Y35678D01*
X196399Y35721D01*
X196474Y35761D01*
X196551Y35797D01*
X196630Y35830D01*
X196710Y35859D01*
X196791Y35884D01*
X196873Y35905D01*
X196957Y35923D01*
X197041Y35936D01*
X197125Y35946D01*
X197210Y35952D01*
X197295Y35954D01*
X195453Y34112D02*
X195455Y34016D01*
X195461Y33920D01*
X195471Y33825D01*
X195484Y33730D01*
X195502Y33635D01*
X195523Y33542D01*
X195548Y33449D01*
X195577Y33358D01*
X195609Y33267D01*
X195645Y33178D01*
X195685Y33091D01*
X195728Y33005D01*
X195774Y32921D01*
X195824Y32839D01*
X195878Y32759D01*
X195934Y32682D01*
X195994Y32607D01*
X196056Y32534D01*
X196122Y32464D01*
X196190Y32396D01*
X196261Y32331D01*
X196334Y32270D01*
X196410Y32211D01*
X196489Y32155D01*
X196569Y32103D01*
X196652Y32054D01*
X196736Y32008D01*
X196822Y31966D01*
X196910Y31928D01*
X196999Y31893D01*
X197090Y31861D01*
X198727Y35340D02*
X198668Y35400D01*
X198606Y35457D01*
X198542Y35512D01*
X198475Y35563D01*
X198406Y35612D01*
X198336Y35658D01*
X198263Y35701D01*
X198189Y35741D01*
X198113Y35777D01*
X198035Y35810D01*
X197956Y35840D01*
X197876Y35867D01*
X197795Y35890D01*
X197713Y35909D01*
X197631Y35925D01*
X197547Y35938D01*
X197463Y35947D01*
X197379Y35952D01*
X197295Y35954D01*
X198727Y35340D02*
X202819Y31861D01*
X202819Y35954D01*
D14*
X386800Y17500D02*
X386800Y617500D01*
X476800Y617500D01*
X476800Y17500D01*
X386800Y17500D01*
D11*
X367919Y25781D02*
X360553Y25781D01*
X360553Y29055D01*
X363827Y29055D02*
X363827Y25781D01*
X367919Y31861D02*
X367919Y33907D01*
X367917Y33996D01*
X367911Y34085D01*
X367901Y34174D01*
X367888Y34262D01*
X367871Y34350D01*
X367849Y34437D01*
X367824Y34522D01*
X367796Y34607D01*
X367763Y34690D01*
X367727Y34772D01*
X367688Y34852D01*
X367645Y34930D01*
X367599Y35006D01*
X367549Y35081D01*
X367496Y35153D01*
X367440Y35222D01*
X367381Y35289D01*
X367320Y35354D01*
X367255Y35415D01*
X367188Y35474D01*
X367119Y35530D01*
X367047Y35583D01*
X366972Y35633D01*
X366896Y35679D01*
X366818Y35722D01*
X366738Y35761D01*
X366656Y35797D01*
X366573Y35830D01*
X366488Y35858D01*
X366403Y35883D01*
X366316Y35905D01*
X366228Y35922D01*
X366140Y35935D01*
X366051Y35945D01*
X365962Y35951D01*
X365873Y35953D01*
X365784Y35951D01*
X365695Y35945D01*
X365606Y35935D01*
X365518Y35922D01*
X365430Y35905D01*
X365343Y35883D01*
X365258Y35858D01*
X365173Y35830D01*
X365090Y35797D01*
X365008Y35761D01*
X364928Y35722D01*
X364850Y35679D01*
X364774Y35633D01*
X364699Y35583D01*
X364627Y35530D01*
X364558Y35474D01*
X364491Y35415D01*
X364426Y35354D01*
X364365Y35289D01*
X364306Y35222D01*
X364250Y35153D01*
X364197Y35081D01*
X364147Y35006D01*
X364101Y34930D01*
X364058Y34852D01*
X364019Y34772D01*
X363983Y34690D01*
X363950Y34607D01*
X363922Y34522D01*
X363897Y34437D01*
X363875Y34350D01*
X363858Y34262D01*
X363845Y34174D01*
X363835Y34085D01*
X363829Y33996D01*
X363827Y33907D01*
X360553Y34317D02*
X360553Y31861D01*
X360553Y34317D02*
X360555Y34396D01*
X360561Y34475D01*
X360570Y34554D01*
X360583Y34632D01*
X360601Y34709D01*
X360621Y34785D01*
X360646Y34860D01*
X360674Y34934D01*
X360705Y35007D01*
X360741Y35078D01*
X360779Y35147D01*
X360821Y35214D01*
X360866Y35279D01*
X360914Y35342D01*
X360965Y35403D01*
X361019Y35460D01*
X361075Y35516D01*
X361134Y35568D01*
X361196Y35618D01*
X361260Y35664D01*
X361326Y35708D01*
X361394Y35748D01*
X361464Y35784D01*
X361536Y35818D01*
X361610Y35848D01*
X361684Y35874D01*
X361760Y35897D01*
X361837Y35915D01*
X361914Y35931D01*
X361993Y35942D01*
X362071Y35950D01*
X362150Y35954D01*
X362230Y35954D01*
X362309Y35950D01*
X362387Y35942D01*
X362466Y35931D01*
X362543Y35915D01*
X362620Y35897D01*
X362696Y35874D01*
X362770Y35848D01*
X362844Y35818D01*
X362916Y35784D01*
X362986Y35748D01*
X363054Y35708D01*
X363120Y35664D01*
X363184Y35618D01*
X363246Y35568D01*
X363305Y35516D01*
X363361Y35460D01*
X363415Y35403D01*
X363466Y35342D01*
X363514Y35279D01*
X363559Y35214D01*
X363601Y35147D01*
X363639Y35078D01*
X363675Y35007D01*
X363706Y34934D01*
X363734Y34860D01*
X363759Y34785D01*
X363779Y34709D01*
X363797Y34632D01*
X363810Y34554D01*
X363819Y34475D01*
X363825Y34396D01*
X363827Y34317D01*
X363827Y32680D01*
D10*
X822000Y25500D02*
X822000Y136500D01*
X702000Y136500D01*
X702000Y25500D01*
X822000Y25500D01*
D11*
X689455Y29684D02*
X689455Y30912D01*
X693547Y30912D01*
X693547Y28457D01*
X693545Y28379D01*
X693540Y28301D01*
X693530Y28224D01*
X693517Y28147D01*
X693501Y28071D01*
X693481Y27996D01*
X693457Y27922D01*
X693430Y27849D01*
X693399Y27777D01*
X693365Y27707D01*
X693328Y27639D01*
X693287Y27572D01*
X693243Y27507D01*
X693197Y27445D01*
X693147Y27385D01*
X693095Y27327D01*
X693040Y27272D01*
X692982Y27220D01*
X692922Y27170D01*
X692860Y27124D01*
X692795Y27080D01*
X692729Y27039D01*
X692660Y27002D01*
X692590Y26968D01*
X692518Y26937D01*
X692445Y26910D01*
X692371Y26886D01*
X692296Y26866D01*
X692220Y26850D01*
X692143Y26837D01*
X692066Y26827D01*
X691988Y26822D01*
X691910Y26820D01*
X687818Y26820D01*
X687738Y26822D01*
X687658Y26828D01*
X687578Y26838D01*
X687499Y26851D01*
X687420Y26869D01*
X687343Y26890D01*
X687267Y26916D01*
X687192Y26945D01*
X687118Y26977D01*
X687046Y27013D01*
X686976Y27053D01*
X686909Y27096D01*
X686843Y27142D01*
X686780Y27192D01*
X686719Y27244D01*
X686660Y27299D01*
X686605Y27358D01*
X686553Y27418D01*
X686503Y27482D01*
X686457Y27547D01*
X686414Y27615D01*
X686374Y27685D01*
X686338Y27757D01*
X686306Y27831D01*
X686277Y27905D01*
X686252Y27982D01*
X686230Y28059D01*
X686212Y28138D01*
X686199Y28217D01*
X686189Y28296D01*
X686183Y28377D01*
X686181Y28457D01*
X686181Y30912D01*
X686181Y36425D02*
X693547Y33969D01*
X693547Y38880D02*
X686181Y36425D01*
X691706Y38266D02*
X691706Y34583D01*
X693547Y42277D02*
X686181Y42277D01*
X693547Y41458D02*
X693547Y43095D01*
X686181Y43095D02*
X686181Y41458D01*
X686181Y46327D02*
X693547Y46327D01*
X693547Y50419D02*
X686181Y46327D01*
X686181Y50419D02*
X693547Y50419D01*
D15*
X844600Y405000D02*
X877600Y405000D01*
X882600Y405000D01*
X882600Y357000D02*
X877600Y357000D01*
X844600Y357000D01*
X877600Y357000D02*
X877600Y405000D01*
D16*
X970788Y420878D02*
X982472Y420878D01*
X977279Y424773D02*
X970788Y420878D01*
X977279Y424773D02*
X970788Y428667D01*
X982472Y428667D01*
X979226Y434100D02*
X974034Y434100D01*
X973921Y434102D01*
X973808Y434108D01*
X973695Y434118D01*
X973582Y434132D01*
X973470Y434149D01*
X973359Y434171D01*
X973249Y434196D01*
X973139Y434226D01*
X973031Y434259D01*
X972924Y434296D01*
X972818Y434336D01*
X972714Y434381D01*
X972611Y434429D01*
X972510Y434480D01*
X972411Y434535D01*
X972314Y434593D01*
X972219Y434655D01*
X972126Y434720D01*
X972036Y434788D01*
X971948Y434859D01*
X971862Y434934D01*
X971779Y435011D01*
X971699Y435091D01*
X971622Y435174D01*
X971547Y435260D01*
X971476Y435348D01*
X971408Y435438D01*
X971343Y435531D01*
X971281Y435626D01*
X971223Y435723D01*
X971168Y435822D01*
X971117Y435923D01*
X971069Y436026D01*
X971024Y436130D01*
X970984Y436236D01*
X970947Y436343D01*
X970914Y436451D01*
X970884Y436561D01*
X970859Y436671D01*
X970837Y436782D01*
X970820Y436894D01*
X970806Y437007D01*
X970796Y437120D01*
X970790Y437233D01*
X970788Y437346D01*
X970790Y437459D01*
X970796Y437572D01*
X970806Y437685D01*
X970820Y437798D01*
X970837Y437910D01*
X970859Y438021D01*
X970884Y438131D01*
X970914Y438241D01*
X970947Y438349D01*
X970984Y438456D01*
X971024Y438562D01*
X971069Y438666D01*
X971117Y438769D01*
X971168Y438870D01*
X971223Y438969D01*
X971281Y439066D01*
X971343Y439161D01*
X971408Y439254D01*
X971476Y439344D01*
X971547Y439432D01*
X971622Y439518D01*
X971699Y439601D01*
X971779Y439681D01*
X971862Y439758D01*
X971948Y439833D01*
X972036Y439904D01*
X972126Y439972D01*
X972219Y440037D01*
X972314Y440099D01*
X972411Y440157D01*
X972510Y440212D01*
X972611Y440263D01*
X972714Y440311D01*
X972818Y440356D01*
X972924Y440396D01*
X973031Y440433D01*
X973139Y440466D01*
X973249Y440496D01*
X973359Y440521D01*
X973470Y440543D01*
X973582Y440560D01*
X973695Y440574D01*
X973808Y440584D01*
X973921Y440590D01*
X974034Y440592D01*
X974034Y440591D02*
X979226Y440591D01*
X979226Y440592D02*
X979339Y440590D01*
X979452Y440584D01*
X979565Y440574D01*
X979678Y440560D01*
X979790Y440543D01*
X979901Y440521D01*
X980011Y440496D01*
X980121Y440466D01*
X980229Y440433D01*
X980336Y440396D01*
X980442Y440356D01*
X980546Y440311D01*
X980649Y440263D01*
X980750Y440212D01*
X980849Y440157D01*
X980946Y440099D01*
X981041Y440037D01*
X981134Y439972D01*
X981224Y439904D01*
X981312Y439833D01*
X981398Y439758D01*
X981481Y439681D01*
X981561Y439601D01*
X981638Y439518D01*
X981713Y439432D01*
X981784Y439344D01*
X981852Y439254D01*
X981917Y439161D01*
X981979Y439066D01*
X982037Y438969D01*
X982092Y438870D01*
X982143Y438769D01*
X982191Y438666D01*
X982236Y438562D01*
X982276Y438456D01*
X982313Y438349D01*
X982346Y438241D01*
X982376Y438131D01*
X982401Y438021D01*
X982423Y437910D01*
X982440Y437798D01*
X982454Y437685D01*
X982464Y437572D01*
X982470Y437459D01*
X982472Y437346D01*
X982470Y437233D01*
X982464Y437120D01*
X982454Y437007D01*
X982440Y436894D01*
X982423Y436782D01*
X982401Y436671D01*
X982376Y436561D01*
X982346Y436451D01*
X982313Y436343D01*
X982276Y436236D01*
X982236Y436130D01*
X982191Y436026D01*
X982143Y435923D01*
X982092Y435822D01*
X982037Y435723D01*
X981979Y435626D01*
X981917Y435531D01*
X981852Y435438D01*
X981784Y435348D01*
X981713Y435260D01*
X981638Y435174D01*
X981561Y435091D01*
X981481Y435011D01*
X981398Y434934D01*
X981312Y434859D01*
X981224Y434788D01*
X981134Y434720D01*
X981041Y434655D01*
X980946Y434593D01*
X980849Y434535D01*
X980750Y434480D01*
X980649Y434429D01*
X980546Y434381D01*
X980442Y434336D01*
X980336Y434296D01*
X980229Y434259D01*
X980121Y434226D01*
X980011Y434196D01*
X979901Y434171D01*
X979790Y434149D01*
X979678Y434132D01*
X979565Y434118D01*
X979452Y434108D01*
X979339Y434102D01*
X979226Y434100D01*
X982472Y445911D02*
X970788Y445911D01*
X982472Y452402D01*
X970788Y452402D01*
X974034Y457722D02*
X979226Y457722D01*
X974034Y457722D02*
X973921Y457724D01*
X973808Y457730D01*
X973695Y457740D01*
X973582Y457754D01*
X973470Y457771D01*
X973359Y457793D01*
X973249Y457818D01*
X973139Y457848D01*
X973031Y457881D01*
X972924Y457918D01*
X972818Y457958D01*
X972714Y458003D01*
X972611Y458051D01*
X972510Y458102D01*
X972411Y458157D01*
X972314Y458215D01*
X972219Y458277D01*
X972126Y458342D01*
X972036Y458410D01*
X971948Y458481D01*
X971862Y458556D01*
X971779Y458633D01*
X971699Y458713D01*
X971622Y458796D01*
X971547Y458882D01*
X971476Y458970D01*
X971408Y459060D01*
X971343Y459153D01*
X971281Y459248D01*
X971223Y459345D01*
X971168Y459444D01*
X971117Y459545D01*
X971069Y459648D01*
X971024Y459752D01*
X970984Y459858D01*
X970947Y459965D01*
X970914Y460073D01*
X970884Y460183D01*
X970859Y460293D01*
X970837Y460404D01*
X970820Y460516D01*
X970806Y460629D01*
X970796Y460742D01*
X970790Y460855D01*
X970788Y460968D01*
X970790Y461081D01*
X970796Y461194D01*
X970806Y461307D01*
X970820Y461420D01*
X970837Y461532D01*
X970859Y461643D01*
X970884Y461753D01*
X970914Y461863D01*
X970947Y461971D01*
X970984Y462078D01*
X971024Y462184D01*
X971069Y462288D01*
X971117Y462391D01*
X971168Y462492D01*
X971223Y462591D01*
X971281Y462688D01*
X971343Y462783D01*
X971408Y462876D01*
X971476Y462966D01*
X971547Y463054D01*
X971622Y463140D01*
X971699Y463223D01*
X971779Y463303D01*
X971862Y463380D01*
X971948Y463455D01*
X972036Y463526D01*
X972126Y463594D01*
X972219Y463659D01*
X972314Y463721D01*
X972411Y463779D01*
X972510Y463834D01*
X972611Y463885D01*
X972714Y463933D01*
X972818Y463978D01*
X972924Y464018D01*
X973031Y464055D01*
X973139Y464088D01*
X973249Y464118D01*
X973359Y464143D01*
X973470Y464165D01*
X973582Y464182D01*
X973695Y464196D01*
X973808Y464206D01*
X973921Y464212D01*
X974034Y464214D01*
X974034Y464213D02*
X979226Y464213D01*
X979226Y464214D02*
X979339Y464212D01*
X979452Y464206D01*
X979565Y464196D01*
X979678Y464182D01*
X979790Y464165D01*
X979901Y464143D01*
X980011Y464118D01*
X980121Y464088D01*
X980229Y464055D01*
X980336Y464018D01*
X980442Y463978D01*
X980546Y463933D01*
X980649Y463885D01*
X980750Y463834D01*
X980849Y463779D01*
X980946Y463721D01*
X981041Y463659D01*
X981134Y463594D01*
X981224Y463526D01*
X981312Y463455D01*
X981398Y463380D01*
X981481Y463303D01*
X981561Y463223D01*
X981638Y463140D01*
X981713Y463054D01*
X981784Y462966D01*
X981852Y462876D01*
X981917Y462783D01*
X981979Y462688D01*
X982037Y462591D01*
X982092Y462492D01*
X982143Y462391D01*
X982191Y462288D01*
X982236Y462184D01*
X982276Y462078D01*
X982313Y461971D01*
X982346Y461863D01*
X982376Y461753D01*
X982401Y461643D01*
X982423Y461532D01*
X982440Y461420D01*
X982454Y461307D01*
X982464Y461194D01*
X982470Y461081D01*
X982472Y460968D01*
X982470Y460855D01*
X982464Y460742D01*
X982454Y460629D01*
X982440Y460516D01*
X982423Y460404D01*
X982401Y460293D01*
X982376Y460183D01*
X982346Y460073D01*
X982313Y459965D01*
X982276Y459858D01*
X982236Y459752D01*
X982191Y459648D01*
X982143Y459545D01*
X982092Y459444D01*
X982037Y459345D01*
X981979Y459248D01*
X981917Y459153D01*
X981852Y459060D01*
X981784Y458970D01*
X981713Y458882D01*
X981638Y458796D01*
X981561Y458713D01*
X981481Y458633D01*
X981398Y458556D01*
X981312Y458481D01*
X981224Y458410D01*
X981134Y458342D01*
X981041Y458277D01*
X980946Y458215D01*
X980849Y458157D01*
X980750Y458102D01*
X980649Y458051D01*
X980546Y458003D01*
X980442Y457958D01*
X980336Y457918D01*
X980229Y457881D01*
X980121Y457848D01*
X980011Y457818D01*
X979901Y457793D01*
X979790Y457771D01*
X979678Y457754D01*
X979565Y457740D01*
X979452Y457730D01*
X979339Y457724D01*
X979226Y457722D01*
D15*
X877600Y290700D02*
X844600Y290700D01*
X877600Y290700D02*
X882600Y290700D01*
X882600Y242700D02*
X877600Y242700D01*
X844600Y242700D01*
X877600Y242700D02*
X877600Y290700D01*
D16*
X981146Y259768D02*
X981245Y259766D01*
X981345Y259760D01*
X981444Y259751D01*
X981542Y259738D01*
X981640Y259721D01*
X981738Y259700D01*
X981834Y259675D01*
X981929Y259647D01*
X982023Y259615D01*
X982116Y259580D01*
X982208Y259541D01*
X982298Y259498D01*
X982386Y259453D01*
X982473Y259403D01*
X982557Y259351D01*
X982640Y259295D01*
X982720Y259237D01*
X982798Y259175D01*
X982873Y259110D01*
X982946Y259042D01*
X983016Y258972D01*
X983084Y258899D01*
X983149Y258824D01*
X983211Y258746D01*
X983269Y258666D01*
X983325Y258583D01*
X983377Y258499D01*
X983427Y258412D01*
X983472Y258324D01*
X983515Y258234D01*
X983554Y258142D01*
X983589Y258049D01*
X983621Y257955D01*
X983649Y257860D01*
X983674Y257764D01*
X983695Y257666D01*
X983712Y257568D01*
X983725Y257470D01*
X983734Y257371D01*
X983740Y257271D01*
X983742Y257172D01*
X983740Y257028D01*
X983734Y256883D01*
X983725Y256739D01*
X983712Y256596D01*
X983695Y256452D01*
X983674Y256309D01*
X983649Y256167D01*
X983621Y256026D01*
X983589Y255885D01*
X983553Y255745D01*
X983514Y255606D01*
X983471Y255468D01*
X983424Y255332D01*
X983374Y255196D01*
X983320Y255062D01*
X983263Y254930D01*
X983202Y254799D01*
X983138Y254670D01*
X983070Y254542D01*
X983000Y254416D01*
X982925Y254292D01*
X982848Y254171D01*
X982767Y254051D01*
X982684Y253933D01*
X982597Y253818D01*
X982507Y253705D01*
X982414Y253594D01*
X982319Y253486D01*
X982220Y253380D01*
X982119Y253277D01*
X974654Y253602D02*
X974555Y253604D01*
X974455Y253610D01*
X974356Y253619D01*
X974258Y253632D01*
X974160Y253649D01*
X974062Y253670D01*
X973966Y253695D01*
X973871Y253723D01*
X973777Y253755D01*
X973684Y253790D01*
X973592Y253829D01*
X973502Y253872D01*
X973414Y253917D01*
X973327Y253967D01*
X973243Y254019D01*
X973160Y254075D01*
X973080Y254133D01*
X973002Y254195D01*
X972927Y254260D01*
X972854Y254328D01*
X972784Y254398D01*
X972716Y254471D01*
X972651Y254546D01*
X972589Y254624D01*
X972531Y254704D01*
X972475Y254787D01*
X972423Y254871D01*
X972373Y254958D01*
X972328Y255046D01*
X972285Y255136D01*
X972246Y255228D01*
X972211Y255321D01*
X972179Y255415D01*
X972151Y255510D01*
X972126Y255606D01*
X972105Y255704D01*
X972088Y255802D01*
X972075Y255900D01*
X972066Y255999D01*
X972060Y256099D01*
X972058Y256198D01*
X972060Y256334D01*
X972066Y256470D01*
X972075Y256606D01*
X972088Y256742D01*
X972106Y256877D01*
X972126Y257011D01*
X972151Y257145D01*
X972179Y257279D01*
X972212Y257411D01*
X972247Y257542D01*
X972287Y257673D01*
X972330Y257802D01*
X972376Y257930D01*
X972427Y258056D01*
X972480Y258182D01*
X972538Y258305D01*
X972598Y258427D01*
X972662Y258547D01*
X972730Y258666D01*
X972800Y258782D01*
X972874Y258896D01*
X972951Y259009D01*
X973032Y259119D01*
X976926Y254900D02*
X976873Y254814D01*
X976816Y254730D01*
X976757Y254648D01*
X976694Y254568D01*
X976628Y254491D01*
X976560Y254416D01*
X976488Y254344D01*
X976414Y254275D01*
X976337Y254209D01*
X976258Y254146D01*
X976176Y254086D01*
X976092Y254029D01*
X976006Y253975D01*
X975918Y253925D01*
X975828Y253878D01*
X975737Y253834D01*
X975643Y253795D01*
X975549Y253758D01*
X975453Y253726D01*
X975355Y253697D01*
X975257Y253672D01*
X975158Y253651D01*
X975058Y253633D01*
X974958Y253620D01*
X974857Y253610D01*
X974755Y253604D01*
X974654Y253602D01*
X978874Y258470D02*
X978927Y258556D01*
X978984Y258640D01*
X979043Y258722D01*
X979106Y258802D01*
X979172Y258879D01*
X979240Y258954D01*
X979312Y259026D01*
X979386Y259095D01*
X979463Y259161D01*
X979542Y259224D01*
X979624Y259284D01*
X979708Y259341D01*
X979794Y259395D01*
X979882Y259445D01*
X979972Y259492D01*
X980063Y259536D01*
X980157Y259575D01*
X980251Y259612D01*
X980347Y259644D01*
X980445Y259673D01*
X980543Y259698D01*
X980642Y259719D01*
X980742Y259737D01*
X980842Y259750D01*
X980943Y259760D01*
X981045Y259766D01*
X981146Y259768D01*
X978874Y258470D02*
X976926Y254900D01*
X980496Y264707D02*
X972058Y264707D01*
X980496Y264707D02*
X980609Y264709D01*
X980722Y264715D01*
X980835Y264725D01*
X980948Y264739D01*
X981060Y264756D01*
X981171Y264778D01*
X981281Y264803D01*
X981391Y264833D01*
X981499Y264866D01*
X981606Y264903D01*
X981712Y264943D01*
X981816Y264988D01*
X981919Y265036D01*
X982020Y265087D01*
X982119Y265142D01*
X982216Y265200D01*
X982311Y265262D01*
X982404Y265327D01*
X982494Y265395D01*
X982582Y265466D01*
X982668Y265541D01*
X982751Y265618D01*
X982831Y265698D01*
X982908Y265781D01*
X982983Y265867D01*
X983054Y265955D01*
X983122Y266045D01*
X983187Y266138D01*
X983249Y266233D01*
X983307Y266330D01*
X983362Y266429D01*
X983413Y266530D01*
X983461Y266633D01*
X983506Y266737D01*
X983546Y266843D01*
X983583Y266950D01*
X983616Y267058D01*
X983646Y267168D01*
X983671Y267278D01*
X983693Y267389D01*
X983710Y267501D01*
X983724Y267614D01*
X983734Y267727D01*
X983740Y267840D01*
X983742Y267953D01*
X983740Y268066D01*
X983734Y268179D01*
X983724Y268292D01*
X983710Y268405D01*
X983693Y268517D01*
X983671Y268628D01*
X983646Y268738D01*
X983616Y268848D01*
X983583Y268956D01*
X983546Y269063D01*
X983506Y269169D01*
X983461Y269273D01*
X983413Y269376D01*
X983362Y269477D01*
X983307Y269576D01*
X983249Y269673D01*
X983187Y269768D01*
X983122Y269861D01*
X983054Y269951D01*
X982983Y270039D01*
X982908Y270125D01*
X982831Y270208D01*
X982751Y270288D01*
X982668Y270365D01*
X982582Y270440D01*
X982494Y270511D01*
X982404Y270579D01*
X982311Y270644D01*
X982216Y270706D01*
X982119Y270764D01*
X982020Y270819D01*
X981919Y270870D01*
X981816Y270918D01*
X981712Y270963D01*
X981606Y271003D01*
X981499Y271040D01*
X981391Y271073D01*
X981281Y271103D01*
X981171Y271128D01*
X981060Y271150D01*
X980948Y271167D01*
X980835Y271181D01*
X980722Y271191D01*
X980609Y271197D01*
X980496Y271199D01*
X980496Y271198D02*
X972058Y271198D01*
X972058Y277012D02*
X983742Y277012D01*
X978549Y280907D02*
X972058Y277012D01*
X978549Y280907D02*
X972058Y284802D01*
X983742Y284802D01*
X983742Y290728D02*
X972058Y290728D01*
X978549Y294623D01*
X972058Y298518D01*
X983742Y298518D01*
X983742Y304354D02*
X983742Y309547D01*
X983742Y304354D02*
X972058Y304354D01*
X972058Y309547D01*
X977251Y308249D02*
X977251Y304354D01*
X972058Y314311D02*
X983742Y314311D01*
X972058Y314311D02*
X972058Y317556D01*
X972060Y317669D01*
X972066Y317782D01*
X972076Y317895D01*
X972090Y318008D01*
X972107Y318120D01*
X972129Y318231D01*
X972154Y318341D01*
X972184Y318451D01*
X972217Y318559D01*
X972254Y318666D01*
X972294Y318772D01*
X972339Y318876D01*
X972387Y318979D01*
X972438Y319080D01*
X972493Y319179D01*
X972551Y319276D01*
X972613Y319371D01*
X972678Y319464D01*
X972746Y319554D01*
X972817Y319642D01*
X972892Y319728D01*
X972969Y319811D01*
X973049Y319891D01*
X973132Y319968D01*
X973218Y320043D01*
X973306Y320114D01*
X973396Y320182D01*
X973489Y320247D01*
X973584Y320309D01*
X973681Y320367D01*
X973780Y320422D01*
X973881Y320473D01*
X973984Y320521D01*
X974088Y320566D01*
X974194Y320606D01*
X974301Y320643D01*
X974409Y320676D01*
X974519Y320706D01*
X974629Y320731D01*
X974740Y320753D01*
X974852Y320770D01*
X974965Y320784D01*
X975078Y320794D01*
X975191Y320800D01*
X975304Y320802D01*
X975417Y320800D01*
X975530Y320794D01*
X975643Y320784D01*
X975756Y320770D01*
X975868Y320753D01*
X975979Y320731D01*
X976089Y320706D01*
X976199Y320676D01*
X976307Y320643D01*
X976414Y320606D01*
X976520Y320566D01*
X976624Y320521D01*
X976727Y320473D01*
X976828Y320422D01*
X976927Y320367D01*
X977024Y320309D01*
X977119Y320247D01*
X977212Y320182D01*
X977302Y320114D01*
X977390Y320043D01*
X977476Y319968D01*
X977559Y319891D01*
X977639Y319811D01*
X977716Y319728D01*
X977791Y319642D01*
X977862Y319554D01*
X977930Y319464D01*
X977995Y319371D01*
X978057Y319276D01*
X978115Y319179D01*
X978170Y319080D01*
X978221Y318979D01*
X978269Y318876D01*
X978314Y318772D01*
X978354Y318666D01*
X978391Y318559D01*
X978424Y318451D01*
X978454Y318341D01*
X978479Y318231D01*
X978501Y318120D01*
X978518Y318008D01*
X978532Y317895D01*
X978542Y317782D01*
X978548Y317669D01*
X978550Y317556D01*
X978549Y317556D02*
X978549Y314311D01*
X978549Y318206D02*
X983742Y320802D01*
D15*
X982800Y1031100D02*
X896800Y1031100D01*
X982800Y1031100D02*
X982800Y888100D01*
X966800Y888100D01*
X912800Y888100D02*
X896800Y888100D01*
X896800Y951600D02*
X896800Y1031100D01*
X896800Y904100D02*
X896800Y888100D01*
D11*
X927481Y884047D02*
X927481Y876681D01*
X927481Y884047D02*
X929527Y884047D01*
X929616Y884045D01*
X929705Y884039D01*
X929794Y884029D01*
X929882Y884016D01*
X929970Y883999D01*
X930057Y883977D01*
X930142Y883952D01*
X930227Y883924D01*
X930310Y883891D01*
X930392Y883855D01*
X930472Y883816D01*
X930550Y883773D01*
X930626Y883727D01*
X930701Y883677D01*
X930773Y883624D01*
X930842Y883568D01*
X930909Y883509D01*
X930974Y883448D01*
X931035Y883383D01*
X931094Y883316D01*
X931150Y883247D01*
X931203Y883175D01*
X931253Y883100D01*
X931299Y883024D01*
X931342Y882946D01*
X931381Y882866D01*
X931417Y882784D01*
X931450Y882701D01*
X931478Y882616D01*
X931503Y882531D01*
X931525Y882444D01*
X931542Y882356D01*
X931555Y882268D01*
X931565Y882179D01*
X931571Y882090D01*
X931573Y882001D01*
X931571Y881912D01*
X931565Y881823D01*
X931555Y881734D01*
X931542Y881646D01*
X931525Y881558D01*
X931503Y881471D01*
X931478Y881386D01*
X931450Y881301D01*
X931417Y881218D01*
X931381Y881136D01*
X931342Y881056D01*
X931299Y880978D01*
X931253Y880902D01*
X931203Y880827D01*
X931150Y880755D01*
X931094Y880686D01*
X931035Y880619D01*
X930974Y880554D01*
X930909Y880493D01*
X930842Y880434D01*
X930773Y880378D01*
X930701Y880325D01*
X930626Y880275D01*
X930550Y880229D01*
X930472Y880186D01*
X930392Y880147D01*
X930310Y880111D01*
X930227Y880078D01*
X930142Y880050D01*
X930057Y880025D01*
X929970Y880003D01*
X929882Y879986D01*
X929794Y879973D01*
X929705Y879963D01*
X929616Y879957D01*
X929527Y879955D01*
X927481Y879955D01*
X934182Y884047D02*
X935819Y876681D01*
X937456Y881592D01*
X939093Y876681D01*
X940730Y884047D01*
X943996Y884047D02*
X943996Y876681D01*
X943996Y884047D02*
X946042Y884047D01*
X946131Y884045D01*
X946220Y884039D01*
X946309Y884029D01*
X946397Y884016D01*
X946485Y883999D01*
X946572Y883977D01*
X946657Y883952D01*
X946742Y883924D01*
X946825Y883891D01*
X946907Y883855D01*
X946987Y883816D01*
X947065Y883773D01*
X947141Y883727D01*
X947216Y883677D01*
X947288Y883624D01*
X947357Y883568D01*
X947424Y883509D01*
X947489Y883448D01*
X947550Y883383D01*
X947609Y883316D01*
X947665Y883247D01*
X947718Y883175D01*
X947768Y883100D01*
X947814Y883024D01*
X947857Y882946D01*
X947896Y882866D01*
X947932Y882784D01*
X947965Y882701D01*
X947993Y882616D01*
X948018Y882531D01*
X948040Y882444D01*
X948057Y882356D01*
X948070Y882268D01*
X948080Y882179D01*
X948086Y882090D01*
X948088Y882001D01*
X948086Y881912D01*
X948080Y881823D01*
X948070Y881734D01*
X948057Y881646D01*
X948040Y881558D01*
X948018Y881471D01*
X947993Y881386D01*
X947965Y881301D01*
X947932Y881218D01*
X947896Y881136D01*
X947857Y881056D01*
X947814Y880978D01*
X947768Y880902D01*
X947718Y880827D01*
X947665Y880755D01*
X947609Y880686D01*
X947550Y880619D01*
X947489Y880554D01*
X947424Y880493D01*
X947357Y880434D01*
X947288Y880378D01*
X947216Y880325D01*
X947141Y880275D01*
X947065Y880229D01*
X946987Y880186D01*
X946907Y880147D01*
X946825Y880111D01*
X946742Y880078D01*
X946657Y880050D01*
X946572Y880025D01*
X946485Y880003D01*
X946397Y879986D01*
X946309Y879973D01*
X946220Y879963D01*
X946131Y879957D01*
X946042Y879955D01*
X943996Y879955D01*
X946451Y879955D02*
X948088Y876681D01*
D14*
X67600Y831100D02*
X67600Y769100D01*
X135600Y769100D01*
X135600Y831100D01*
X67600Y831100D01*
D11*
X81448Y755890D02*
X81446Y755812D01*
X81441Y755734D01*
X81431Y755657D01*
X81418Y755580D01*
X81402Y755504D01*
X81382Y755429D01*
X81358Y755355D01*
X81331Y755282D01*
X81300Y755210D01*
X81266Y755140D01*
X81229Y755072D01*
X81188Y755005D01*
X81144Y754940D01*
X81098Y754878D01*
X81048Y754818D01*
X80996Y754760D01*
X80941Y754705D01*
X80883Y754653D01*
X80823Y754603D01*
X80761Y754557D01*
X80696Y754513D01*
X80630Y754472D01*
X80561Y754435D01*
X80491Y754401D01*
X80419Y754370D01*
X80346Y754343D01*
X80272Y754319D01*
X80197Y754299D01*
X80121Y754283D01*
X80044Y754270D01*
X79967Y754260D01*
X79889Y754255D01*
X79811Y754253D01*
X79697Y754255D01*
X79584Y754260D01*
X79470Y754270D01*
X79357Y754283D01*
X79245Y754300D01*
X79133Y754320D01*
X79022Y754344D01*
X78911Y754372D01*
X78802Y754403D01*
X78694Y754438D01*
X78587Y754477D01*
X78481Y754519D01*
X78377Y754564D01*
X78274Y754613D01*
X78173Y754666D01*
X78074Y754721D01*
X77976Y754780D01*
X77881Y754842D01*
X77788Y754907D01*
X77696Y754975D01*
X77608Y755046D01*
X77521Y755120D01*
X77437Y755197D01*
X77356Y755276D01*
X77560Y759982D02*
X77562Y760060D01*
X77567Y760138D01*
X77577Y760215D01*
X77590Y760292D01*
X77606Y760368D01*
X77626Y760443D01*
X77650Y760517D01*
X77677Y760590D01*
X77708Y760662D01*
X77742Y760732D01*
X77779Y760801D01*
X77820Y760867D01*
X77864Y760932D01*
X77910Y760994D01*
X77960Y761054D01*
X78012Y761112D01*
X78067Y761167D01*
X78125Y761219D01*
X78185Y761269D01*
X78247Y761315D01*
X78312Y761359D01*
X78379Y761400D01*
X78447Y761437D01*
X78517Y761471D01*
X78589Y761502D01*
X78662Y761529D01*
X78736Y761553D01*
X78811Y761573D01*
X78887Y761589D01*
X78964Y761602D01*
X79041Y761612D01*
X79119Y761617D01*
X79197Y761619D01*
X79307Y761617D01*
X79416Y761611D01*
X79526Y761601D01*
X79634Y761588D01*
X79743Y761570D01*
X79850Y761549D01*
X79957Y761523D01*
X80063Y761494D01*
X80168Y761462D01*
X80271Y761425D01*
X80373Y761385D01*
X80474Y761341D01*
X80573Y761293D01*
X80670Y761243D01*
X80765Y761188D01*
X80858Y761130D01*
X80949Y761069D01*
X81038Y761005D01*
X78379Y758549D02*
X78312Y758591D01*
X78247Y758635D01*
X78185Y758683D01*
X78125Y758733D01*
X78067Y758786D01*
X78012Y758842D01*
X77960Y758901D01*
X77910Y758961D01*
X77863Y759025D01*
X77820Y759090D01*
X77779Y759157D01*
X77742Y759226D01*
X77708Y759297D01*
X77677Y759369D01*
X77650Y759443D01*
X77626Y759517D01*
X77606Y759593D01*
X77590Y759670D01*
X77577Y759747D01*
X77567Y759825D01*
X77562Y759904D01*
X77560Y759982D01*
X80629Y757322D02*
X80695Y757280D01*
X80760Y757236D01*
X80822Y757189D01*
X80882Y757138D01*
X80940Y757085D01*
X80995Y757029D01*
X81048Y756971D01*
X81097Y756910D01*
X81144Y756847D01*
X81187Y756782D01*
X81228Y756715D01*
X81265Y756646D01*
X81299Y756575D01*
X81330Y756503D01*
X81357Y756429D01*
X81381Y756354D01*
X81401Y756279D01*
X81417Y756202D01*
X81430Y756125D01*
X81440Y756047D01*
X81445Y755968D01*
X81447Y755890D01*
X80629Y757322D02*
X78378Y758550D01*
X84427Y759982D02*
X86473Y761619D01*
X86473Y754253D01*
X84427Y754253D02*
X88519Y754253D01*
D14*
X148900Y879200D02*
X148900Y995200D01*
X148900Y879200D02*
X28900Y879200D01*
X28900Y995200D01*
X148900Y995200D01*
X834700Y995200D02*
X834700Y879200D01*
X714700Y879200D01*
X714700Y995200D01*
X834700Y995200D01*
X397800Y831100D02*
X397800Y769100D01*
X465800Y769100D01*
X465800Y831100D01*
X397800Y831100D01*
D11*
X411648Y755890D02*
X411646Y755812D01*
X411641Y755734D01*
X411631Y755657D01*
X411618Y755580D01*
X411602Y755504D01*
X411582Y755429D01*
X411558Y755355D01*
X411531Y755282D01*
X411500Y755210D01*
X411466Y755140D01*
X411429Y755072D01*
X411388Y755005D01*
X411344Y754940D01*
X411298Y754878D01*
X411248Y754818D01*
X411196Y754760D01*
X411141Y754705D01*
X411083Y754653D01*
X411023Y754603D01*
X410961Y754557D01*
X410896Y754513D01*
X410830Y754472D01*
X410761Y754435D01*
X410691Y754401D01*
X410619Y754370D01*
X410546Y754343D01*
X410472Y754319D01*
X410397Y754299D01*
X410321Y754283D01*
X410244Y754270D01*
X410167Y754260D01*
X410089Y754255D01*
X410011Y754253D01*
X409897Y754255D01*
X409784Y754260D01*
X409670Y754270D01*
X409557Y754283D01*
X409445Y754300D01*
X409333Y754320D01*
X409222Y754344D01*
X409111Y754372D01*
X409002Y754403D01*
X408894Y754438D01*
X408787Y754477D01*
X408681Y754519D01*
X408577Y754564D01*
X408474Y754613D01*
X408373Y754666D01*
X408274Y754721D01*
X408176Y754780D01*
X408081Y754842D01*
X407988Y754907D01*
X407896Y754975D01*
X407808Y755046D01*
X407721Y755120D01*
X407637Y755197D01*
X407556Y755276D01*
X407760Y759982D02*
X407762Y760060D01*
X407767Y760138D01*
X407777Y760215D01*
X407790Y760292D01*
X407806Y760368D01*
X407826Y760443D01*
X407850Y760517D01*
X407877Y760590D01*
X407908Y760662D01*
X407942Y760732D01*
X407979Y760801D01*
X408020Y760867D01*
X408064Y760932D01*
X408110Y760994D01*
X408160Y761054D01*
X408212Y761112D01*
X408267Y761167D01*
X408325Y761219D01*
X408385Y761269D01*
X408447Y761315D01*
X408512Y761359D01*
X408579Y761400D01*
X408647Y761437D01*
X408717Y761471D01*
X408789Y761502D01*
X408862Y761529D01*
X408936Y761553D01*
X409011Y761573D01*
X409087Y761589D01*
X409164Y761602D01*
X409241Y761612D01*
X409319Y761617D01*
X409397Y761619D01*
X409507Y761617D01*
X409616Y761611D01*
X409726Y761601D01*
X409834Y761588D01*
X409943Y761570D01*
X410050Y761549D01*
X410157Y761523D01*
X410263Y761494D01*
X410368Y761462D01*
X410471Y761425D01*
X410573Y761385D01*
X410674Y761341D01*
X410773Y761293D01*
X410870Y761243D01*
X410965Y761188D01*
X411058Y761130D01*
X411149Y761069D01*
X411238Y761005D01*
X408579Y758549D02*
X408512Y758591D01*
X408447Y758635D01*
X408385Y758683D01*
X408325Y758733D01*
X408267Y758786D01*
X408212Y758842D01*
X408160Y758901D01*
X408110Y758961D01*
X408063Y759025D01*
X408020Y759090D01*
X407979Y759157D01*
X407942Y759226D01*
X407908Y759297D01*
X407877Y759369D01*
X407850Y759443D01*
X407826Y759517D01*
X407806Y759593D01*
X407790Y759670D01*
X407777Y759747D01*
X407767Y759825D01*
X407762Y759904D01*
X407760Y759982D01*
X410829Y757322D02*
X410895Y757280D01*
X410960Y757236D01*
X411022Y757189D01*
X411082Y757138D01*
X411140Y757085D01*
X411195Y757029D01*
X411248Y756971D01*
X411297Y756910D01*
X411344Y756847D01*
X411387Y756782D01*
X411428Y756715D01*
X411465Y756646D01*
X411499Y756575D01*
X411530Y756503D01*
X411557Y756429D01*
X411581Y756354D01*
X411601Y756279D01*
X411617Y756202D01*
X411630Y756125D01*
X411640Y756047D01*
X411645Y755968D01*
X411647Y755890D01*
X410829Y757322D02*
X408578Y758550D01*
X414627Y754253D02*
X416673Y754253D01*
X416762Y754255D01*
X416851Y754261D01*
X416940Y754271D01*
X417028Y754284D01*
X417116Y754301D01*
X417203Y754323D01*
X417288Y754348D01*
X417373Y754376D01*
X417456Y754409D01*
X417538Y754445D01*
X417618Y754484D01*
X417696Y754527D01*
X417772Y754573D01*
X417847Y754623D01*
X417919Y754676D01*
X417988Y754732D01*
X418055Y754791D01*
X418120Y754852D01*
X418181Y754917D01*
X418240Y754984D01*
X418296Y755053D01*
X418349Y755125D01*
X418399Y755200D01*
X418445Y755276D01*
X418488Y755354D01*
X418527Y755434D01*
X418563Y755516D01*
X418596Y755599D01*
X418624Y755684D01*
X418649Y755769D01*
X418671Y755856D01*
X418688Y755944D01*
X418701Y756032D01*
X418711Y756121D01*
X418717Y756210D01*
X418719Y756299D01*
X418717Y756388D01*
X418711Y756477D01*
X418701Y756566D01*
X418688Y756654D01*
X418671Y756742D01*
X418649Y756829D01*
X418624Y756914D01*
X418596Y756999D01*
X418563Y757082D01*
X418527Y757164D01*
X418488Y757244D01*
X418445Y757322D01*
X418399Y757398D01*
X418349Y757473D01*
X418296Y757545D01*
X418240Y757614D01*
X418181Y757681D01*
X418120Y757746D01*
X418055Y757807D01*
X417988Y757866D01*
X417919Y757922D01*
X417847Y757975D01*
X417772Y758025D01*
X417696Y758071D01*
X417618Y758114D01*
X417538Y758153D01*
X417456Y758189D01*
X417373Y758222D01*
X417288Y758250D01*
X417203Y758275D01*
X417116Y758297D01*
X417028Y758314D01*
X416940Y758327D01*
X416851Y758337D01*
X416762Y758343D01*
X416673Y758345D01*
X417082Y761619D02*
X414627Y761619D01*
X417082Y761619D02*
X417161Y761617D01*
X417240Y761611D01*
X417319Y761602D01*
X417397Y761589D01*
X417474Y761571D01*
X417550Y761551D01*
X417625Y761526D01*
X417699Y761498D01*
X417772Y761467D01*
X417843Y761431D01*
X417912Y761393D01*
X417979Y761351D01*
X418044Y761306D01*
X418107Y761258D01*
X418168Y761207D01*
X418225Y761153D01*
X418281Y761097D01*
X418333Y761038D01*
X418383Y760976D01*
X418429Y760912D01*
X418473Y760846D01*
X418513Y760778D01*
X418549Y760708D01*
X418583Y760636D01*
X418613Y760562D01*
X418639Y760488D01*
X418662Y760412D01*
X418680Y760335D01*
X418696Y760258D01*
X418707Y760179D01*
X418715Y760101D01*
X418719Y760022D01*
X418719Y759942D01*
X418715Y759863D01*
X418707Y759785D01*
X418696Y759706D01*
X418680Y759629D01*
X418662Y759552D01*
X418639Y759476D01*
X418613Y759402D01*
X418583Y759328D01*
X418549Y759256D01*
X418513Y759186D01*
X418473Y759118D01*
X418429Y759052D01*
X418383Y758988D01*
X418333Y758926D01*
X418281Y758867D01*
X418225Y758811D01*
X418168Y758757D01*
X418107Y758706D01*
X418044Y758658D01*
X417979Y758613D01*
X417912Y758571D01*
X417843Y758533D01*
X417772Y758497D01*
X417699Y758466D01*
X417625Y758438D01*
X417550Y758413D01*
X417474Y758393D01*
X417397Y758375D01*
X417319Y758362D01*
X417240Y758353D01*
X417161Y758347D01*
X417082Y758345D01*
X415445Y758345D01*
D14*
X606100Y879200D02*
X606100Y995200D01*
X606100Y879200D02*
X486100Y879200D01*
X486100Y995200D01*
X606100Y995200D01*
X232700Y831100D02*
X232700Y769100D01*
X300700Y769100D01*
X300700Y831100D01*
X232700Y831100D01*
D11*
X246548Y755890D02*
X246546Y755812D01*
X246541Y755734D01*
X246531Y755657D01*
X246518Y755580D01*
X246502Y755504D01*
X246482Y755429D01*
X246458Y755355D01*
X246431Y755282D01*
X246400Y755210D01*
X246366Y755140D01*
X246329Y755072D01*
X246288Y755005D01*
X246244Y754940D01*
X246198Y754878D01*
X246148Y754818D01*
X246096Y754760D01*
X246041Y754705D01*
X245983Y754653D01*
X245923Y754603D01*
X245861Y754557D01*
X245796Y754513D01*
X245730Y754472D01*
X245661Y754435D01*
X245591Y754401D01*
X245519Y754370D01*
X245446Y754343D01*
X245372Y754319D01*
X245297Y754299D01*
X245221Y754283D01*
X245144Y754270D01*
X245067Y754260D01*
X244989Y754255D01*
X244911Y754253D01*
X244797Y754255D01*
X244684Y754260D01*
X244570Y754270D01*
X244457Y754283D01*
X244345Y754300D01*
X244233Y754320D01*
X244122Y754344D01*
X244011Y754372D01*
X243902Y754403D01*
X243794Y754438D01*
X243687Y754477D01*
X243581Y754519D01*
X243477Y754564D01*
X243374Y754613D01*
X243273Y754666D01*
X243174Y754721D01*
X243076Y754780D01*
X242981Y754842D01*
X242888Y754907D01*
X242796Y754975D01*
X242708Y755046D01*
X242621Y755120D01*
X242537Y755197D01*
X242456Y755276D01*
X242660Y759982D02*
X242662Y760060D01*
X242667Y760138D01*
X242677Y760215D01*
X242690Y760292D01*
X242706Y760368D01*
X242726Y760443D01*
X242750Y760517D01*
X242777Y760590D01*
X242808Y760662D01*
X242842Y760732D01*
X242879Y760801D01*
X242920Y760867D01*
X242964Y760932D01*
X243010Y760994D01*
X243060Y761054D01*
X243112Y761112D01*
X243167Y761167D01*
X243225Y761219D01*
X243285Y761269D01*
X243347Y761315D01*
X243412Y761359D01*
X243479Y761400D01*
X243547Y761437D01*
X243617Y761471D01*
X243689Y761502D01*
X243762Y761529D01*
X243836Y761553D01*
X243911Y761573D01*
X243987Y761589D01*
X244064Y761602D01*
X244141Y761612D01*
X244219Y761617D01*
X244297Y761619D01*
X244407Y761617D01*
X244516Y761611D01*
X244626Y761601D01*
X244734Y761588D01*
X244843Y761570D01*
X244950Y761549D01*
X245057Y761523D01*
X245163Y761494D01*
X245268Y761462D01*
X245371Y761425D01*
X245473Y761385D01*
X245574Y761341D01*
X245673Y761293D01*
X245770Y761243D01*
X245865Y761188D01*
X245958Y761130D01*
X246049Y761069D01*
X246138Y761005D01*
X243479Y758549D02*
X243412Y758591D01*
X243347Y758635D01*
X243285Y758683D01*
X243225Y758733D01*
X243167Y758786D01*
X243112Y758842D01*
X243060Y758901D01*
X243010Y758961D01*
X242963Y759025D01*
X242920Y759090D01*
X242879Y759157D01*
X242842Y759226D01*
X242808Y759297D01*
X242777Y759369D01*
X242750Y759443D01*
X242726Y759517D01*
X242706Y759593D01*
X242690Y759670D01*
X242677Y759747D01*
X242667Y759825D01*
X242662Y759904D01*
X242660Y759982D01*
X245729Y757322D02*
X245795Y757280D01*
X245860Y757236D01*
X245922Y757189D01*
X245982Y757138D01*
X246040Y757085D01*
X246095Y757029D01*
X246148Y756971D01*
X246197Y756910D01*
X246244Y756847D01*
X246287Y756782D01*
X246328Y756715D01*
X246365Y756646D01*
X246399Y756575D01*
X246430Y756503D01*
X246457Y756429D01*
X246481Y756354D01*
X246501Y756279D01*
X246517Y756202D01*
X246530Y756125D01*
X246540Y756047D01*
X246545Y755968D01*
X246547Y755890D01*
X245729Y757322D02*
X243478Y758550D01*
X251778Y761620D02*
X251863Y761618D01*
X251948Y761612D01*
X252032Y761602D01*
X252116Y761589D01*
X252200Y761571D01*
X252282Y761550D01*
X252363Y761525D01*
X252443Y761496D01*
X252522Y761463D01*
X252599Y761427D01*
X252674Y761387D01*
X252748Y761344D01*
X252819Y761298D01*
X252888Y761248D01*
X252955Y761195D01*
X253019Y761139D01*
X253080Y761080D01*
X253139Y761019D01*
X253195Y760955D01*
X253248Y760888D01*
X253298Y760819D01*
X253344Y760748D01*
X253387Y760674D01*
X253427Y760599D01*
X253463Y760522D01*
X253496Y760443D01*
X253525Y760363D01*
X253550Y760282D01*
X253571Y760200D01*
X253589Y760116D01*
X253602Y760032D01*
X253612Y759948D01*
X253618Y759863D01*
X253620Y759778D01*
X251778Y761619D02*
X251682Y761617D01*
X251586Y761611D01*
X251491Y761601D01*
X251396Y761588D01*
X251301Y761570D01*
X251208Y761549D01*
X251115Y761524D01*
X251024Y761495D01*
X250933Y761463D01*
X250844Y761427D01*
X250757Y761387D01*
X250671Y761344D01*
X250587Y761298D01*
X250505Y761248D01*
X250425Y761194D01*
X250348Y761138D01*
X250273Y761078D01*
X250200Y761016D01*
X250130Y760950D01*
X250062Y760882D01*
X249997Y760811D01*
X249936Y760738D01*
X249877Y760662D01*
X249821Y760583D01*
X249769Y760503D01*
X249720Y760420D01*
X249674Y760336D01*
X249632Y760250D01*
X249594Y760162D01*
X249559Y760073D01*
X249527Y759982D01*
X253005Y758346D02*
X253065Y758405D01*
X253122Y758467D01*
X253177Y758531D01*
X253228Y758598D01*
X253277Y758667D01*
X253323Y758737D01*
X253366Y758810D01*
X253406Y758884D01*
X253442Y758960D01*
X253475Y759038D01*
X253505Y759117D01*
X253532Y759197D01*
X253555Y759278D01*
X253574Y759360D01*
X253590Y759442D01*
X253603Y759526D01*
X253612Y759610D01*
X253617Y759694D01*
X253619Y759778D01*
X253005Y758345D02*
X249527Y754253D01*
X253619Y754253D01*
D14*
X377500Y879200D02*
X377500Y995200D01*
X377500Y879200D02*
X257500Y879200D01*
X257500Y995200D01*
X377500Y995200D01*
D15*
X167700Y987600D02*
X167700Y866600D01*
X238300Y866600D02*
X238300Y987600D01*
X167700Y987600D01*
X167700Y866600D02*
X238300Y866600D01*
D11*
X165481Y864997D02*
X165481Y857631D01*
X165481Y860496D02*
X169573Y864997D01*
X167118Y862132D02*
X169573Y857631D01*
X172435Y863360D02*
X174481Y864997D01*
X174481Y857631D01*
X172435Y857631D02*
X176527Y857631D01*
D15*
X396300Y866600D02*
X396300Y987600D01*
X466900Y987600D02*
X466900Y866600D01*
X466900Y987600D02*
X396300Y987600D01*
X396300Y866600D02*
X466900Y866600D01*
D11*
X470281Y864997D02*
X470281Y857631D01*
X470281Y860496D02*
X474373Y864997D01*
X471918Y862132D02*
X474373Y857631D01*
X481327Y863156D02*
X481325Y863241D01*
X481319Y863326D01*
X481309Y863410D01*
X481296Y863494D01*
X481278Y863578D01*
X481257Y863660D01*
X481232Y863741D01*
X481203Y863821D01*
X481170Y863900D01*
X481134Y863977D01*
X481094Y864052D01*
X481051Y864126D01*
X481005Y864197D01*
X480955Y864266D01*
X480902Y864333D01*
X480846Y864397D01*
X480787Y864458D01*
X480726Y864517D01*
X480662Y864573D01*
X480595Y864626D01*
X480526Y864676D01*
X480455Y864722D01*
X480381Y864765D01*
X480306Y864805D01*
X480229Y864841D01*
X480150Y864874D01*
X480070Y864903D01*
X479989Y864928D01*
X479907Y864949D01*
X479823Y864967D01*
X479739Y864980D01*
X479655Y864990D01*
X479570Y864996D01*
X479485Y864998D01*
X479485Y864997D02*
X479389Y864995D01*
X479293Y864989D01*
X479198Y864979D01*
X479103Y864966D01*
X479008Y864948D01*
X478915Y864927D01*
X478822Y864902D01*
X478731Y864873D01*
X478640Y864841D01*
X478551Y864805D01*
X478464Y864765D01*
X478378Y864722D01*
X478294Y864676D01*
X478212Y864626D01*
X478132Y864572D01*
X478055Y864516D01*
X477980Y864456D01*
X477907Y864394D01*
X477837Y864328D01*
X477769Y864260D01*
X477704Y864189D01*
X477643Y864116D01*
X477584Y864040D01*
X477528Y863961D01*
X477476Y863881D01*
X477427Y863798D01*
X477381Y863714D01*
X477339Y863628D01*
X477301Y863540D01*
X477266Y863451D01*
X477234Y863360D01*
X480713Y861724D02*
X480773Y861783D01*
X480830Y861845D01*
X480885Y861909D01*
X480936Y861976D01*
X480985Y862045D01*
X481031Y862115D01*
X481074Y862188D01*
X481114Y862262D01*
X481150Y862338D01*
X481183Y862416D01*
X481213Y862495D01*
X481240Y862575D01*
X481263Y862656D01*
X481282Y862738D01*
X481298Y862820D01*
X481311Y862904D01*
X481320Y862988D01*
X481325Y863072D01*
X481327Y863156D01*
X480713Y861723D02*
X477235Y857631D01*
X481327Y857631D01*
D15*
X624900Y866600D02*
X624900Y987600D01*
X695500Y987600D02*
X695500Y866600D01*
X695500Y987600D02*
X624900Y987600D01*
X624900Y866600D02*
X695500Y866600D01*
D11*
X698881Y864997D02*
X698881Y857631D01*
X698881Y860496D02*
X702973Y864997D01*
X700518Y862132D02*
X702973Y857631D01*
X705835Y857631D02*
X707881Y857631D01*
X707970Y857633D01*
X708059Y857639D01*
X708148Y857649D01*
X708236Y857662D01*
X708324Y857679D01*
X708411Y857701D01*
X708496Y857726D01*
X708581Y857754D01*
X708664Y857787D01*
X708746Y857823D01*
X708826Y857862D01*
X708904Y857905D01*
X708980Y857951D01*
X709055Y858001D01*
X709127Y858054D01*
X709196Y858110D01*
X709263Y858169D01*
X709328Y858230D01*
X709389Y858295D01*
X709448Y858362D01*
X709504Y858431D01*
X709557Y858503D01*
X709607Y858578D01*
X709653Y858654D01*
X709696Y858732D01*
X709735Y858812D01*
X709771Y858894D01*
X709804Y858977D01*
X709832Y859062D01*
X709857Y859147D01*
X709879Y859234D01*
X709896Y859322D01*
X709909Y859410D01*
X709919Y859499D01*
X709925Y859588D01*
X709927Y859677D01*
X709925Y859766D01*
X709919Y859855D01*
X709909Y859944D01*
X709896Y860032D01*
X709879Y860120D01*
X709857Y860207D01*
X709832Y860292D01*
X709804Y860377D01*
X709771Y860460D01*
X709735Y860542D01*
X709696Y860622D01*
X709653Y860700D01*
X709607Y860776D01*
X709557Y860851D01*
X709504Y860923D01*
X709448Y860992D01*
X709389Y861059D01*
X709328Y861124D01*
X709263Y861185D01*
X709196Y861244D01*
X709127Y861300D01*
X709055Y861353D01*
X708980Y861403D01*
X708904Y861449D01*
X708826Y861492D01*
X708746Y861531D01*
X708664Y861567D01*
X708581Y861600D01*
X708496Y861628D01*
X708411Y861653D01*
X708324Y861675D01*
X708236Y861692D01*
X708148Y861705D01*
X708059Y861715D01*
X707970Y861721D01*
X707881Y861723D01*
X708290Y864997D02*
X705835Y864997D01*
X708290Y864997D02*
X708369Y864995D01*
X708448Y864989D01*
X708527Y864980D01*
X708605Y864967D01*
X708682Y864949D01*
X708758Y864929D01*
X708833Y864904D01*
X708907Y864876D01*
X708980Y864845D01*
X709051Y864809D01*
X709120Y864771D01*
X709187Y864729D01*
X709252Y864684D01*
X709315Y864636D01*
X709376Y864585D01*
X709433Y864531D01*
X709489Y864475D01*
X709541Y864416D01*
X709591Y864354D01*
X709637Y864290D01*
X709681Y864224D01*
X709721Y864156D01*
X709757Y864086D01*
X709791Y864014D01*
X709821Y863940D01*
X709847Y863866D01*
X709870Y863790D01*
X709888Y863713D01*
X709904Y863636D01*
X709915Y863557D01*
X709923Y863479D01*
X709927Y863400D01*
X709927Y863320D01*
X709923Y863241D01*
X709915Y863163D01*
X709904Y863084D01*
X709888Y863007D01*
X709870Y862930D01*
X709847Y862854D01*
X709821Y862780D01*
X709791Y862706D01*
X709757Y862634D01*
X709721Y862564D01*
X709681Y862496D01*
X709637Y862430D01*
X709591Y862366D01*
X709541Y862304D01*
X709489Y862245D01*
X709433Y862189D01*
X709376Y862135D01*
X709315Y862084D01*
X709252Y862036D01*
X709187Y861991D01*
X709120Y861949D01*
X709051Y861911D01*
X708980Y861875D01*
X708907Y861844D01*
X708833Y861816D01*
X708758Y861791D01*
X708682Y861771D01*
X708605Y861753D01*
X708527Y861740D01*
X708448Y861731D01*
X708369Y861725D01*
X708290Y861723D01*
X706653Y861723D01*
D15*
X678600Y742500D02*
X678600Y654500D01*
X540600Y654500D02*
X540600Y742500D01*
X551600Y742500D01*
X667600Y654500D02*
X678600Y654500D01*
X678600Y742500D02*
X667600Y742500D01*
X551600Y654500D02*
X540600Y654500D01*
D17*
X549275Y698500D03*
D11*
X648081Y642747D02*
X648081Y635381D01*
X648081Y638246D02*
X652173Y642747D01*
X649718Y639882D02*
X652173Y635381D01*
X655035Y637018D02*
X656672Y642747D01*
X655035Y637018D02*
X659127Y637018D01*
X657899Y638655D02*
X657899Y635381D01*
D15*
X773400Y680850D02*
X806400Y680850D01*
X773400Y680850D02*
X768400Y680850D01*
X768400Y766950D02*
X773400Y766950D01*
X806400Y766950D01*
D11*
X768731Y668147D02*
X768731Y660781D01*
X768731Y668147D02*
X770777Y668147D01*
X770866Y668145D01*
X770955Y668139D01*
X771044Y668129D01*
X771132Y668116D01*
X771220Y668099D01*
X771307Y668077D01*
X771392Y668052D01*
X771477Y668024D01*
X771560Y667991D01*
X771642Y667955D01*
X771722Y667916D01*
X771800Y667873D01*
X771876Y667827D01*
X771951Y667777D01*
X772023Y667724D01*
X772092Y667668D01*
X772159Y667609D01*
X772224Y667548D01*
X772285Y667483D01*
X772344Y667416D01*
X772400Y667347D01*
X772453Y667275D01*
X772503Y667200D01*
X772549Y667124D01*
X772592Y667046D01*
X772631Y666966D01*
X772667Y666884D01*
X772700Y666801D01*
X772728Y666716D01*
X772753Y666631D01*
X772775Y666544D01*
X772792Y666456D01*
X772805Y666368D01*
X772815Y666279D01*
X772821Y666190D01*
X772823Y666101D01*
X772821Y666012D01*
X772815Y665923D01*
X772805Y665834D01*
X772792Y665746D01*
X772775Y665658D01*
X772753Y665571D01*
X772728Y665486D01*
X772700Y665401D01*
X772667Y665318D01*
X772631Y665236D01*
X772592Y665156D01*
X772549Y665078D01*
X772503Y665002D01*
X772453Y664927D01*
X772400Y664855D01*
X772344Y664786D01*
X772285Y664719D01*
X772224Y664654D01*
X772159Y664593D01*
X772092Y664534D01*
X772023Y664478D01*
X771951Y664425D01*
X771876Y664375D01*
X771800Y664329D01*
X771722Y664286D01*
X771642Y664247D01*
X771560Y664211D01*
X771477Y664178D01*
X771392Y664150D01*
X771307Y664125D01*
X771220Y664103D01*
X771132Y664086D01*
X771044Y664073D01*
X770955Y664063D01*
X770866Y664057D01*
X770777Y664055D01*
X768731Y664055D01*
X776268Y660781D02*
X776268Y668147D01*
X775449Y660781D02*
X777086Y660781D01*
X777086Y668147D02*
X775449Y668147D01*
X781688Y660781D02*
X783324Y660781D01*
X781688Y660781D02*
X781610Y660783D01*
X781532Y660788D01*
X781455Y660798D01*
X781378Y660811D01*
X781302Y660827D01*
X781227Y660847D01*
X781153Y660871D01*
X781080Y660898D01*
X781008Y660929D01*
X780938Y660963D01*
X780870Y661000D01*
X780803Y661041D01*
X780738Y661085D01*
X780676Y661131D01*
X780616Y661181D01*
X780558Y661233D01*
X780503Y661288D01*
X780451Y661346D01*
X780401Y661406D01*
X780355Y661468D01*
X780311Y661533D01*
X780270Y661600D01*
X780233Y661668D01*
X780199Y661738D01*
X780168Y661810D01*
X780141Y661883D01*
X780117Y661957D01*
X780097Y662032D01*
X780081Y662108D01*
X780068Y662185D01*
X780058Y662262D01*
X780053Y662340D01*
X780051Y662418D01*
X780051Y666510D01*
X780053Y666590D01*
X780059Y666670D01*
X780069Y666750D01*
X780082Y666829D01*
X780100Y666908D01*
X780121Y666985D01*
X780147Y667061D01*
X780176Y667136D01*
X780208Y667210D01*
X780244Y667282D01*
X780284Y667352D01*
X780327Y667419D01*
X780373Y667485D01*
X780423Y667548D01*
X780475Y667609D01*
X780530Y667668D01*
X780589Y667723D01*
X780649Y667775D01*
X780713Y667825D01*
X780779Y667871D01*
X780846Y667914D01*
X780916Y667954D01*
X780988Y667990D01*
X781062Y668022D01*
X781136Y668051D01*
X781213Y668077D01*
X781290Y668098D01*
X781369Y668116D01*
X781448Y668129D01*
X781528Y668139D01*
X781608Y668145D01*
X781688Y668147D01*
X783324Y668147D01*
X786170Y666510D02*
X788216Y668147D01*
X788216Y660781D01*
X786170Y660781D02*
X790262Y660781D01*
X793485Y664873D02*
X795940Y664873D01*
X796018Y664871D01*
X796096Y664866D01*
X796173Y664856D01*
X796250Y664843D01*
X796326Y664827D01*
X796401Y664807D01*
X796475Y664783D01*
X796548Y664756D01*
X796620Y664725D01*
X796690Y664691D01*
X796759Y664654D01*
X796825Y664613D01*
X796890Y664569D01*
X796952Y664523D01*
X797012Y664473D01*
X797070Y664421D01*
X797125Y664366D01*
X797177Y664308D01*
X797227Y664248D01*
X797273Y664186D01*
X797317Y664121D01*
X797358Y664055D01*
X797395Y663986D01*
X797429Y663916D01*
X797460Y663844D01*
X797487Y663771D01*
X797511Y663697D01*
X797531Y663622D01*
X797547Y663546D01*
X797560Y663469D01*
X797570Y663392D01*
X797575Y663314D01*
X797577Y663236D01*
X797577Y662827D01*
X797575Y662738D01*
X797569Y662649D01*
X797559Y662560D01*
X797546Y662472D01*
X797529Y662384D01*
X797507Y662297D01*
X797482Y662212D01*
X797454Y662127D01*
X797421Y662044D01*
X797385Y661962D01*
X797346Y661882D01*
X797303Y661804D01*
X797257Y661728D01*
X797207Y661653D01*
X797154Y661581D01*
X797098Y661512D01*
X797039Y661445D01*
X796978Y661380D01*
X796913Y661319D01*
X796846Y661260D01*
X796777Y661204D01*
X796705Y661151D01*
X796630Y661101D01*
X796554Y661055D01*
X796476Y661012D01*
X796396Y660973D01*
X796314Y660937D01*
X796231Y660904D01*
X796146Y660876D01*
X796061Y660851D01*
X795974Y660829D01*
X795886Y660812D01*
X795798Y660799D01*
X795709Y660789D01*
X795620Y660783D01*
X795531Y660781D01*
X795442Y660783D01*
X795353Y660789D01*
X795264Y660799D01*
X795176Y660812D01*
X795088Y660829D01*
X795001Y660851D01*
X794916Y660876D01*
X794831Y660904D01*
X794748Y660937D01*
X794666Y660973D01*
X794586Y661012D01*
X794508Y661055D01*
X794432Y661101D01*
X794357Y661151D01*
X794285Y661204D01*
X794216Y661260D01*
X794149Y661319D01*
X794084Y661380D01*
X794023Y661445D01*
X793964Y661512D01*
X793908Y661581D01*
X793855Y661653D01*
X793805Y661728D01*
X793759Y661804D01*
X793716Y661882D01*
X793677Y661962D01*
X793641Y662044D01*
X793608Y662127D01*
X793580Y662212D01*
X793555Y662297D01*
X793533Y662384D01*
X793516Y662472D01*
X793503Y662560D01*
X793493Y662649D01*
X793487Y662738D01*
X793485Y662827D01*
X793485Y664873D01*
X793487Y664987D01*
X793493Y665101D01*
X793503Y665215D01*
X793517Y665329D01*
X793535Y665442D01*
X793557Y665554D01*
X793582Y665665D01*
X793612Y665775D01*
X793645Y665885D01*
X793682Y665993D01*
X793723Y666099D01*
X793768Y666205D01*
X793816Y666308D01*
X793868Y666410D01*
X793924Y666510D01*
X793982Y666608D01*
X794045Y666704D01*
X794110Y666797D01*
X794179Y666889D01*
X794251Y666977D01*
X794326Y667064D01*
X794404Y667147D01*
X794485Y667228D01*
X794568Y667306D01*
X794655Y667381D01*
X794743Y667453D01*
X794835Y667522D01*
X794928Y667587D01*
X795024Y667649D01*
X795122Y667708D01*
X795222Y667764D01*
X795324Y667816D01*
X795427Y667864D01*
X795533Y667909D01*
X795639Y667950D01*
X795747Y667987D01*
X795857Y668020D01*
X795967Y668050D01*
X796078Y668075D01*
X796190Y668097D01*
X796303Y668115D01*
X796417Y668129D01*
X796531Y668139D01*
X796645Y668145D01*
X796759Y668147D01*
D14*
X562900Y769100D02*
X562900Y831100D01*
X562900Y769100D02*
X630900Y769100D01*
X630900Y831100D01*
X562900Y831100D01*
D11*
X576748Y755890D02*
X576746Y755812D01*
X576741Y755734D01*
X576731Y755657D01*
X576718Y755580D01*
X576702Y755504D01*
X576682Y755429D01*
X576658Y755355D01*
X576631Y755282D01*
X576600Y755210D01*
X576566Y755140D01*
X576529Y755072D01*
X576488Y755005D01*
X576444Y754940D01*
X576398Y754878D01*
X576348Y754818D01*
X576296Y754760D01*
X576241Y754705D01*
X576183Y754653D01*
X576123Y754603D01*
X576061Y754557D01*
X575996Y754513D01*
X575930Y754472D01*
X575861Y754435D01*
X575791Y754401D01*
X575719Y754370D01*
X575646Y754343D01*
X575572Y754319D01*
X575497Y754299D01*
X575421Y754283D01*
X575344Y754270D01*
X575267Y754260D01*
X575189Y754255D01*
X575111Y754253D01*
X574997Y754255D01*
X574884Y754260D01*
X574770Y754270D01*
X574657Y754283D01*
X574545Y754300D01*
X574433Y754320D01*
X574322Y754344D01*
X574211Y754372D01*
X574102Y754403D01*
X573994Y754438D01*
X573887Y754477D01*
X573781Y754519D01*
X573677Y754564D01*
X573574Y754613D01*
X573473Y754666D01*
X573374Y754721D01*
X573276Y754780D01*
X573181Y754842D01*
X573088Y754907D01*
X572996Y754975D01*
X572908Y755046D01*
X572821Y755120D01*
X572737Y755197D01*
X572656Y755276D01*
X572860Y759982D02*
X572862Y760060D01*
X572867Y760138D01*
X572877Y760215D01*
X572890Y760292D01*
X572906Y760368D01*
X572926Y760443D01*
X572950Y760517D01*
X572977Y760590D01*
X573008Y760662D01*
X573042Y760732D01*
X573079Y760801D01*
X573120Y760867D01*
X573164Y760932D01*
X573210Y760994D01*
X573260Y761054D01*
X573312Y761112D01*
X573367Y761167D01*
X573425Y761219D01*
X573485Y761269D01*
X573547Y761315D01*
X573612Y761359D01*
X573679Y761400D01*
X573747Y761437D01*
X573817Y761471D01*
X573889Y761502D01*
X573962Y761529D01*
X574036Y761553D01*
X574111Y761573D01*
X574187Y761589D01*
X574264Y761602D01*
X574341Y761612D01*
X574419Y761617D01*
X574497Y761619D01*
X574607Y761617D01*
X574716Y761611D01*
X574826Y761601D01*
X574934Y761588D01*
X575043Y761570D01*
X575150Y761549D01*
X575257Y761523D01*
X575363Y761494D01*
X575468Y761462D01*
X575571Y761425D01*
X575673Y761385D01*
X575774Y761341D01*
X575873Y761293D01*
X575970Y761243D01*
X576065Y761188D01*
X576158Y761130D01*
X576249Y761069D01*
X576338Y761005D01*
X573679Y758549D02*
X573612Y758591D01*
X573547Y758635D01*
X573485Y758683D01*
X573425Y758733D01*
X573367Y758786D01*
X573312Y758842D01*
X573260Y758901D01*
X573210Y758961D01*
X573163Y759025D01*
X573120Y759090D01*
X573079Y759157D01*
X573042Y759226D01*
X573008Y759297D01*
X572977Y759369D01*
X572950Y759443D01*
X572926Y759517D01*
X572906Y759593D01*
X572890Y759670D01*
X572877Y759747D01*
X572867Y759825D01*
X572862Y759904D01*
X572860Y759982D01*
X575929Y757322D02*
X575995Y757280D01*
X576060Y757236D01*
X576122Y757189D01*
X576182Y757138D01*
X576240Y757085D01*
X576295Y757029D01*
X576348Y756971D01*
X576397Y756910D01*
X576444Y756847D01*
X576487Y756782D01*
X576528Y756715D01*
X576565Y756646D01*
X576599Y756575D01*
X576630Y756503D01*
X576657Y756429D01*
X576681Y756354D01*
X576701Y756279D01*
X576717Y756202D01*
X576730Y756125D01*
X576740Y756047D01*
X576745Y755968D01*
X576747Y755890D01*
X575929Y757322D02*
X573678Y758550D01*
X579727Y755890D02*
X581364Y761619D01*
X579727Y755890D02*
X583819Y755890D01*
X582591Y757527D02*
X582591Y754253D01*
D15*
X905510Y792730D02*
X965454Y792734D01*
X905510Y792730D02*
X905510Y858270D01*
X965454Y858266D01*
D18*
X900684Y825500D03*
D11*
X902081Y863981D02*
X904536Y863981D01*
X904614Y863983D01*
X904692Y863988D01*
X904769Y863998D01*
X904846Y864011D01*
X904922Y864027D01*
X904997Y864047D01*
X905071Y864071D01*
X905144Y864098D01*
X905216Y864129D01*
X905286Y864163D01*
X905355Y864200D01*
X905421Y864241D01*
X905486Y864285D01*
X905548Y864331D01*
X905608Y864381D01*
X905666Y864433D01*
X905721Y864488D01*
X905773Y864546D01*
X905823Y864606D01*
X905869Y864668D01*
X905913Y864733D01*
X905954Y864800D01*
X905991Y864868D01*
X906025Y864938D01*
X906056Y865010D01*
X906083Y865083D01*
X906107Y865157D01*
X906127Y865232D01*
X906143Y865308D01*
X906156Y865385D01*
X906166Y865462D01*
X906171Y865540D01*
X906173Y865618D01*
X906173Y866436D01*
X906171Y866514D01*
X906166Y866592D01*
X906156Y866669D01*
X906143Y866746D01*
X906127Y866822D01*
X906107Y866897D01*
X906083Y866971D01*
X906056Y867044D01*
X906025Y867116D01*
X905991Y867186D01*
X905954Y867255D01*
X905913Y867321D01*
X905869Y867386D01*
X905823Y867448D01*
X905773Y867508D01*
X905721Y867566D01*
X905666Y867621D01*
X905608Y867673D01*
X905548Y867723D01*
X905486Y867769D01*
X905421Y867813D01*
X905355Y867854D01*
X905286Y867891D01*
X905216Y867925D01*
X905144Y867956D01*
X905071Y867983D01*
X904997Y868007D01*
X904922Y868027D01*
X904846Y868043D01*
X904769Y868056D01*
X904692Y868066D01*
X904614Y868071D01*
X904536Y868073D01*
X902081Y868073D01*
X902081Y871347D01*
X906173Y871347D01*
X908987Y871347D02*
X911442Y863981D01*
X913898Y871347D01*
D16*
X780401Y800608D02*
X777804Y800608D01*
X777705Y800610D01*
X777605Y800616D01*
X777506Y800625D01*
X777408Y800638D01*
X777310Y800655D01*
X777212Y800676D01*
X777116Y800701D01*
X777021Y800729D01*
X776927Y800761D01*
X776834Y800796D01*
X776742Y800835D01*
X776652Y800878D01*
X776564Y800923D01*
X776477Y800973D01*
X776393Y801025D01*
X776310Y801081D01*
X776230Y801139D01*
X776152Y801201D01*
X776077Y801266D01*
X776004Y801334D01*
X775934Y801404D01*
X775866Y801477D01*
X775801Y801552D01*
X775739Y801630D01*
X775681Y801710D01*
X775625Y801793D01*
X775573Y801877D01*
X775523Y801964D01*
X775478Y802052D01*
X775435Y802142D01*
X775396Y802234D01*
X775361Y802327D01*
X775329Y802421D01*
X775301Y802516D01*
X775276Y802612D01*
X775255Y802710D01*
X775238Y802808D01*
X775225Y802906D01*
X775216Y803005D01*
X775210Y803105D01*
X775208Y803204D01*
X775208Y809696D01*
X775210Y809795D01*
X775216Y809895D01*
X775225Y809994D01*
X775238Y810092D01*
X775255Y810190D01*
X775276Y810288D01*
X775301Y810384D01*
X775329Y810479D01*
X775361Y810573D01*
X775396Y810666D01*
X775435Y810758D01*
X775478Y810848D01*
X775523Y810936D01*
X775573Y811023D01*
X775625Y811107D01*
X775681Y811190D01*
X775739Y811270D01*
X775801Y811348D01*
X775866Y811423D01*
X775934Y811496D01*
X776004Y811566D01*
X776077Y811634D01*
X776152Y811699D01*
X776230Y811761D01*
X776310Y811819D01*
X776393Y811875D01*
X776477Y811927D01*
X776564Y811977D01*
X776652Y812022D01*
X776742Y812065D01*
X776834Y812104D01*
X776926Y812139D01*
X777021Y812171D01*
X777116Y812199D01*
X777212Y812224D01*
X777310Y812245D01*
X777408Y812262D01*
X777506Y812275D01*
X777605Y812284D01*
X777705Y812290D01*
X777804Y812292D01*
X780401Y812292D01*
X784766Y812292D02*
X784766Y810994D01*
X784766Y812292D02*
X791257Y812292D01*
X788012Y800608D01*
D10*
X850900Y800100D02*
X850900Y825500D01*
X828040Y825500D01*
X825500Y822960D01*
X822960Y825500D01*
X802640Y825500D01*
X800100Y822960D01*
X797560Y825500D01*
X777240Y825500D01*
X774700Y822960D01*
X772160Y825500D01*
X751840Y825500D01*
X749300Y822960D01*
X746760Y825500D01*
X723900Y825500D01*
X723900Y800100D01*
X746760Y800100D01*
X749300Y802640D01*
X751840Y800100D01*
X772160Y800100D01*
X774700Y802640D01*
X777240Y800100D01*
X797560Y800100D01*
X800100Y802640D01*
X802640Y800100D01*
X822960Y800100D01*
X825500Y802640D01*
X828040Y800100D01*
X850900Y800100D01*
D14*
X855345Y815975D02*
X858520Y818515D01*
X858520Y807085D01*
X855345Y807085D02*
X861695Y807085D01*
X718185Y807085D02*
X714375Y807085D01*
X718185Y807085D02*
X718285Y807087D01*
X718384Y807093D01*
X718484Y807103D01*
X718582Y807116D01*
X718681Y807134D01*
X718778Y807155D01*
X718874Y807180D01*
X718970Y807209D01*
X719064Y807242D01*
X719157Y807278D01*
X719248Y807318D01*
X719338Y807362D01*
X719426Y807409D01*
X719512Y807459D01*
X719596Y807513D01*
X719678Y807570D01*
X719757Y807630D01*
X719835Y807694D01*
X719909Y807760D01*
X719981Y807829D01*
X720050Y807901D01*
X720116Y807975D01*
X720180Y808053D01*
X720240Y808132D01*
X720297Y808214D01*
X720351Y808298D01*
X720401Y808384D01*
X720448Y808472D01*
X720492Y808562D01*
X720532Y808653D01*
X720568Y808746D01*
X720601Y808840D01*
X720630Y808936D01*
X720655Y809032D01*
X720676Y809129D01*
X720694Y809228D01*
X720707Y809326D01*
X720717Y809426D01*
X720723Y809525D01*
X720725Y809625D01*
X720725Y810895D01*
X720723Y810995D01*
X720717Y811094D01*
X720707Y811194D01*
X720694Y811292D01*
X720676Y811391D01*
X720655Y811488D01*
X720630Y811584D01*
X720601Y811680D01*
X720568Y811774D01*
X720532Y811867D01*
X720492Y811958D01*
X720448Y812048D01*
X720401Y812136D01*
X720351Y812222D01*
X720297Y812306D01*
X720240Y812388D01*
X720180Y812467D01*
X720116Y812545D01*
X720050Y812619D01*
X719981Y812691D01*
X719909Y812760D01*
X719835Y812826D01*
X719757Y812890D01*
X719678Y812950D01*
X719596Y813007D01*
X719512Y813061D01*
X719426Y813111D01*
X719338Y813158D01*
X719248Y813202D01*
X719157Y813242D01*
X719064Y813278D01*
X718970Y813311D01*
X718874Y813340D01*
X718778Y813365D01*
X718681Y813386D01*
X718582Y813404D01*
X718484Y813417D01*
X718384Y813427D01*
X718285Y813433D01*
X718185Y813435D01*
X714375Y813435D01*
X714375Y818515D01*
X720725Y818515D01*
D11*
X826699Y829691D02*
X826699Y837057D01*
X825881Y829691D02*
X827518Y829691D01*
X827518Y837057D02*
X825881Y837057D01*
X832119Y829691D02*
X833756Y829691D01*
X832119Y829691D02*
X832041Y829693D01*
X831963Y829698D01*
X831886Y829708D01*
X831809Y829721D01*
X831733Y829737D01*
X831658Y829757D01*
X831584Y829781D01*
X831511Y829808D01*
X831439Y829839D01*
X831369Y829873D01*
X831301Y829910D01*
X831234Y829951D01*
X831169Y829995D01*
X831107Y830041D01*
X831047Y830091D01*
X830989Y830143D01*
X830934Y830198D01*
X830882Y830256D01*
X830832Y830316D01*
X830786Y830378D01*
X830742Y830443D01*
X830701Y830510D01*
X830664Y830578D01*
X830630Y830648D01*
X830599Y830720D01*
X830572Y830793D01*
X830548Y830867D01*
X830528Y830942D01*
X830512Y831018D01*
X830499Y831095D01*
X830489Y831172D01*
X830484Y831250D01*
X830482Y831328D01*
X830482Y835420D01*
X830484Y835500D01*
X830490Y835580D01*
X830500Y835660D01*
X830513Y835739D01*
X830531Y835818D01*
X830552Y835895D01*
X830578Y835971D01*
X830607Y836046D01*
X830639Y836120D01*
X830675Y836192D01*
X830715Y836262D01*
X830758Y836329D01*
X830804Y836395D01*
X830854Y836458D01*
X830906Y836519D01*
X830961Y836578D01*
X831020Y836633D01*
X831080Y836685D01*
X831144Y836735D01*
X831210Y836781D01*
X831277Y836824D01*
X831347Y836864D01*
X831419Y836900D01*
X831493Y836932D01*
X831567Y836961D01*
X831644Y836987D01*
X831721Y837008D01*
X831800Y837026D01*
X831879Y837039D01*
X831959Y837049D01*
X832039Y837055D01*
X832119Y837057D01*
X833756Y837057D01*
X840450Y831328D02*
X840448Y831250D01*
X840443Y831172D01*
X840433Y831095D01*
X840420Y831018D01*
X840404Y830942D01*
X840384Y830867D01*
X840360Y830793D01*
X840333Y830720D01*
X840302Y830648D01*
X840268Y830578D01*
X840231Y830510D01*
X840190Y830443D01*
X840146Y830378D01*
X840100Y830316D01*
X840050Y830256D01*
X839998Y830198D01*
X839943Y830143D01*
X839885Y830091D01*
X839825Y830041D01*
X839763Y829995D01*
X839698Y829951D01*
X839632Y829910D01*
X839563Y829873D01*
X839493Y829839D01*
X839421Y829808D01*
X839348Y829781D01*
X839274Y829757D01*
X839199Y829737D01*
X839123Y829721D01*
X839046Y829708D01*
X838969Y829698D01*
X838891Y829693D01*
X838813Y829691D01*
X838699Y829693D01*
X838586Y829698D01*
X838472Y829708D01*
X838359Y829721D01*
X838247Y829738D01*
X838135Y829758D01*
X838024Y829782D01*
X837913Y829810D01*
X837804Y829841D01*
X837696Y829876D01*
X837589Y829915D01*
X837483Y829957D01*
X837379Y830002D01*
X837276Y830051D01*
X837175Y830104D01*
X837076Y830159D01*
X836978Y830218D01*
X836883Y830280D01*
X836790Y830345D01*
X836698Y830413D01*
X836610Y830484D01*
X836523Y830558D01*
X836439Y830635D01*
X836358Y830714D01*
X836562Y835420D02*
X836564Y835498D01*
X836569Y835576D01*
X836579Y835653D01*
X836592Y835730D01*
X836608Y835806D01*
X836628Y835881D01*
X836652Y835955D01*
X836679Y836028D01*
X836710Y836100D01*
X836744Y836170D01*
X836781Y836239D01*
X836822Y836305D01*
X836866Y836370D01*
X836912Y836432D01*
X836962Y836492D01*
X837014Y836550D01*
X837069Y836605D01*
X837127Y836657D01*
X837187Y836707D01*
X837249Y836753D01*
X837314Y836797D01*
X837381Y836838D01*
X837449Y836875D01*
X837519Y836909D01*
X837591Y836940D01*
X837664Y836967D01*
X837738Y836991D01*
X837813Y837011D01*
X837889Y837027D01*
X837966Y837040D01*
X838043Y837050D01*
X838121Y837055D01*
X838199Y837057D01*
X838309Y837055D01*
X838418Y837049D01*
X838528Y837039D01*
X838636Y837026D01*
X838745Y837008D01*
X838852Y836987D01*
X838959Y836961D01*
X839065Y836932D01*
X839170Y836900D01*
X839273Y836863D01*
X839375Y836823D01*
X839476Y836779D01*
X839575Y836731D01*
X839672Y836681D01*
X839767Y836626D01*
X839860Y836568D01*
X839951Y836507D01*
X840040Y836443D01*
X837381Y833987D02*
X837314Y834029D01*
X837249Y834073D01*
X837187Y834121D01*
X837127Y834171D01*
X837069Y834224D01*
X837014Y834280D01*
X836962Y834339D01*
X836912Y834399D01*
X836865Y834463D01*
X836822Y834528D01*
X836781Y834595D01*
X836744Y834664D01*
X836710Y834735D01*
X836679Y834807D01*
X836652Y834881D01*
X836628Y834955D01*
X836608Y835031D01*
X836592Y835108D01*
X836579Y835185D01*
X836569Y835263D01*
X836564Y835342D01*
X836562Y835420D01*
X839631Y832760D02*
X839697Y832718D01*
X839762Y832674D01*
X839824Y832627D01*
X839884Y832576D01*
X839942Y832523D01*
X839997Y832467D01*
X840050Y832409D01*
X840099Y832348D01*
X840146Y832285D01*
X840189Y832220D01*
X840230Y832153D01*
X840267Y832084D01*
X840301Y832013D01*
X840332Y831941D01*
X840359Y831867D01*
X840383Y831792D01*
X840403Y831717D01*
X840419Y831640D01*
X840432Y831563D01*
X840442Y831485D01*
X840447Y831406D01*
X840449Y831328D01*
X839631Y832760D02*
X837381Y833988D01*
X843791Y837057D02*
X843791Y829691D01*
X843791Y837057D02*
X845837Y837057D01*
X845926Y837055D01*
X846015Y837049D01*
X846104Y837039D01*
X846192Y837026D01*
X846280Y837009D01*
X846367Y836987D01*
X846452Y836962D01*
X846537Y836934D01*
X846620Y836901D01*
X846702Y836865D01*
X846782Y836826D01*
X846860Y836783D01*
X846936Y836737D01*
X847011Y836687D01*
X847083Y836634D01*
X847152Y836578D01*
X847219Y836519D01*
X847284Y836458D01*
X847345Y836393D01*
X847404Y836326D01*
X847460Y836257D01*
X847513Y836185D01*
X847563Y836110D01*
X847609Y836034D01*
X847652Y835956D01*
X847691Y835876D01*
X847727Y835794D01*
X847760Y835711D01*
X847788Y835626D01*
X847813Y835541D01*
X847835Y835454D01*
X847852Y835366D01*
X847865Y835278D01*
X847875Y835189D01*
X847881Y835100D01*
X847883Y835011D01*
X847881Y834922D01*
X847875Y834833D01*
X847865Y834744D01*
X847852Y834656D01*
X847835Y834568D01*
X847813Y834481D01*
X847788Y834396D01*
X847760Y834311D01*
X847727Y834228D01*
X847691Y834146D01*
X847652Y834066D01*
X847609Y833988D01*
X847563Y833912D01*
X847513Y833837D01*
X847460Y833765D01*
X847404Y833696D01*
X847345Y833629D01*
X847284Y833564D01*
X847219Y833503D01*
X847152Y833444D01*
X847083Y833388D01*
X847011Y833335D01*
X846936Y833285D01*
X846860Y833239D01*
X846782Y833196D01*
X846702Y833157D01*
X846620Y833121D01*
X846537Y833088D01*
X846452Y833060D01*
X846367Y833035D01*
X846280Y833013D01*
X846192Y832996D01*
X846104Y832983D01*
X846015Y832973D01*
X845926Y832967D01*
X845837Y832965D01*
X843791Y832965D01*
D19*
X107225Y857775D03*
X107225Y844025D03*
D13*
X103350Y850900D03*
D19*
X272325Y857775D03*
X272325Y844025D03*
D13*
X268450Y850900D03*
D19*
X437425Y857775D03*
X437425Y844025D03*
D13*
X433550Y850900D03*
D19*
X602525Y857775D03*
X602525Y844025D03*
D13*
X598650Y850900D03*
M02*
