G04 EAGLE Gerber RS-274X export*
G75*
%MOMM*%
%FSLAX34Y34*%
%LPD*%
%INSolderpaste Top*%
%IPPOS*%
%AMOC8*
5,1,8,0,0,1.08239X$1,22.5*%
G01*
%ADD10R,1.500000X1.300000*%
%ADD11R,1.500000X1.500000*%
%ADD12R,1.300000X1.600000*%
%ADD13R,1.600000X1.300000*%
%ADD14R,1.300000X1.500000*%
%ADD15R,1.500000X0.600000*%
%ADD16R,2.800000X1.000000*%
%ADD17R,2.200000X0.600000*%
%ADD18R,6.200000X5.400000*%
%ADD19R,1.600000X1.000000*%


D10*
X960400Y387300D03*
X960400Y368300D03*
X757200Y387300D03*
X757200Y368300D03*
X795300Y273000D03*
X795300Y254000D03*
X931900Y273000D03*
X931900Y254000D03*
X881100Y152450D03*
X881100Y171450D03*
X944600Y152450D03*
X944600Y171450D03*
D11*
X965200Y617500D03*
X965200Y652500D03*
D12*
X831800Y550900D03*
X812800Y550900D03*
D13*
X922300Y387300D03*
X922300Y368300D03*
X922300Y438100D03*
X922300Y419100D03*
X795300Y323800D03*
X795300Y304800D03*
X795300Y387300D03*
X795300Y368300D03*
X795300Y438100D03*
X795300Y419100D03*
X973100Y171400D03*
X973100Y152400D03*
D12*
X171500Y566700D03*
X190500Y566700D03*
X336600Y642900D03*
X355600Y642900D03*
X336600Y617500D03*
X355600Y617500D03*
X514400Y642900D03*
X533400Y642900D03*
X895300Y550900D03*
X876300Y550900D03*
X514400Y617500D03*
X533400Y617500D03*
X336600Y592100D03*
X355600Y592100D03*
X336600Y566700D03*
X355600Y566700D03*
X514400Y592100D03*
X533400Y592100D03*
X514400Y566700D03*
X533400Y566700D03*
D13*
X909600Y171400D03*
X909600Y152400D03*
D14*
X933400Y652500D03*
X914400Y652500D03*
D12*
X895300Y335000D03*
X876300Y335000D03*
X831900Y334290D03*
X850900Y334290D03*
D13*
X931900Y323800D03*
X931900Y304800D03*
D12*
X171500Y617500D03*
X190500Y617500D03*
X171500Y642900D03*
X190500Y642900D03*
X171500Y592100D03*
X190500Y592100D03*
D15*
X891100Y374650D03*
X836100Y374650D03*
X891100Y361950D03*
X891100Y387350D03*
X891100Y400050D03*
X836100Y361950D03*
X836100Y387350D03*
X836100Y400050D03*
X891100Y260350D03*
X836100Y260350D03*
X891100Y247650D03*
X891100Y273050D03*
X891100Y285750D03*
X836100Y247650D03*
X836100Y273050D03*
X836100Y285750D03*
D16*
X62600Y820100D03*
X62600Y780100D03*
X140600Y780100D03*
X140600Y820100D03*
X392800Y820100D03*
X392800Y780100D03*
X470800Y780100D03*
X470800Y820100D03*
X227700Y820100D03*
X227700Y780100D03*
X305700Y780100D03*
X305700Y820100D03*
D17*
X761400Y749300D03*
X761400Y685800D03*
X761400Y762000D03*
X761400Y736600D03*
X761400Y723900D03*
X813400Y685800D03*
X761400Y698500D03*
X761400Y711200D03*
X813400Y698500D03*
X813400Y711200D03*
X813400Y723900D03*
X813400Y736600D03*
X813400Y749300D03*
X813400Y762000D03*
D16*
X557900Y820100D03*
X557900Y780100D03*
X635900Y780100D03*
X635900Y820100D03*
D18*
X952100Y825500D03*
D19*
X879100Y848300D03*
X879100Y802700D03*
D14*
X777900Y787400D03*
X796900Y787400D03*
D11*
X119100Y850900D03*
X84100Y850900D03*
X284200Y850900D03*
X249200Y850900D03*
X449300Y850900D03*
X414300Y850900D03*
X614400Y850900D03*
X579400Y850900D03*
D12*
X47600Y850900D03*
X28600Y850900D03*
X212700Y850900D03*
X193700Y850900D03*
X377800Y850900D03*
X358800Y850900D03*
X542900Y850900D03*
X523900Y850900D03*
M02*
