G04 EAGLE Gerber RS-274X export*
G75*
%MOMM*%
%FSLAX34Y34*%
%LPD*%
%INSoldermask Bottom*%
%IPPOS*%
%AMOC8*
5,1,8,0,0,1.08239X$1,22.5*%
G01*
%ADD10P,1.539592X8X202.500000*%
%ADD11C,1.422400*%
%ADD12P,1.539592X8X22.500000*%
%ADD13C,2.133600*%
%ADD14C,2.003200*%
%ADD15C,1.511200*%
%ADD16C,1.703200*%
%ADD17C,2.387600*%
%ADD18C,1.803200*%
%ADD19C,2.203200*%
%ADD20R,2.387600X2.387600*%
%ADD21C,1.903200*%
%ADD22C,2.203200*%
%ADD23C,1.524000*%
%ADD24C,1.711200*%
%ADD25C,0.959600*%


D10*
X812800Y500100D03*
D11*
X830580Y500100D03*
D12*
X901700Y503200D03*
D11*
X883920Y503200D03*
D13*
X336700Y673500D03*
X336700Y698500D03*
X336700Y723500D03*
D14*
X266700Y654500D03*
X266700Y742500D03*
D13*
X501800Y673500D03*
X501800Y698500D03*
X501800Y723500D03*
D14*
X431800Y654500D03*
X431800Y742500D03*
D13*
X171600Y673500D03*
X171600Y698500D03*
X171600Y723500D03*
D14*
X101600Y654500D03*
X101600Y742500D03*
D15*
X958660Y723900D02*
X971740Y723900D01*
X971740Y743900D02*
X958660Y743900D01*
X958660Y703900D02*
X971740Y703900D01*
D16*
X965200Y764900D03*
X965200Y682900D03*
D17*
X927100Y38100D03*
X877100Y88100D03*
X977100Y88100D03*
D18*
X877100Y38100D03*
X977100Y38100D03*
X927100Y88100D03*
D13*
X559400Y42500D03*
X584400Y42500D03*
X609400Y42500D03*
X634400Y42500D03*
X584400Y592500D03*
X609400Y592500D03*
D19*
X596900Y155000D03*
X596900Y480000D03*
D20*
X84100Y25000D03*
D17*
X119100Y25000D03*
X84100Y610000D03*
D21*
X59100Y82500D03*
X59100Y552500D03*
X144100Y66500D03*
X144100Y568500D03*
D20*
X249200Y25000D03*
D17*
X284200Y25000D03*
X249200Y610000D03*
D21*
X224200Y82500D03*
X224200Y552500D03*
X309200Y66500D03*
X309200Y568500D03*
D20*
X414300Y25000D03*
D17*
X449300Y25000D03*
X414300Y610000D03*
D21*
X389300Y82500D03*
X389300Y552500D03*
X474300Y66500D03*
X474300Y568500D03*
D15*
X772000Y197040D02*
X772000Y183960D01*
X752000Y183960D02*
X752000Y197040D01*
X732000Y197040D02*
X732000Y183960D01*
X792000Y183960D02*
X792000Y197040D01*
X812000Y197040D02*
X812000Y183960D01*
X712000Y183960D02*
X712000Y197040D01*
D19*
X827000Y80500D03*
X697000Y80500D03*
D22*
X929800Y896100D02*
X949800Y896100D01*
X949800Y957100D02*
X929800Y957100D01*
X891800Y937100D02*
X891800Y917100D01*
D17*
X88900Y965200D03*
X138900Y915200D03*
X38900Y915200D03*
D18*
X138900Y965200D03*
X38900Y965200D03*
X88900Y915200D03*
D17*
X774700Y965200D03*
X824700Y915200D03*
X724700Y915200D03*
D18*
X824700Y965200D03*
X724700Y965200D03*
X774700Y915200D03*
D17*
X546100Y965200D03*
X596100Y915200D03*
X496100Y915200D03*
D18*
X596100Y965200D03*
X496100Y965200D03*
X546100Y915200D03*
D17*
X317500Y965200D03*
X367500Y915200D03*
X267500Y915200D03*
D18*
X367500Y965200D03*
X267500Y965200D03*
X317500Y915200D03*
D23*
X184404Y977900D02*
X171196Y977900D01*
X171196Y952500D02*
X184404Y952500D01*
X184404Y876300D02*
X171196Y876300D01*
X221996Y876300D02*
X235204Y876300D01*
X235204Y952500D02*
X221996Y952500D01*
X221996Y977900D02*
X235204Y977900D01*
X399796Y977900D02*
X413004Y977900D01*
X413004Y952500D02*
X399796Y952500D01*
X399796Y876300D02*
X413004Y876300D01*
X450596Y876300D02*
X463804Y876300D01*
X463804Y952500D02*
X450596Y952500D01*
X450596Y977900D02*
X463804Y977900D01*
X628396Y977900D02*
X641604Y977900D01*
X641604Y952500D02*
X628396Y952500D01*
X628396Y876300D02*
X641604Y876300D01*
X679196Y876300D02*
X692404Y876300D01*
X692404Y952500D02*
X679196Y952500D01*
X679196Y977900D02*
X692404Y977900D01*
D24*
X558800Y660400D03*
X584200Y660400D03*
X609600Y660400D03*
X635000Y660400D03*
X660400Y660400D03*
X660400Y736600D03*
X635000Y736600D03*
X609600Y736600D03*
X584200Y736600D03*
X558800Y736600D03*
D23*
X838200Y806196D02*
X838200Y819404D01*
X812800Y819404D02*
X812800Y806196D01*
X787400Y806196D02*
X787400Y819404D01*
X762000Y819404D02*
X762000Y806196D01*
X736600Y806196D02*
X736600Y819404D01*
D25*
X444500Y215900D03*
X279400Y215900D03*
X431800Y228600D03*
X228600Y228600D03*
X812800Y292100D03*
X482600Y101600D03*
X431800Y101600D03*
X891540Y429768D03*
X822960Y249174D03*
X834390Y352044D03*
X834390Y475488D03*
X210312Y612648D03*
X308610Y715518D03*
X546354Y589788D03*
X448056Y589788D03*
X868680Y356616D03*
X841248Y320040D03*
X578358Y557784D03*
X365760Y630936D03*
X157734Y619506D03*
X157734Y635508D03*
X324612Y605790D03*
X502920Y628650D03*
X452628Y368046D03*
X800100Y342900D03*
X804672Y450342D03*
X914400Y254480D03*
X927100Y177800D03*
X876300Y203200D03*
X876300Y228600D03*
X819150Y266116D03*
X870430Y241300D03*
X480060Y809244D03*
X246888Y800100D03*
X528066Y811530D03*
X640080Y893826D03*
X486918Y763524D03*
X786384Y742950D03*
X784098Y758952D03*
M02*
