M48
;GenerationSoftware,Autodesk,EAGLE,9.4.2*%
;CreationDate,2019-06-21T23:01:55Z*%
FMAT,2
ICI,OFF
METRIC,TZ,000.000
T13C0.350
T12C0.711
T11C0.800
T10C0.813
T9C1.000
T8C1.100
T7C1.200
T6C1.300
T5C1.500
T4C1.600
T3C1.700
T2C1.800
T1C2.000
%
G90
M71
T1
X82700Y8050
X69700Y8050
X59690Y48000
X59690Y15500
T2
X26670Y74250
X43180Y65450
X26670Y65450
X43180Y74250
X10160Y65450
X10160Y74250
T3
X22420Y8250
X47430Y56850
X47430Y6650
X38930Y55250
X38930Y8250
X30920Y56850
X30920Y6650
X22420Y55250
X14410Y56850
X14410Y6650
X5910Y55250
X5910Y8250
T4
X72470Y96520
X82470Y96520
X92710Y8810
X97710Y3810
X87710Y3810
X8890Y91520
X3890Y96520
X13890Y96520
X77470Y91520
X59610Y96520
X49610Y96520
X54610Y91520
X36750Y96520
X26750Y96520
X31750Y91520
T5
X96520Y76490
X96520Y68290
T6
X82470Y91520
X3890Y91520
X13890Y91520
X8890Y96520
X87710Y8810
X92710Y3810
X77470Y96520
X97710Y8810
X26750Y91520
X36750Y91520
X31750Y96520
X49610Y91520
X59610Y91520
X54610Y96520
X72470Y91520
T7
X44930Y2500
X41430Y61000
X11910Y2500
X8410Y61000
X24920Y2500
X28420Y2500
X24920Y61000
X41430Y2500
X8410Y2500
T8
X60940Y59250
X55940Y4250
X58440Y4250
X60940Y4250
X63440Y4250
X58440Y59250
T9
X55880Y66040
X58420Y66040
X17160Y69850
X17160Y72350
X33670Y69850
X17160Y67350
X93980Y89610
X93980Y95710
X89180Y92710
X50180Y72350
X50180Y69850
X50180Y67350
X33670Y72350
X33670Y67350
X60960Y66040
X63500Y66040
X66040Y66040
X66040Y73660
X63500Y73660
X60960Y73660
X58420Y73660
X55880Y73660
T10
X40640Y95250
X40640Y87630
X45720Y87630
X45720Y95250
X45720Y97790
X63500Y95250
X63500Y87630
X68580Y87630
X68580Y95250
X68580Y97790
X63500Y97790
X17780Y97790
X17780Y95250
X17780Y87630
X22860Y87630
X22860Y95250
X22860Y97790
X40640Y97790
X83820Y81280
X81280Y81280
X78740Y81280
X76200Y81280
X73660Y81280
T11
X73200Y19050
X79200Y19050
X81200Y19050
X71200Y19050
X96520Y72390
X96520Y74390
X96520Y70390
X75200Y19050
X77200Y19050
T12
X83058Y50010
X81280Y50010
X90170Y50320
X88392Y50320
T13
X30861Y71552
X21031Y61265
X83439Y47549
X83439Y35204
X82296Y24917
X89154Y42977
X43180Y10160
X48260Y10160
X81280Y29210
X22860Y22860
X15773Y63551
X78410Y75895
X78638Y74295
X86868Y35662
X57836Y55778
X84125Y32004
X48692Y76352
X64008Y89383
X44450Y21590
X52807Y81153
X24689Y80010
X48006Y80924
X87043Y24130
X81915Y26612
X43180Y22860
X27940Y21590
X44806Y58979
X87630Y20320
X92710Y17780
X91440Y25448
X80467Y45034
X80010Y34290
X87630Y22860
X50292Y62865
X32461Y60579
X15773Y61951
X36576Y63094
X54635Y58979
X45263Y36805
M30